<svg xmlns="http://www.w3.org/2000/svg" xmlns:xlink="http://www.w3.org/1999/xlink" width="300" zoomAndPan="magnify" viewBox="0 0 224.87999 112.499997" height="150" preserveAspectRatio="xMidYMid meet" version="1.0"><defs><g/><clipPath id="6873778aa1"><path d="M 93 51 L 125.878906 51 L 125.878906 100.84375 L 93 100.84375 Z M 93 51 " clip-rule="nonzero"/></clipPath><clipPath id="0fcf3fd889"><path d="M 47 62 L 102 62 L 102 100.84375 L 47 100.84375 Z M 47 62 " clip-rule="nonzero"/></clipPath><clipPath id="d6b1f9fe52"><path d="M 11.636719 9.75 L 90 9.75 L 90 60 L 11.636719 60 Z M 11.636719 9.75 " clip-rule="nonzero"/></clipPath></defs><g clip-path="url(#6873778aa1)"><path fill="#ffffff" d="M 125.382812 86.496094 L 116.222656 72.980469 L 116.222656 55.773438 C 116.222656 53.417969 114.304688 51.5 111.949219 51.5 L 93.445312 51.5 L 93.445312 55.296875 L 111.949219 55.296875 C 112.210938 55.296875 112.425781 55.511719 112.425781 55.773438 L 112.425781 73.5625 C 112.425781 73.945312 112.539062 74.3125 112.753906 74.628906 L 120.234375 85.664062 L 114.324219 85.664062 C 113.273438 85.664062 112.425781 86.511719 112.425781 87.558594 L 112.425781 96.574219 C 112.425781 96.835938 112.210938 97.050781 111.949219 97.050781 L 104.832031 97.050781 L 104.832031 100.84375 L 111.949219 100.84375 C 114.304688 100.84375 116.222656 98.929688 116.222656 96.574219 L 116.222656 89.457031 L 123.8125 89.457031 C 124.515625 89.457031 125.160156 89.070312 125.488281 88.449219 C 125.820312 87.828125 125.777344 87.078125 125.382812 86.496094 " fill-opacity="1" fill-rule="nonzero"/></g><g clip-path="url(#0fcf3fd889)"><path fill="#ffffff" d="M 51.6875 96.574219 L 51.6875 62.886719 L 47.894531 62.886719 L 47.894531 96.574219 C 47.894531 98.929688 49.808594 100.84375 52.164062 100.84375 L 101.035156 100.84375 L 101.035156 97.050781 L 52.164062 97.050781 C 51.902344 97.050781 51.6875 96.835938 51.6875 96.574219 " fill-opacity="1" fill-rule="nonzero"/></g><path fill="#ffffff" d="M 108.628906 64.785156 L 108.628906 60.992188 C 108.628906 59.941406 107.777344 59.09375 106.730469 59.09375 L 102.933594 59.09375 L 102.933594 62.886719 L 104.832031 62.886719 L 104.832031 64.785156 L 108.628906 64.785156 " fill-opacity="1" fill-rule="nonzero"/><path fill="#ffffff" d="M 55.484375 87.558594 L 55.484375 91.355469 C 55.484375 92.402344 56.335938 93.253906 57.382812 93.253906 L 61.179688 93.253906 L 61.179688 89.457031 L 59.28125 89.457031 L 59.28125 87.558594 L 55.484375 87.558594 " fill-opacity="1" fill-rule="nonzero"/><path fill="#ffffff" d="M 78.058594 78.070312 L 81.558594 66.683594 L 82.554688 66.683594 L 86.058594 78.070312 Z M 83.953125 62.886719 L 80.160156 62.886719 C 79.324219 62.886719 78.589844 63.429688 78.34375 64.226562 L 70.753906 88.898438 L 74.378906 90.015625 L 76.890625 81.867188 L 87.226562 81.867188 L 89.734375 90.015625 L 93.359375 88.898438 L 85.769531 64.226562 C 85.523438 63.429688 84.789062 62.886719 83.953125 62.886719 " fill-opacity="1" fill-rule="nonzero"/><g clip-path="url(#d6b1f9fe52)"><path fill="#ffffff" d="M 89.648438 54.824219 L 89.648438 14.019531 C 89.648438 11.664062 87.734375 9.75 85.378906 9.75 L 38.402344 9.75 L 38.402344 13.546875 L 85.378906 13.546875 C 85.640625 13.546875 85.851562 13.757812 85.851562 14.019531 L 85.851562 54.824219 C 85.851562 55.085938 85.640625 55.296875 85.378906 55.296875 L 25.589844 55.296875 C 25.328125 55.296875 25.117188 55.085938 25.117188 54.824219 L 25.117188 37.03125 C 25.117188 36.652344 25.003906 36.28125 24.789062 35.964844 L 17.308594 24.933594 L 23.21875 24.933594 C 24.265625 24.933594 25.117188 24.082031 25.117188 23.035156 L 25.117188 14.019531 C 25.117188 13.757812 25.328125 13.546875 25.589844 13.546875 L 34.605469 13.546875 L 34.605469 9.75 L 25.589844 9.75 C 23.238281 9.75 21.320312 11.664062 21.320312 14.019531 L 21.320312 21.136719 L 13.730469 21.136719 C 13.027344 21.136719 12.382812 21.523438 12.050781 22.144531 C 11.722656 22.765625 11.765625 23.519531 12.15625 24.097656 L 21.320312 37.613281 L 21.320312 54.824219 C 21.320312 57.175781 23.238281 59.09375 25.589844 59.09375 L 85.378906 59.09375 C 87.734375 59.09375 89.648438 57.175781 89.648438 54.824219 " fill-opacity="1" fill-rule="nonzero"/></g><path fill="#ffffff" d="M 28.914062 19.238281 L 28.914062 23.035156 L 32.707031 23.035156 L 32.707031 21.136719 L 34.605469 21.136719 L 34.605469 17.339844 L 30.8125 17.339844 C 29.761719 17.339844 28.914062 18.191406 28.914062 19.238281 " fill-opacity="1" fill-rule="nonzero"/><path fill="#ffffff" d="M 82.058594 49.605469 L 82.058594 45.808594 L 78.261719 45.808594 L 78.261719 47.707031 L 76.363281 47.707031 L 76.363281 51.5 L 80.160156 51.5 C 81.207031 51.5 82.058594 50.652344 82.058594 49.605469 " fill-opacity="1" fill-rule="nonzero"/><path fill="#ffffff" d="M 56.699219 36.757812 L 54.269531 39.675781 L 58.402344 43.117188 C 57.890625 43.609375 57.199219 43.910156 56.433594 43.910156 L 50.738281 43.910156 C 49.171875 43.910156 47.894531 42.632812 47.894531 41.0625 L 47.894531 27.777344 C 47.894531 26.210938 49.171875 24.933594 50.738281 24.933594 L 56.433594 24.933594 C 58.003906 24.933594 59.28125 26.210938 59.28125 27.777344 L 59.28125 38.910156 Z M 63.078125 27.777344 C 63.078125 24.117188 60.097656 21.136719 56.433594 21.136719 L 50.738281 21.136719 C 47.078125 21.136719 44.097656 24.117188 44.097656 27.777344 L 44.097656 41.0625 C 44.097656 44.726562 47.078125 47.707031 50.738281 47.707031 L 56.433594 47.707031 C 58.367188 47.707031 60.109375 46.875 61.324219 45.554688 L 65.65625 49.164062 L 68.089844 46.25 L 63.007812 42.015625 C 63.054688 41.703125 63.078125 41.386719 63.078125 41.0625 L 63.078125 27.777344 " fill-opacity="1" fill-rule="nonzero"/><g fill="#ffffff" fill-opacity="0.4"><g transform="translate(100.181666, 40.241694)"><g><path d="M 31.582031 -2.121094 C 31.953125 -2.121094 32.039062 -2.242188 32.078125 -2.742188 C 32.121094 -3.78125 31.789062 -4.320312 31.082031 -4.363281 C 30.207031 -4.363281 30 -4.238281 29.960938 -3.40625 C 28.296875 -3.367188 25.886719 -3.28125 23.101562 -3.242188 C 23.269531 -7.5625 23.394531 -12.050781 23.519531 -16.039062 C 28.835938 -16.164062 33.617188 -16.121094 34.988281 -16.121094 C 35.320312 -16.082031 35.484375 -16.289062 35.484375 -16.746094 C 35.527344 -17.785156 35.195312 -18.324219 34.488281 -18.324219 C 33.65625 -18.367188 33.410156 -18.242188 33.367188 -17.367188 C 31.703125 -17.328125 27.882812 -17.246094 23.558594 -17.203125 C 23.683594 -21.980469 23.769531 -25.722656 23.769531 -26.59375 C 23.769531 -27.632812 23.601562 -28.339844 22.894531 -28.546875 C 21.441406 -28.921875 19.613281 -28.835938 17.992188 -28.546875 C 17.328125 -28.421875 16.996094 -27.839844 17.035156 -27.050781 L 17.285156 -17.160156 C 12.964844 -17.160156 8.851562 -17.121094 6.359375 -17.246094 C 5.984375 -17.246094 5.734375 -17.035156 5.691406 -16.578125 C 5.691406 -15.207031 5.984375 -14.960938 6.773438 -14.960938 C 7.4375 -14.960938 7.851562 -15.082031 7.851562 -15.789062 L 17.328125 -15.957031 L 17.660156 -3.199219 C 15.207031 -3.199219 12.964844 -3.242188 10.886719 -3.324219 C 10.511719 -3.324219 10.261719 -3.117188 10.222656 -2.660156 C 10.179688 -1.289062 10.472656 -1.082031 11.261719 -1.039062 C 11.925781 -1.039062 12.382812 -1.164062 12.382812 -1.871094 C 15.789062 -1.871094 28.589844 -2.121094 31.582031 -2.121094 Z M 21.898438 -26.636719 C 22.355469 -23.933594 22.480469 -20.777344 22.105469 -17.910156 L 21.773438 -18.160156 C 21.730469 -20.816406 21.609375 -23.394531 21.484375 -26.054688 L 21.816406 -26.925781 Z M 31.414062 -3.65625 L 30.582031 -3.492188 L 30.417969 -3.78125 C 30.707031 -4.070312 31.082031 -4.070312 31.414062 -3.949219 Z M 34.820312 -17.660156 L 33.988281 -17.492188 L 33.867188 -17.742188 C 34.113281 -17.992188 34.449219 -18.074219 34.820312 -17.949219 Z M 34.820312 -17.660156 "/></g></g></g><g fill="#ffffff" fill-opacity="0.4"><g transform="translate(141.727541, 40.241694)"><g><path d="M 19.15625 -24.597656 C 22.9375 -24.597656 27.507812 -24.640625 29.378906 -24.640625 C 29.585938 -20.402344 29.835938 -8.644531 29.710938 -0.664062 L 26.84375 -1.703125 C 27.132812 -2.535156 26.800781 -2.742188 26.261719 -2.910156 C 25.722656 -3.074219 25.140625 -3.035156 24.933594 -1.828125 C 24.890625 -1.539062 24.933594 -1.328125 25.222656 -1.203125 C 27.050781 -0.539062 30.707031 1.039062 33.492188 2.035156 C 34.03125 2.203125 34.570312 1.910156 34.695312 0.957031 C 35.363281 -8.101562 35.652344 -17.742188 35.777344 -24.390625 C 35.777344 -25.429688 35.238281 -26.261719 33.90625 -26.21875 L 20.691406 -25.761719 C 20.652344 -26.46875 20.195312 -26.675781 19.570312 -26.675781 C 18.949219 -26.675781 18.492188 -26.304688 18.617188 -25.097656 C 18.617188 -24.765625 18.78125 -24.597656 19.15625 -24.597656 Z M 14.460938 -8.394531 C 14.5 -7.605469 14.792969 -7.394531 15.457031 -7.355469 C 15.957031 -7.3125 16.828125 -7.355469 17.328125 -7.394531 C 18.285156 -7.519531 18.699219 -7.519531 18.90625 -8.3125 L 25.472656 -8.433594 C 26.34375 -8.433594 26.675781 -8.769531 26.84375 -9.597656 C 27.175781 -11.425781 27.589844 -15.125 27.800781 -17.660156 C 27.921875 -18.617188 27.550781 -18.699219 26.71875 -18.699219 C 24.058594 -18.699219 16.207031 -18.742188 15.042969 -18.574219 C 14.542969 -18.53125 14.085938 -18.199219 14.128906 -17.578125 Z M 7.023438 -0.5 C 7.0625 0.167969 7.5625 0.5 8.519531 0.5 C 9.183594 0.539062 9.722656 0.539062 10.554688 0.414062 C 11.34375 0.289062 11.636719 0.207031 11.757812 -0.832031 C 11.925781 -2.367188 12.175781 -21.066406 12.175781 -22.230469 C 12.175781 -22.6875 12.007812 -22.980469 11.34375 -23.101562 C 9.890625 -23.226562 8.351562 -23.269531 6.730469 -23.101562 C 6.109375 -22.980469 5.902344 -22.644531 5.941406 -22.273438 C 6.273438 -17.492188 6.855469 -2.160156 7.023438 -0.5 Z M 13.585938 -30.042969 C 13.046875 -30.417969 12.839844 -30.5 12.214844 -30.042969 C 11.59375 -29.585938 11.261719 -29.085938 10.636719 -28.546875 C 10.097656 -28.007812 9.972656 -27.589844 10.597656 -26.761719 C 11.300781 -25.722656 12.425781 -24.640625 13.089844 -23.769531 C 13.503906 -23.226562 13.921875 -23.1875 14.378906 -23.644531 C 15.332031 -24.597656 16.121094 -25.347656 16.953125 -26.34375 C 17.246094 -26.675781 17.285156 -27.175781 16.996094 -27.464844 C 16.039062 -28.257812 14.542969 -29.378906 13.585938 -30.042969 Z M 20.320312 -17.367188 C 20.320312 -17.578125 22.605469 -17.578125 22.605469 -17.367188 C 22.730469 -14.210938 22.6875 -11.882812 22.5625 -9.558594 L 19.15625 -9.558594 C 19.613281 -12.382812 19.988281 -15.582031 20.320312 -17.367188 Z M 7.8125 -21.816406 C 8.3125 -19.820312 8.269531 -18.074219 7.976562 -16.621094 L 7.644531 -16.828125 C 7.519531 -18.199219 7.480469 -19.40625 7.3125 -21.359375 L 7.6875 -22.023438 Z M 15.5 -17.535156 L 15.957031 -16.828125 L 15.832031 -12.589844 L 15.417969 -12.589844 L 15.082031 -17.535156 Z M 34.363281 -24.265625 L 34.65625 -23.394531 L 34.324219 -19.320312 L 33.988281 -19.363281 L 34.03125 -24.308594 Z M 12.382812 -29.460938 C 13.089844 -29.171875 13.585938 -28.835938 14.042969 -28.132812 L 13.796875 -28.007812 L 12.300781 -29.085938 L 12.257812 -29.460938 Z M 8.019531 -15.75 L 8.101562 -14.460938 L 7.605469 -14.003906 C 7.3125 -14.667969 7.519531 -15.332031 7.851562 -15.957031 Z M 15.789062 -12.007812 L 15.832031 -11.21875 L 15.332031 -10.96875 C 15.125 -11.34375 15.332031 -11.800781 15.664062 -12.132812 Z M 34.28125 -18.65625 L 34.199219 -17.660156 L 33.824219 -17.410156 C 33.699219 -17.910156 33.867188 -18.40625 34.15625 -18.78125 Z M 14.253906 -27.589844 L 14.5 -27.675781 L 15 -27.464844 C 15.125 -27.257812 15.082031 -27.132812 14.875 -27.007812 L 14.667969 -27.007812 L 14.335938 -27.507812 Z M 26.09375 -2.410156 C 26.21875 -2.285156 26.261719 -2.160156 26.21875 -2.035156 L 25.679688 -1.953125 C 25.554688 -2.160156 25.679688 -2.285156 26.011719 -2.410156 Z M 26.09375 -2.410156 "/></g></g></g><g fill="#ffffff" fill-opacity="1"><g transform="translate(98.345073, 38.405101)"><g><path d="M 31.582031 -2.121094 C 31.953125 -2.121094 32.039062 -2.242188 32.078125 -2.742188 C 32.121094 -3.78125 31.789062 -4.320312 31.082031 -4.363281 C 30.207031 -4.363281 30 -4.238281 29.960938 -3.40625 C 28.296875 -3.367188 25.886719 -3.28125 23.101562 -3.242188 C 23.269531 -7.5625 23.394531 -12.050781 23.519531 -16.039062 C 28.835938 -16.164062 33.617188 -16.121094 34.988281 -16.121094 C 35.320312 -16.082031 35.484375 -16.289062 35.484375 -16.746094 C 35.527344 -17.785156 35.195312 -18.324219 34.488281 -18.324219 C 33.65625 -18.367188 33.410156 -18.242188 33.367188 -17.367188 C 31.703125 -17.328125 27.882812 -17.246094 23.558594 -17.203125 C 23.683594 -21.980469 23.769531 -25.722656 23.769531 -26.59375 C 23.769531 -27.632812 23.601562 -28.339844 22.894531 -28.546875 C 21.441406 -28.921875 19.613281 -28.835938 17.992188 -28.546875 C 17.328125 -28.421875 16.996094 -27.839844 17.035156 -27.050781 L 17.285156 -17.160156 C 12.964844 -17.160156 8.851562 -17.121094 6.359375 -17.246094 C 5.984375 -17.246094 5.734375 -17.035156 5.691406 -16.578125 C 5.691406 -15.207031 5.984375 -14.960938 6.773438 -14.960938 C 7.4375 -14.960938 7.851562 -15.082031 7.851562 -15.789062 L 17.328125 -15.957031 L 17.660156 -3.199219 C 15.207031 -3.199219 12.964844 -3.242188 10.886719 -3.324219 C 10.511719 -3.324219 10.261719 -3.117188 10.222656 -2.660156 C 10.179688 -1.289062 10.472656 -1.082031 11.261719 -1.039062 C 11.925781 -1.039062 12.382812 -1.164062 12.382812 -1.871094 C 15.789062 -1.871094 28.589844 -2.121094 31.582031 -2.121094 Z M 21.898438 -26.636719 C 22.355469 -23.933594 22.480469 -20.777344 22.105469 -17.910156 L 21.773438 -18.160156 C 21.730469 -20.816406 21.609375 -23.394531 21.484375 -26.054688 L 21.816406 -26.925781 Z M 31.414062 -3.65625 L 30.582031 -3.492188 L 30.417969 -3.78125 C 30.707031 -4.070312 31.082031 -4.070312 31.414062 -3.949219 Z M 34.820312 -17.660156 L 33.988281 -17.492188 L 33.867188 -17.742188 C 34.113281 -17.992188 34.449219 -18.074219 34.820312 -17.949219 Z M 34.820312 -17.660156 "/></g></g></g><g fill="#ffffff" fill-opacity="1"><g transform="translate(139.890948, 38.405101)"><g><path d="M 19.15625 -24.597656 C 22.9375 -24.597656 27.507812 -24.640625 29.378906 -24.640625 C 29.585938 -20.402344 29.835938 -8.644531 29.710938 -0.664062 L 26.84375 -1.703125 C 27.132812 -2.535156 26.800781 -2.742188 26.261719 -2.910156 C 25.722656 -3.074219 25.140625 -3.035156 24.933594 -1.828125 C 24.890625 -1.539062 24.933594 -1.328125 25.222656 -1.203125 C 27.050781 -0.539062 30.707031 1.039062 33.492188 2.035156 C 34.03125 2.203125 34.570312 1.910156 34.695312 0.957031 C 35.363281 -8.101562 35.652344 -17.742188 35.777344 -24.390625 C 35.777344 -25.429688 35.238281 -26.261719 33.90625 -26.21875 L 20.691406 -25.761719 C 20.652344 -26.46875 20.195312 -26.675781 19.570312 -26.675781 C 18.949219 -26.675781 18.492188 -26.304688 18.617188 -25.097656 C 18.617188 -24.765625 18.78125 -24.597656 19.15625 -24.597656 Z M 14.460938 -8.394531 C 14.5 -7.605469 14.792969 -7.394531 15.457031 -7.355469 C 15.957031 -7.3125 16.828125 -7.355469 17.328125 -7.394531 C 18.285156 -7.519531 18.699219 -7.519531 18.90625 -8.3125 L 25.472656 -8.433594 C 26.34375 -8.433594 26.675781 -8.769531 26.84375 -9.597656 C 27.175781 -11.425781 27.589844 -15.125 27.800781 -17.660156 C 27.921875 -18.617188 27.550781 -18.699219 26.71875 -18.699219 C 24.058594 -18.699219 16.207031 -18.742188 15.042969 -18.574219 C 14.542969 -18.53125 14.085938 -18.199219 14.128906 -17.578125 Z M 7.023438 -0.5 C 7.0625 0.167969 7.5625 0.5 8.519531 0.5 C 9.183594 0.539062 9.722656 0.539062 10.554688 0.414062 C 11.34375 0.289062 11.636719 0.207031 11.757812 -0.832031 C 11.925781 -2.367188 12.175781 -21.066406 12.175781 -22.230469 C 12.175781 -22.6875 12.007812 -22.980469 11.34375 -23.101562 C 9.890625 -23.226562 8.351562 -23.269531 6.730469 -23.101562 C 6.109375 -22.980469 5.902344 -22.644531 5.941406 -22.273438 C 6.273438 -17.492188 6.855469 -2.160156 7.023438 -0.5 Z M 13.585938 -30.042969 C 13.046875 -30.417969 12.839844 -30.5 12.214844 -30.042969 C 11.59375 -29.585938 11.261719 -29.085938 10.636719 -28.546875 C 10.097656 -28.007812 9.972656 -27.589844 10.597656 -26.761719 C 11.300781 -25.722656 12.425781 -24.640625 13.089844 -23.769531 C 13.503906 -23.226562 13.921875 -23.1875 14.378906 -23.644531 C 15.332031 -24.597656 16.121094 -25.347656 16.953125 -26.34375 C 17.246094 -26.675781 17.285156 -27.175781 16.996094 -27.464844 C 16.039062 -28.257812 14.542969 -29.378906 13.585938 -30.042969 Z M 20.320312 -17.367188 C 20.320312 -17.578125 22.605469 -17.578125 22.605469 -17.367188 C 22.730469 -14.210938 22.6875 -11.882812 22.5625 -9.558594 L 19.15625 -9.558594 C 19.613281 -12.382812 19.988281 -15.582031 20.320312 -17.367188 Z M 7.8125 -21.816406 C 8.3125 -19.820312 8.269531 -18.074219 7.976562 -16.621094 L 7.644531 -16.828125 C 7.519531 -18.199219 7.480469 -19.40625 7.3125 -21.359375 L 7.6875 -22.023438 Z M 15.5 -17.535156 L 15.957031 -16.828125 L 15.832031 -12.589844 L 15.417969 -12.589844 L 15.082031 -17.535156 Z M 34.363281 -24.265625 L 34.65625 -23.394531 L 34.324219 -19.320312 L 33.988281 -19.363281 L 34.03125 -24.308594 Z M 12.382812 -29.460938 C 13.089844 -29.171875 13.585938 -28.835938 14.042969 -28.132812 L 13.796875 -28.007812 L 12.300781 -29.085938 L 12.257812 -29.460938 Z M 8.019531 -15.75 L 8.101562 -14.460938 L 7.605469 -14.003906 C 7.3125 -14.667969 7.519531 -15.332031 7.851562 -15.957031 Z M 15.789062 -12.007812 L 15.832031 -11.21875 L 15.332031 -10.96875 C 15.125 -11.34375 15.332031 -11.800781 15.664062 -12.132812 Z M 34.28125 -18.65625 L 34.199219 -17.660156 L 33.824219 -17.410156 C 33.699219 -17.910156 33.867188 -18.40625 34.15625 -18.78125 Z M 14.253906 -27.589844 L 14.5 -27.675781 L 15 -27.464844 C 15.125 -27.257812 15.082031 -27.132812 14.875 -27.007812 L 14.667969 -27.007812 L 14.335938 -27.507812 Z M 26.09375 -2.410156 C 26.21875 -2.285156 26.261719 -2.160156 26.21875 -2.035156 L 25.679688 -1.953125 C 25.554688 -2.160156 25.679688 -2.285156 26.011719 -2.410156 Z M 26.09375 -2.410156 "/></g></g></g><g fill="#ffffff" fill-opacity="0.4"><g transform="translate(62.800931, 97.736159)"><g/></g></g><g fill="#ffffff" fill-opacity="0.4"><g transform="translate(87.728451, 97.736159)"><g/></g></g><g fill="#ffffff" fill-opacity="0.4"><g transform="translate(112.655972, 97.736159)"><g/></g></g><g fill="#ffffff" fill-opacity="1"><g transform="translate(60.964338, 95.899566)"><g/></g></g><g fill="#ffffff" fill-opacity="1"><g transform="translate(85.891858, 95.899566)"><g/></g></g><g fill="#ffffff" fill-opacity="1"><g transform="translate(110.819379, 95.899566)"><g/></g></g><g fill="#ffffff" fill-opacity="0.4"><g transform="translate(137.574069, 97.736159)"><g><path d="M 31.582031 -2.121094 C 31.953125 -2.121094 32.039062 -2.242188 32.078125 -2.742188 C 32.121094 -3.78125 31.789062 -4.320312 31.082031 -4.363281 C 30.207031 -4.363281 30 -4.238281 29.960938 -3.40625 C 28.296875 -3.367188 25.886719 -3.28125 23.101562 -3.242188 C 23.269531 -7.5625 23.394531 -12.050781 23.519531 -16.039062 C 28.835938 -16.164062 33.617188 -16.121094 34.988281 -16.121094 C 35.320312 -16.082031 35.484375 -16.289062 35.484375 -16.746094 C 35.527344 -17.785156 35.195312 -18.324219 34.488281 -18.324219 C 33.65625 -18.367188 33.410156 -18.242188 33.367188 -17.367188 C 31.703125 -17.328125 27.882812 -17.246094 23.558594 -17.203125 C 23.683594 -21.980469 23.769531 -25.722656 23.769531 -26.59375 C 23.769531 -27.632812 23.601562 -28.339844 22.894531 -28.546875 C 21.441406 -28.921875 19.613281 -28.835938 17.992188 -28.546875 C 17.328125 -28.421875 16.996094 -27.839844 17.035156 -27.050781 L 17.285156 -17.160156 C 12.964844 -17.160156 8.851562 -17.121094 6.359375 -17.246094 C 5.984375 -17.246094 5.734375 -17.035156 5.691406 -16.578125 C 5.691406 -15.207031 5.984375 -14.960938 6.773438 -14.960938 C 7.4375 -14.960938 7.851562 -15.082031 7.851562 -15.789062 L 17.328125 -15.957031 L 17.660156 -3.199219 C 15.207031 -3.199219 12.964844 -3.242188 10.886719 -3.324219 C 10.511719 -3.324219 10.261719 -3.117188 10.222656 -2.660156 C 10.179688 -1.289062 10.472656 -1.082031 11.261719 -1.039062 C 11.925781 -1.039062 12.382812 -1.164062 12.382812 -1.871094 C 15.789062 -1.871094 28.589844 -2.121094 31.582031 -2.121094 Z M 21.898438 -26.636719 C 22.355469 -23.933594 22.480469 -20.777344 22.105469 -17.910156 L 21.773438 -18.160156 C 21.730469 -20.816406 21.609375 -23.394531 21.484375 -26.054688 L 21.816406 -26.925781 Z M 31.414062 -3.65625 L 30.582031 -3.492188 L 30.417969 -3.78125 C 30.707031 -4.070312 31.082031 -4.070312 31.414062 -3.949219 Z M 34.820312 -17.660156 L 33.988281 -17.492188 L 33.867188 -17.742188 C 34.113281 -17.992188 34.449219 -18.074219 34.820312 -17.949219 Z M 34.820312 -17.660156 "/></g></g></g><g fill="#ffffff" fill-opacity="0.4"><g transform="translate(179.119943, 97.736159)"><g><path d="M 11.261719 0.332031 C 11.34375 1.039062 11.757812 1.414062 12.507812 1.453125 C 13.128906 1.496094 13.960938 1.453125 14.585938 1.414062 C 15.582031 1.289062 16.082031 1.246094 16.371094 0.746094 L 28.671875 0.457031 C 29.710938 0.457031 29.960938 0 30.417969 -0.789062 C 30.75 -1.453125 31.414062 -5.320312 31.621094 -7.3125 C 31.746094 -8.269531 31.289062 -8.433594 30.292969 -8.433594 C 28.089844 -8.433594 13.378906 -8.0625 11.925781 -8.0625 C 11.261719 -8.019531 10.71875 -7.644531 10.761719 -6.980469 Z M 6.730469 -11.175781 C 7.355469 -12.050781 7.4375 -12.339844 6.480469 -12.796875 C 5.902344 -13.089844 5.445312 -12.964844 5.070312 -12.339844 C 4.777344 -11.84375 4.738281 -11.675781 5.234375 -11.386719 C 6.605469 -10.429688 7.9375 -9.597656 9.265625 -8.808594 C 9.804688 -8.476562 10.261719 -8.519531 11.09375 -9.015625 C 14.585938 -10.96875 17.328125 -12.632812 20.609375 -14.917969 C 24.933594 -12.671875 27.882812 -11.511719 32.203125 -9.722656 C 33.074219 -9.347656 33.53125 -9.472656 33.988281 -9.929688 C 35.113281 -11.054688 36.066406 -12.132812 37.105469 -13.296875 C 37.5625 -13.753906 37.355469 -13.878906 36.980469 -14.253906 C 36.484375 -14.792969 35.984375 -14.835938 35.484375 -14.378906 C 34.695312 -13.753906 34.90625 -13.503906 35.734375 -12.796875 L 34.820312 -11.84375 C 31.207031 -13.878906 27.839844 -16.082031 24.683594 -18.117188 C 24.765625 -18.367188 24.515625 -18.65625 23.976562 -18.949219 C 22.480469 -19.65625 20.902344 -20.277344 19.28125 -20.816406 C 18.324219 -21.109375 18.242188 -20.902344 17.703125 -20.277344 C 14.917969 -17.285156 10.886719 -13.546875 7.4375 -10.886719 Z M 34.53125 -25.761719 C 34.820312 -25.804688 34.90625 -25.847656 34.945312 -26.304688 C 34.988281 -27.175781 34.738281 -27.589844 34.113281 -27.589844 C 33.324219 -27.632812 33.160156 -27.464844 33.160156 -26.84375 C 31.457031 -26.71875 29.835938 -26.761719 27.964844 -26.761719 L 28.671875 -28.503906 C 29.003906 -29.335938 28.878906 -29.628906 28.007812 -29.75 C 26.46875 -29.917969 25.679688 -30 24.308594 -30.042969 C 23.476562 -30.085938 23.476562 -29.792969 23.269531 -29.003906 C 22.398438 -25.347656 22.230469 -24.351562 21.441406 -21.359375 L 20.777344 -21.523438 C 21.066406 -22.480469 21.066406 -22.6875 20.277344 -22.980469 C 19.738281 -23.144531 19.40625 -22.894531 19.28125 -22.273438 C 19.15625 -21.773438 19.15625 -21.566406 19.613281 -21.398438 C 20.902344 -20.777344 22.105469 -20.195312 23.394531 -19.65625 C 23.933594 -19.445312 24.390625 -19.488281 24.847656 -20.277344 C 25.96875 -22.273438 26.675781 -23.519531 27.550781 -25.722656 C 30.207031 -25.722656 33.074219 -25.722656 34.53125 -25.761719 Z M 20.402344 -25.679688 C 20.734375 -25.679688 20.816406 -25.722656 20.816406 -26.179688 C 20.859375 -27.050781 20.570312 -27.464844 19.988281 -27.464844 C 19.28125 -27.507812 19.074219 -27.339844 19.03125 -26.71875 C 17.328125 -26.675781 15.707031 -26.636719 13.835938 -26.636719 C 14.128906 -27.175781 14.292969 -27.757812 14.585938 -28.378906 C 14.917969 -29.210938 14.75 -29.503906 13.878906 -29.628906 C 12.382812 -29.835938 11.636719 -29.835938 10.179688 -29.960938 C 9.347656 -29.960938 9.347656 -29.667969 9.183594 -28.878906 C 8.644531 -26.636719 8.3125 -24.933594 7.5625 -21.980469 L 6.9375 -22.148438 C 7.230469 -23.101562 7.1875 -23.3125 6.398438 -23.601562 C 5.902344 -23.769531 5.566406 -23.519531 5.402344 -22.894531 C 5.277344 -22.398438 5.277344 -22.1875 5.734375 -22.023438 C 7.023438 -21.398438 8.226562 -20.816406 9.515625 -20.277344 C 10.054688 -20.070312 10.511719 -20.113281 10.96875 -20.902344 C 11.925781 -22.6875 12.632812 -24.058594 13.339844 -25.597656 C 15.996094 -25.597656 18.949219 -25.636719 20.402344 -25.679688 Z M 17.910156 -6.855469 C 17.910156 -7.023438 25.179688 -7.1875 25.179688 -6.9375 C 25.304688 -3.53125 25.347656 -3.117188 25.222656 -0.625 C 22.398438 -0.5 19.238281 -0.5 16.703125 -0.457031 C 17.367188 -2.785156 17.578125 -5.484375 17.910156 -6.855469 Z M 15.25 -24.890625 C 14.75 -25.097656 14.460938 -25.390625 14.085938 -24.765625 C 13.628906 -24.058594 13.546875 -23.726562 13.089844 -23.0625 C 12.589844 -22.273438 12.671875 -22.023438 13.378906 -21.398438 C 14.167969 -20.609375 14.835938 -20.113281 15.625 -19.488281 C 16.039062 -19.113281 16.414062 -19.199219 16.746094 -19.695312 C 17.410156 -20.652344 17.867188 -21.523438 18.40625 -22.523438 C 18.617188 -22.855469 18.53125 -23.351562 18.242188 -23.519531 C 17.285156 -24.015625 16.121094 -24.515625 15.25 -24.890625 Z M 29.917969 -24.933594 C 29.378906 -25.222656 29.085938 -25.429688 28.753906 -24.808594 C 28.296875 -24.140625 28.214844 -23.769531 27.757812 -23.144531 C 27.257812 -22.3125 27.339844 -22.066406 28.007812 -21.441406 C 28.835938 -20.652344 29.503906 -20.195312 30.292969 -19.570312 C 30.75 -19.199219 31.125 -19.28125 31.414062 -19.738281 C 32.078125 -20.691406 32.453125 -21.609375 33.074219 -22.605469 C 33.242188 -22.894531 33.160156 -23.4375 32.867188 -23.601562 C 31.996094 -24.101562 30.789062 -24.558594 29.917969 -24.933594 Z M 24.683594 -10.429688 C 24.933594 -10.429688 25.054688 -10.597656 25.054688 -10.96875 C 25.054688 -11.84375 24.808594 -12.300781 24.351562 -12.339844 C 23.726562 -12.339844 23.558594 -12.214844 23.519531 -11.511719 C 20.691406 -11.386719 20.859375 -11.261719 16.332031 -11.386719 C 16.082031 -11.386719 15.914062 -11.21875 15.875 -10.84375 C 15.875 -9.683594 16.039062 -9.472656 16.664062 -9.433594 C 17.121094 -9.433594 17.410156 -9.515625 17.453125 -10.140625 C 19.945312 -10.261719 22.5625 -10.554688 24.683594 -10.429688 Z M 19.613281 -19.695312 L 19.445312 -19.15625 C 18.324219 -17.785156 17.078125 -16.496094 15.664062 -15.207031 C 15.5 -15.539062 15.789062 -15.75 15.996094 -16.039062 C 17.160156 -17.367188 18.199219 -18.449219 19.199219 -19.738281 L 19.570312 -19.820312 Z M 13.878906 -28.835938 L 13.835938 -28.339844 C 13.171875 -26.84375 12.382812 -25.390625 11.550781 -24.015625 C 11.34375 -24.308594 11.425781 -24.640625 11.636719 -24.847656 C 12.300781 -26.136719 12.882812 -27.425781 13.503906 -28.796875 L 13.796875 -28.921875 Z M 27.964844 -28.960938 L 27.964844 -28.421875 C 27.257812 -26.96875 26.511719 -25.511719 25.636719 -24.140625 C 25.472656 -24.433594 25.554688 -24.765625 25.761719 -24.972656 C 26.386719 -26.179688 27.007812 -27.464844 27.632812 -28.921875 L 27.921875 -29.046875 Z M 12.550781 -6.773438 L 12.839844 -5.027344 L 12.796875 -2.535156 L 12.550781 -2.492188 L 12.257812 -6.730469 Z M 29.171875 -24.433594 C 29.667969 -24.308594 30.207031 -24.140625 30.582031 -23.683594 L 30.457031 -23.558594 C 29.960938 -23.851562 29.628906 -23.933594 29.128906 -24.140625 L 29.085938 -24.390625 Z M 14.5 -24.351562 C 15.082031 -24.265625 15.582031 -24.015625 15.957031 -23.644531 L 15.789062 -23.519531 C 15.332031 -23.808594 15 -23.894531 14.5 -24.101562 L 14.417969 -24.351562 Z M 15.292969 -15.582031 L 15.082031 -15.082031 L 14.835938 -15.042969 C 14.625 -15.167969 14.542969 -15.292969 14.625 -15.417969 L 15.082031 -15.707031 L 15.332031 -15.707031 Z M 11.300781 -23.476562 L 11.21875 -22.894531 L 11.011719 -22.8125 C 10.84375 -22.8125 10.636719 -22.980469 10.761719 -23.144531 L 11.09375 -23.558594 L 11.300781 -23.601562 Z M 25.429688 -23.601562 L 25.304688 -23.019531 L 25.140625 -22.9375 C 24.972656 -22.9375 24.808594 -23.101562 24.847656 -23.269531 L 25.222656 -23.683594 L 25.429688 -23.726562 Z M 20.484375 -26.761719 L 19.738281 -26.59375 L 19.613281 -26.84375 C 19.863281 -27.050781 20.152344 -27.09375 20.527344 -27.007812 Z M 34.613281 -26.882812 L 33.824219 -26.71875 L 33.742188 -26.96875 C 33.949219 -27.175781 34.324219 -27.21875 34.613281 -27.09375 Z M 24.558594 -11.386719 L 23.976562 -11.21875 L 23.851562 -11.46875 C 24.058594 -11.675781 24.308594 -11.757812 24.597656 -11.636719 Z M 12.796875 -1.453125 L 12.796875 -0.746094 L 12.589844 -0.5 C 12.464844 -0.871094 12.589844 -1.289062 12.714844 -1.578125 Z M 30.707031 -23.4375 L 30.875 -23.519531 L 31.246094 -23.4375 C 31.371094 -23.351562 31.371094 -23.226562 31.246094 -23.101562 L 31.082031 -23.0625 Z M 16.082031 -23.351562 L 16.207031 -23.4375 L 16.578125 -23.351562 C 16.703125 -23.269531 16.703125 -23.144531 16.578125 -23.019531 L 16.414062 -22.980469 L 16.121094 -23.3125 Z M 16.082031 -23.351562 "/></g></g></g><g fill="#ffffff" fill-opacity="1"><g transform="translate(135.737476, 95.899566)"><g><path d="M 31.582031 -2.121094 C 31.953125 -2.121094 32.039062 -2.242188 32.078125 -2.742188 C 32.121094 -3.78125 31.789062 -4.320312 31.082031 -4.363281 C 30.207031 -4.363281 30 -4.238281 29.960938 -3.40625 C 28.296875 -3.367188 25.886719 -3.28125 23.101562 -3.242188 C 23.269531 -7.5625 23.394531 -12.050781 23.519531 -16.039062 C 28.835938 -16.164062 33.617188 -16.121094 34.988281 -16.121094 C 35.320312 -16.082031 35.484375 -16.289062 35.484375 -16.746094 C 35.527344 -17.785156 35.195312 -18.324219 34.488281 -18.324219 C 33.65625 -18.367188 33.410156 -18.242188 33.367188 -17.367188 C 31.703125 -17.328125 27.882812 -17.246094 23.558594 -17.203125 C 23.683594 -21.980469 23.769531 -25.722656 23.769531 -26.59375 C 23.769531 -27.632812 23.601562 -28.339844 22.894531 -28.546875 C 21.441406 -28.921875 19.613281 -28.835938 17.992188 -28.546875 C 17.328125 -28.421875 16.996094 -27.839844 17.035156 -27.050781 L 17.285156 -17.160156 C 12.964844 -17.160156 8.851562 -17.121094 6.359375 -17.246094 C 5.984375 -17.246094 5.734375 -17.035156 5.691406 -16.578125 C 5.691406 -15.207031 5.984375 -14.960938 6.773438 -14.960938 C 7.4375 -14.960938 7.851562 -15.082031 7.851562 -15.789062 L 17.328125 -15.957031 L 17.660156 -3.199219 C 15.207031 -3.199219 12.964844 -3.242188 10.886719 -3.324219 C 10.511719 -3.324219 10.261719 -3.117188 10.222656 -2.660156 C 10.179688 -1.289062 10.472656 -1.082031 11.261719 -1.039062 C 11.925781 -1.039062 12.382812 -1.164062 12.382812 -1.871094 C 15.789062 -1.871094 28.589844 -2.121094 31.582031 -2.121094 Z M 21.898438 -26.636719 C 22.355469 -23.933594 22.480469 -20.777344 22.105469 -17.910156 L 21.773438 -18.160156 C 21.730469 -20.816406 21.609375 -23.394531 21.484375 -26.054688 L 21.816406 -26.925781 Z M 31.414062 -3.65625 L 30.582031 -3.492188 L 30.417969 -3.78125 C 30.707031 -4.070312 31.082031 -4.070312 31.414062 -3.949219 Z M 34.820312 -17.660156 L 33.988281 -17.492188 L 33.867188 -17.742188 C 34.113281 -17.992188 34.449219 -18.074219 34.820312 -17.949219 Z M 34.820312 -17.660156 "/></g></g></g><g fill="#ffffff" fill-opacity="1"><g transform="translate(177.283351, 95.899566)"><g><path d="M 11.261719 0.332031 C 11.34375 1.039062 11.757812 1.414062 12.507812 1.453125 C 13.128906 1.496094 13.960938 1.453125 14.585938 1.414062 C 15.582031 1.289062 16.082031 1.246094 16.371094 0.746094 L 28.671875 0.457031 C 29.710938 0.457031 29.960938 0 30.417969 -0.789062 C 30.75 -1.453125 31.414062 -5.320312 31.621094 -7.3125 C 31.746094 -8.269531 31.289062 -8.433594 30.292969 -8.433594 C 28.089844 -8.433594 13.378906 -8.0625 11.925781 -8.0625 C 11.261719 -8.019531 10.71875 -7.644531 10.761719 -6.980469 Z M 6.730469 -11.175781 C 7.355469 -12.050781 7.4375 -12.339844 6.480469 -12.796875 C 5.902344 -13.089844 5.445312 -12.964844 5.070312 -12.339844 C 4.777344 -11.84375 4.738281 -11.675781 5.234375 -11.386719 C 6.605469 -10.429688 7.9375 -9.597656 9.265625 -8.808594 C 9.804688 -8.476562 10.261719 -8.519531 11.09375 -9.015625 C 14.585938 -10.96875 17.328125 -12.632812 20.609375 -14.917969 C 24.933594 -12.671875 27.882812 -11.511719 32.203125 -9.722656 C 33.074219 -9.347656 33.53125 -9.472656 33.988281 -9.929688 C 35.113281 -11.054688 36.066406 -12.132812 37.105469 -13.296875 C 37.5625 -13.753906 37.355469 -13.878906 36.980469 -14.253906 C 36.484375 -14.792969 35.984375 -14.835938 35.484375 -14.378906 C 34.695312 -13.753906 34.90625 -13.503906 35.734375 -12.796875 L 34.820312 -11.84375 C 31.207031 -13.878906 27.839844 -16.082031 24.683594 -18.117188 C 24.765625 -18.367188 24.515625 -18.65625 23.976562 -18.949219 C 22.480469 -19.65625 20.902344 -20.277344 19.28125 -20.816406 C 18.324219 -21.109375 18.242188 -20.902344 17.703125 -20.277344 C 14.917969 -17.285156 10.886719 -13.546875 7.4375 -10.886719 Z M 34.53125 -25.761719 C 34.820312 -25.804688 34.90625 -25.847656 34.945312 -26.304688 C 34.988281 -27.175781 34.738281 -27.589844 34.113281 -27.589844 C 33.324219 -27.632812 33.160156 -27.464844 33.160156 -26.84375 C 31.457031 -26.71875 29.835938 -26.761719 27.964844 -26.761719 L 28.671875 -28.503906 C 29.003906 -29.335938 28.878906 -29.628906 28.007812 -29.75 C 26.46875 -29.917969 25.679688 -30 24.308594 -30.042969 C 23.476562 -30.085938 23.476562 -29.792969 23.269531 -29.003906 C 22.398438 -25.347656 22.230469 -24.351562 21.441406 -21.359375 L 20.777344 -21.523438 C 21.066406 -22.480469 21.066406 -22.6875 20.277344 -22.980469 C 19.738281 -23.144531 19.40625 -22.894531 19.28125 -22.273438 C 19.15625 -21.773438 19.15625 -21.566406 19.613281 -21.398438 C 20.902344 -20.777344 22.105469 -20.195312 23.394531 -19.65625 C 23.933594 -19.445312 24.390625 -19.488281 24.847656 -20.277344 C 25.96875 -22.273438 26.675781 -23.519531 27.550781 -25.722656 C 30.207031 -25.722656 33.074219 -25.722656 34.53125 -25.761719 Z M 20.402344 -25.679688 C 20.734375 -25.679688 20.816406 -25.722656 20.816406 -26.179688 C 20.859375 -27.050781 20.570312 -27.464844 19.988281 -27.464844 C 19.28125 -27.507812 19.074219 -27.339844 19.03125 -26.71875 C 17.328125 -26.675781 15.707031 -26.636719 13.835938 -26.636719 C 14.128906 -27.175781 14.292969 -27.757812 14.585938 -28.378906 C 14.917969 -29.210938 14.75 -29.503906 13.878906 -29.628906 C 12.382812 -29.835938 11.636719 -29.835938 10.179688 -29.960938 C 9.347656 -29.960938 9.347656 -29.667969 9.183594 -28.878906 C 8.644531 -26.636719 8.3125 -24.933594 7.5625 -21.980469 L 6.9375 -22.148438 C 7.230469 -23.101562 7.1875 -23.3125 6.398438 -23.601562 C 5.902344 -23.769531 5.566406 -23.519531 5.402344 -22.894531 C 5.277344 -22.398438 5.277344 -22.1875 5.734375 -22.023438 C 7.023438 -21.398438 8.226562 -20.816406 9.515625 -20.277344 C 10.054688 -20.070312 10.511719 -20.113281 10.96875 -20.902344 C 11.925781 -22.6875 12.632812 -24.058594 13.339844 -25.597656 C 15.996094 -25.597656 18.949219 -25.636719 20.402344 -25.679688 Z M 17.910156 -6.855469 C 17.910156 -7.023438 25.179688 -7.1875 25.179688 -6.9375 C 25.304688 -3.53125 25.347656 -3.117188 25.222656 -0.625 C 22.398438 -0.5 19.238281 -0.5 16.703125 -0.457031 C 17.367188 -2.785156 17.578125 -5.484375 17.910156 -6.855469 Z M 15.25 -24.890625 C 14.75 -25.097656 14.460938 -25.390625 14.085938 -24.765625 C 13.628906 -24.058594 13.546875 -23.726562 13.089844 -23.0625 C 12.589844 -22.273438 12.671875 -22.023438 13.378906 -21.398438 C 14.167969 -20.609375 14.835938 -20.113281 15.625 -19.488281 C 16.039062 -19.113281 16.414062 -19.199219 16.746094 -19.695312 C 17.410156 -20.652344 17.867188 -21.523438 18.40625 -22.523438 C 18.617188 -22.855469 18.53125 -23.351562 18.242188 -23.519531 C 17.285156 -24.015625 16.121094 -24.515625 15.25 -24.890625 Z M 29.917969 -24.933594 C 29.378906 -25.222656 29.085938 -25.429688 28.753906 -24.808594 C 28.296875 -24.140625 28.214844 -23.769531 27.757812 -23.144531 C 27.257812 -22.3125 27.339844 -22.066406 28.007812 -21.441406 C 28.835938 -20.652344 29.503906 -20.195312 30.292969 -19.570312 C 30.75 -19.199219 31.125 -19.28125 31.414062 -19.738281 C 32.078125 -20.691406 32.453125 -21.609375 33.074219 -22.605469 C 33.242188 -22.894531 33.160156 -23.4375 32.867188 -23.601562 C 31.996094 -24.101562 30.789062 -24.558594 29.917969 -24.933594 Z M 24.683594 -10.429688 C 24.933594 -10.429688 25.054688 -10.597656 25.054688 -10.96875 C 25.054688 -11.84375 24.808594 -12.300781 24.351562 -12.339844 C 23.726562 -12.339844 23.558594 -12.214844 23.519531 -11.511719 C 20.691406 -11.386719 20.859375 -11.261719 16.332031 -11.386719 C 16.082031 -11.386719 15.914062 -11.21875 15.875 -10.84375 C 15.875 -9.683594 16.039062 -9.472656 16.664062 -9.433594 C 17.121094 -9.433594 17.410156 -9.515625 17.453125 -10.140625 C 19.945312 -10.261719 22.5625 -10.554688 24.683594 -10.429688 Z M 19.613281 -19.695312 L 19.445312 -19.15625 C 18.324219 -17.785156 17.078125 -16.496094 15.664062 -15.207031 C 15.5 -15.539062 15.789062 -15.75 15.996094 -16.039062 C 17.160156 -17.367188 18.199219 -18.449219 19.199219 -19.738281 L 19.570312 -19.820312 Z M 13.878906 -28.835938 L 13.835938 -28.339844 C 13.171875 -26.84375 12.382812 -25.390625 11.550781 -24.015625 C 11.34375 -24.308594 11.425781 -24.640625 11.636719 -24.847656 C 12.300781 -26.136719 12.882812 -27.425781 13.503906 -28.796875 L 13.796875 -28.921875 Z M 27.964844 -28.960938 L 27.964844 -28.421875 C 27.257812 -26.96875 26.511719 -25.511719 25.636719 -24.140625 C 25.472656 -24.433594 25.554688 -24.765625 25.761719 -24.972656 C 26.386719 -26.179688 27.007812 -27.464844 27.632812 -28.921875 L 27.921875 -29.046875 Z M 12.550781 -6.773438 L 12.839844 -5.027344 L 12.796875 -2.535156 L 12.550781 -2.492188 L 12.257812 -6.730469 Z M 29.171875 -24.433594 C 29.667969 -24.308594 30.207031 -24.140625 30.582031 -23.683594 L 30.457031 -23.558594 C 29.960938 -23.851562 29.628906 -23.933594 29.128906 -24.140625 L 29.085938 -24.390625 Z M 14.5 -24.351562 C 15.082031 -24.265625 15.582031 -24.015625 15.957031 -23.644531 L 15.789062 -23.519531 C 15.332031 -23.808594 15 -23.894531 14.5 -24.101562 L 14.417969 -24.351562 Z M 15.292969 -15.582031 L 15.082031 -15.082031 L 14.835938 -15.042969 C 14.625 -15.167969 14.542969 -15.292969 14.625 -15.417969 L 15.082031 -15.707031 L 15.332031 -15.707031 Z M 11.300781 -23.476562 L 11.21875 -22.894531 L 11.011719 -22.8125 C 10.84375 -22.8125 10.636719 -22.980469 10.761719 -23.144531 L 11.09375 -23.558594 L 11.300781 -23.601562 Z M 25.429688 -23.601562 L 25.304688 -23.019531 L 25.140625 -22.9375 C 24.972656 -22.9375 24.808594 -23.101562 24.847656 -23.269531 L 25.222656 -23.683594 L 25.429688 -23.726562 Z M 20.484375 -26.761719 L 19.738281 -26.59375 L 19.613281 -26.84375 C 19.863281 -27.050781 20.152344 -27.09375 20.527344 -27.007812 Z M 34.613281 -26.882812 L 33.824219 -26.71875 L 33.742188 -26.96875 C 33.949219 -27.175781 34.324219 -27.21875 34.613281 -27.09375 Z M 24.558594 -11.386719 L 23.976562 -11.21875 L 23.851562 -11.46875 C 24.058594 -11.675781 24.308594 -11.757812 24.597656 -11.636719 Z M 12.796875 -1.453125 L 12.796875 -0.746094 L 12.589844 -0.5 C 12.464844 -0.871094 12.589844 -1.289062 12.714844 -1.578125 Z M 30.707031 -23.4375 L 30.875 -23.519531 L 31.246094 -23.4375 C 31.371094 -23.351562 31.371094 -23.226562 31.246094 -23.101562 L 31.082031 -23.0625 Z M 16.082031 -23.351562 L 16.207031 -23.4375 L 16.578125 -23.351562 C 16.703125 -23.269531 16.703125 -23.144531 16.578125 -23.019531 L 16.414062 -22.980469 L 16.121094 -23.3125 Z M 16.082031 -23.351562 "/></g></g></g></svg>