<svg xmlns="http://www.w3.org/2000/svg" xmlns:xlink="http://www.w3.org/1999/xlink" width="800" zoomAndPan="magnify" viewBox="0 0 600 449.999984" height="600" preserveAspectRatio="xMidYMid meet" version="1.0"><defs><g/><clipPath id="b52b25f8ba"><path d="M 266 155.273438 L 329 155.273438 L 329 210 L 266 210 Z M 266 155.273438 " clip-rule="nonzero"/></clipPath><clipPath id="b350f5ccde"><path d="M 151.253906 216 L 210 216 L 210 231 L 151.253906 231 Z M 151.253906 216 " clip-rule="nonzero"/></clipPath><clipPath id="f96d53801b"><path d="M 162 155.273438 L 330.503906 155.273438 L 330.503906 325 L 162 325 Z M 162 155.273438 " clip-rule="nonzero"/></clipPath><clipPath id="75a67fd831"><path d="M 193 296 L 223 296 L 223 335.273438 L 193 335.273438 Z M 193 296 " clip-rule="nonzero"/></clipPath></defs><rect x="-60" width="720" fill="#ffffff" y="-44.999998" height="539.99998" fill-opacity="1"/><rect x="-60" width="720" fill="#ffffff" y="-44.999998" height="539.99998" fill-opacity="1"/><rect x="-60" width="720" fill="#ffffff" y="-44.999998" height="539.99998" fill-opacity="1"/><path fill="#14385a" d="M 311.460938 221.628906 C 311.859375 222.023438 312.203125 222.445312 312.496094 222.890625 C 312.789062 223.335938 313.003906 223.769531 313.144531 224.191406 C 313.289062 224.613281 313.34375 224.992188 313.308594 225.328125 C 313.277344 225.664062 313.164062 225.933594 312.964844 226.132812 C 312.765625 226.332031 312.496094 226.445312 312.160156 226.476562 C 311.824219 226.507812 311.441406 226.453125 311.019531 226.3125 C 310.597656 226.171875 310.164062 225.957031 309.71875 225.664062 C 309.273438 225.375 308.851562 225.027344 308.453125 224.628906 C 308.054688 224.230469 307.710938 223.8125 307.417969 223.367188 C 307.125 222.921875 306.910156 222.488281 306.765625 222.066406 C 306.625 221.644531 306.570312 221.265625 306.601562 220.929688 C 306.636719 220.59375 306.75 220.324219 306.949219 220.125 C 307.148438 219.925781 307.417969 219.8125 307.753906 219.78125 C 308.089844 219.746094 308.46875 219.800781 308.894531 219.941406 C 309.316406 220.085938 309.75 220.300781 310.195312 220.59375 C 310.640625 220.882812 311.0625 221.230469 311.460938 221.628906 Z M 311.460938 221.628906 " fill-opacity="1" fill-rule="nonzero"/><path fill="#14385a" d="M 259.503906 203.894531 C 259.902344 204.292969 260.25 204.714844 260.539062 205.15625 C 260.832031 205.601562 261.050781 206.035156 261.191406 206.457031 C 261.332031 206.878906 261.386719 207.257812 261.355469 207.59375 C 261.324219 207.933594 261.207031 208.199219 261.007812 208.398438 C 260.808594 208.597656 260.539062 208.714844 260.203125 208.746094 C 259.867188 208.777344 259.488281 208.722656 259.0625 208.582031 C 258.640625 208.441406 258.207031 208.222656 257.761719 207.933594 C 257.316406 207.640625 256.894531 207.296875 256.496094 206.898438 C 256.097656 206.5 255.753906 206.078125 255.460938 205.632812 C 255.167969 205.1875 254.953125 204.757812 254.8125 204.332031 C 254.671875 203.910156 254.617188 203.53125 254.648438 203.195312 C 254.679688 202.859375 254.792969 202.589844 254.992188 202.390625 C 255.191406 202.191406 255.460938 202.078125 255.796875 202.046875 C 256.132812 202.015625 256.515625 202.070312 256.9375 202.210938 C 257.359375 202.351562 257.792969 202.566406 258.238281 202.859375 C 258.683594 203.152344 259.105469 203.496094 259.503906 203.894531 Z M 259.503906 203.894531 " fill-opacity="1" fill-rule="nonzero"/><path fill="#14385a" d="M 214.300781 274.949219 L 195.269531 274.632812 L 189.316406 280.789062 L 195.90625 287.054688 L 205.582031 286.523438 Z M 214.300781 274.949219 " fill-opacity="1" fill-rule="nonzero"/><path fill="#f6be5b" d="M 312.644531 263.90625 L 308.816406 259.34375 L 310.410156 253.714844 L 304.988281 255.839844 L 300.097656 252.652344 L 300.417969 258.492188 L 296.378906 261.785156 L 295.847656 262.101562 L 297.546875 262.527344 L 301.585938 263.589844 L 302.4375 265.820312 L 304.671875 267.410156 L 306.691406 264.121094 Z M 312.644531 263.90625 " fill-opacity="1" fill-rule="nonzero"/><path fill="#f6be5b" d="M 216.003906 223.878906 L 210.578125 221.4375 L 209.730469 216.128906 L 209.089844 216.234375 L 205.582031 219.949219 L 199.734375 219.101562 L 202.605469 224.195312 L 200.054688 229.507812 L 205.796875 228.339844 L 208.242188 230.675781 L 210.15625 230.992188 L 210.6875 226.640625 Z M 216.003906 223.878906 " fill-opacity="1" fill-rule="nonzero"/><g clip-path="url(#b52b25f8ba)"><path fill="#2b597f" d="M 328.484375 155.394531 C 328.484375 155.394531 325.082031 154.863281 319.234375 156.03125 C 313.386719 157.199219 309.027344 162.71875 302.332031 168.453125 C 296.800781 173.125 274.371094 199.988281 266.503906 209.652344 L 268.628906 209.4375 C 296.269531 177.691406 321.363281 155.179688 328.484375 155.394531 Z M 328.484375 155.394531 " fill-opacity="1" fill-rule="nonzero"/></g><path fill="#2b597f" d="M 212.066406 294.378906 C 211.855469 294.167969 211.644531 293.957031 211.535156 293.636719 C 209.515625 288.328125 222.914062 266.136719 244.175781 238.851562 L 243.324219 238.425781 L 214.300781 274.949219 L 205.6875 286.523438 L 207.921875 286.417969 L 200.691406 296.929688 L 199.308594 296.714844 L 197.820312 299.902344 L 197.929688 302.238281 L 199.097656 302.238281 C 199.097656 302.238281 202.289062 300.644531 205.902344 298.945312 C 209.304688 297.355469 213.023438 295.546875 214.9375 294.699219 C 213.664062 295.019531 212.601562 294.910156 212.066406 294.378906 Z M 212.066406 294.378906 " fill-opacity="1" fill-rule="nonzero"/><path fill="#2b597f" d="M 257.890625 229.929688 C 257.148438 230.992188 256.722656 232.054688 256.507812 233.222656 C 255.976562 235.453125 256.402344 237.46875 257.785156 238.425781 C 258.742188 239.0625 260.125 239.0625 261.398438 238.636719 C 262.886719 238.105469 264.375 236.832031 265.4375 235.132812 C 266.183594 234.070312 266.609375 232.902344 266.925781 231.734375 C 267.351562 229.613281 266.925781 227.699219 265.546875 226.746094 C 264.484375 226.003906 263.101562 226.109375 261.71875 226.640625 C 260.441406 227.0625 259.058594 228.230469 257.890625 229.929688 Z M 260.972656 227.59375 C 261.824219 227.277344 262.675781 227.277344 263.207031 227.699219 C 264.484375 228.550781 264.484375 230.886719 263.101562 232.902344 C 261.71875 234.921875 259.59375 235.875 258.316406 234.921875 C 257.464844 234.390625 257.148438 233.117188 257.464844 231.84375 C 257.570312 231.097656 257.890625 230.460938 258.316406 229.71875 C 259.167969 228.761719 260.015625 228.019531 260.972656 227.59375 Z M 260.972656 227.59375 " fill-opacity="1" fill-rule="nonzero"/><path fill="#2b597f" d="M 276.175781 240.867188 C 277.347656 239.167969 277.773438 237.257812 277.558594 235.769531 C 277.453125 235.132812 277.242188 234.496094 276.921875 234.070312 C 276.707031 233.753906 276.496094 233.539062 276.175781 233.328125 C 274.261719 232.054688 271.179688 233.433594 269.265625 236.300781 C 267.351562 239.167969 267.246094 242.566406 269.160156 243.839844 C 269.371094 243.945312 269.691406 244.160156 269.90625 244.160156 C 270.011719 244.160156 270.117188 244.160156 270.117188 244.265625 C 272.136719 244.582031 274.582031 243.308594 276.175781 240.867188 Z M 269.796875 240.867188 C 268.628906 240.125 268.628906 238 269.796875 236.195312 C 270.96875 234.390625 272.882812 233.539062 274.050781 234.390625 C 274.796875 234.921875 275.113281 235.984375 274.796875 237.152344 C 274.6875 237.789062 274.371094 238.425781 273.945312 239.0625 C 273.519531 239.699219 272.988281 240.230469 272.351562 240.65625 C 271.5 241.1875 270.542969 241.292969 269.796875 240.867188 Z M 269.796875 240.867188 " fill-opacity="1" fill-rule="nonzero"/><path fill="#7a9db6" d="M 216.320312 294.0625 C 215.789062 294.273438 215.363281 294.488281 214.9375 294.59375 C 213.023438 295.441406 209.199219 297.246094 205.902344 298.839844 L 211.113281 301.8125 L 216.851562 293.851562 C 216.640625 293.957031 216.425781 294.0625 216.320312 294.0625 Z M 216.320312 294.0625 " fill-opacity="1" fill-rule="nonzero"/><path fill="#7a9db6" d="M 222.914062 308.714844 L 225.25 302.769531 L 221.847656 297.777344 L 216.425781 305 Z M 222.914062 308.714844 " fill-opacity="1" fill-rule="nonzero"/><path fill="#7a9db6" d="M 211.644531 302.238281 L 215.683594 304.574219 L 221.105469 296.929688 L 221.316406 297.035156 L 218.660156 293 Z M 211.644531 302.238281 " fill-opacity="1" fill-rule="nonzero"/><path fill="#7a9db6" d="M 296.269531 229.1875 L 290.847656 219.949219 C 287.445312 224.195312 283.832031 228.550781 280.109375 232.902344 C 279.261719 233.859375 278.515625 234.816406 277.664062 235.769531 C 277.878906 237.257812 277.347656 239.167969 276.285156 240.867188 C 274.6875 243.308594 272.242188 244.582031 270.328125 244.265625 C 269.90625 244.6875 269.480469 245.21875 269.054688 245.644531 L 267.777344 247.554688 L 278.304688 249.785156 L 286.171875 238.957031 L 287.234375 239.488281 L 279.152344 250.105469 L 296.484375 261.785156 L 300.628906 258.492188 L 300.203125 252.652344 L 305.09375 255.945312 L 310.515625 253.714844 L 308.921875 259.34375 L 312.75 263.90625 L 306.902344 264.121094 L 304.882812 267.410156 L 308.496094 269.855469 L 310.941406 266.5625 L 312.007812 267.09375 L 309.453125 270.492188 L 312.539062 272.613281 L 313.496094 271.234375 L 314.558594 271.765625 L 313.496094 273.144531 L 316.152344 274.949219 L 320.617188 270.171875 L 301.054688 236.832031 Z M 296.269531 229.1875 " fill-opacity="1" fill-rule="nonzero"/><path fill="#7a9db6" d="M 297.546875 262.527344 L 302.4375 265.820312 L 301.585938 263.589844 Z M 297.546875 262.527344 " fill-opacity="1" fill-rule="nonzero"/><path fill="#7a9db6" d="M 188.359375 287.480469 L 188.574219 287.585938 L 183.148438 294.699219 L 187.507812 295.230469 L 193.355469 287.265625 Z M 188.359375 287.480469 " fill-opacity="1" fill-rule="nonzero"/><path fill="#7a9db6" d="M 207.921875 286.3125 L 205.582031 286.523438 L 195.90625 287.054688 L 193.675781 287.160156 L 194.527344 287.585938 L 188.574219 295.441406 L 199.203125 296.714844 L 200.585938 296.929688 Z M 207.921875 286.3125 " fill-opacity="1" fill-rule="nonzero"/><path fill="#7a9db6" d="M 176.878906 288.222656 L 169.222656 293 L 182.085938 294.59375 L 187.191406 287.585938 Z M 176.878906 288.222656 " fill-opacity="1" fill-rule="nonzero"/><g clip-path="url(#b350f5ccde)"><path fill="#7a9db6" d="M 200.054688 229.507812 L 202.605469 224.195312 L 199.734375 219.101562 L 205.582031 219.949219 L 209.089844 216.234375 L 162.207031 218.355469 L 159.015625 219.207031 L 152.105469 219.207031 L 151.253906 220.800781 L 156.039062 223.667969 L 180.28125 226.957031 L 183.894531 221.96875 L 184.851562 222.5 L 181.449219 227.0625 L 186.339844 227.699219 L 190.484375 221.96875 L 191.550781 222.5 L 187.507812 227.914062 L 208.242188 230.675781 L 205.796875 228.339844 Z M 200.054688 229.507812 " fill-opacity="1" fill-rule="nonzero"/></g><path fill="#7a9db6" d="M 249.8125 241.503906 L 256.507812 233.117188 C 256.722656 232.054688 257.253906 230.886719 257.890625 229.824219 C 258.953125 228.230469 260.441406 226.957031 261.824219 226.425781 L 276.175781 208.695312 L 267.671875 213.472656 L 264.800781 213.578125 L 262.992188 213.683594 L 258.210938 213.898438 L 247.367188 214.429688 L 209.730469 216.128906 L 210.578125 221.332031 L 215.894531 223.773438 L 210.6875 226.53125 L 210.15625 230.886719 L 234.289062 234.179688 L 238.222656 235.984375 L 246.089844 225.046875 L 247.152344 225.578125 L 238.964844 236.40625 L 243.21875 238.425781 L 244.070312 238.851562 Z M 249.8125 241.503906 " fill-opacity="1" fill-rule="nonzero"/><path fill="#7a9db6" d="M 257.570312 231.84375 C 257.253906 233.117188 257.570312 234.390625 258.421875 234.921875 C 259.699219 235.769531 261.929688 234.921875 263.207031 232.902344 C 264.484375 230.886719 264.589844 228.550781 263.3125 227.699219 C 262.675781 227.277344 261.824219 227.277344 261.082031 227.59375 C 260.125 227.914062 259.273438 228.65625 258.527344 229.71875 C 257.996094 230.460938 257.679688 231.203125 257.570312 231.84375 Z M 257.570312 231.84375 " fill-opacity="1" fill-rule="nonzero"/><path fill="#7a9db6" d="M 272.457031 240.546875 C 272.988281 240.230469 273.625 239.699219 274.050781 238.957031 C 274.476562 238.320312 274.6875 237.683594 274.902344 237.042969 C 275.113281 235.875 274.902344 234.816406 274.15625 234.285156 C 272.988281 233.539062 271.074219 234.285156 269.90625 236.089844 C 268.734375 237.894531 268.734375 240.019531 269.90625 240.761719 C 270.542969 241.292969 271.5 241.1875 272.457031 240.546875 Z M 272.457031 240.546875 " fill-opacity="1" fill-rule="nonzero"/><g clip-path="url(#f96d53801b)"><path fill="#f7f1d8" d="M 306.371094 235.558594 L 312.75 229.1875 C 314.769531 227.171875 314.769531 223.773438 312.75 221.648438 L 311.472656 220.375 C 309.453125 218.355469 306.050781 218.355469 303.925781 220.375 L 297.546875 226.746094 C 297.335938 226.957031 297.121094 227.171875 297.015625 227.382812 L 291.804688 218.570312 C 317.746094 186.398438 334.121094 159.640625 329.761719 155.820312 C 329.441406 155.5 329.015625 155.394531 328.484375 155.394531 C 321.363281 155.074219 296.378906 177.691406 268.628906 209.332031 L 266.503906 209.542969 L 262.039062 209.96875 C 263.207031 207.953125 262.992188 205.296875 261.1875 203.492188 L 259.910156 202.21875 C 257.890625 200.199219 254.488281 200.199219 252.363281 202.21875 L 247.472656 207.101562 C 246.300781 208.269531 245.878906 209.757812 245.984375 211.242188 L 162.3125 218.25 L 209.199219 216.128906 L 209.835938 216.128906 L 247.367188 214.429688 L 258.210938 213.898438 L 262.992188 213.6875 L 264.800781 213.578125 L 267.671875 213.472656 L 276.175781 208.695312 L 261.824219 226.53125 C 263.207031 226.003906 264.589844 226.003906 265.652344 226.640625 C 267.035156 227.59375 267.460938 229.507812 267.035156 231.628906 C 266.820312 232.796875 266.289062 233.964844 265.546875 235.027344 C 264.375 236.726562 262.886719 237.894531 261.503906 238.53125 C 260.125 239.0625 258.847656 239.0625 257.890625 238.320312 C 256.507812 237.363281 256.082031 235.347656 256.613281 233.117188 L 249.917969 241.503906 L 244.28125 238.851562 C 223.019531 266.136719 209.621094 288.328125 211.644531 293.636719 C 211.75 293.957031 211.960938 294.273438 212.175781 294.378906 C 212.8125 294.910156 213.769531 294.910156 215.046875 294.59375 C 215.46875 294.488281 215.894531 294.273438 216.425781 294.0625 C 216.535156 293.957031 216.746094 293.957031 216.851562 293.851562 L 211.113281 301.8125 L 195.164062 324.003906 L 211.644531 302.132812 L 218.660156 292.894531 C 228.652344 287.265625 247.789062 269.324219 269.054688 245.539062 C 269.480469 245.113281 269.90625 244.582031 270.328125 244.160156 C 270.222656 244.160156 270.117188 244.160156 270.117188 244.050781 C 269.90625 243.945312 269.585938 243.839844 269.371094 243.734375 C 267.460938 242.460938 267.566406 239.0625 269.480469 236.195312 C 271.394531 233.328125 274.476562 231.949219 276.390625 233.222656 C 276.707031 233.433594 276.921875 233.648438 277.132812 233.964844 C 277.453125 234.390625 277.664062 235.027344 277.773438 235.664062 C 278.621094 234.707031 279.367188 233.753906 280.21875 232.796875 C 283.9375 228.445312 287.554688 224.089844 290.957031 219.84375 L 296.378906 229.082031 L 300.84375 236.726562 L 320.40625 270.066406 L 321.46875 269.003906 L 302.757812 237.042969 C 304.03125 237.152344 305.308594 236.621094 306.371094 235.558594 Z M 307.007812 220.164062 C 307.859375 219.3125 309.878906 219.949219 311.582031 221.648438 C 313.28125 223.347656 313.917969 225.363281 313.070312 226.214844 C 312.21875 227.0625 310.199219 226.425781 308.496094 224.726562 C 306.796875 223.027344 306.160156 221.011719 307.007812 220.164062 Z M 260.972656 208.375 C 260.125 209.226562 258.101562 208.589844 256.402344 206.890625 C 254.703125 205.191406 254.0625 203.175781 254.914062 202.324219 C 255.765625 201.476562 257.785156 202.113281 259.484375 203.8125 C 261.1875 205.511719 261.824219 207.527344 260.972656 208.375 Z M 260.972656 208.375 " fill-opacity="1" fill-rule="nonzero"/></g><path fill="#f7f1d8" d="M 180.28125 226.957031 L 156.253906 260.296875 L 181.449219 227.0625 L 184.851562 222.5 L 183.894531 221.96875 Z M 180.28125 226.957031 " fill-opacity="1" fill-rule="nonzero"/><path fill="#f7f1d8" d="M 187.507812 227.914062 L 191.550781 222.5 L 190.484375 221.96875 L 186.339844 227.699219 L 162.949219 260.296875 Z M 187.507812 227.914062 " fill-opacity="1" fill-rule="nonzero"/><path fill="#f7f1d8" d="M 246.195312 225.152344 L 238.222656 236.089844 L 218.554688 263.484375 L 239.074219 236.40625 L 247.152344 225.683594 Z M 246.195312 225.152344 " fill-opacity="1" fill-rule="nonzero"/><path fill="#f7f1d8" d="M 286.066406 238.851562 L 278.199219 249.679688 L 258.421875 277.179688 L 279.046875 250 L 287.023438 239.378906 Z M 286.066406 238.851562 " fill-opacity="1" fill-rule="nonzero"/><path fill="#f7f1d8" d="M 311.792969 267.09375 L 310.730469 266.457031 L 308.285156 269.855469 L 283.085938 304.890625 L 309.136719 270.382812 Z M 311.792969 267.09375 " fill-opacity="1" fill-rule="nonzero"/><path fill="#f7f1d8" d="M 312.21875 272.507812 L 285.640625 309.457031 L 313.175781 273.144531 L 314.238281 271.660156 L 313.28125 271.128906 Z M 312.21875 272.507812 " fill-opacity="1" fill-rule="nonzero"/><g clip-path="url(#75a67fd831)"><path fill="#f7f1d8" d="M 221.105469 296.929688 L 215.683594 304.574219 L 193.570312 335.257812 L 216.425781 305 L 221.847656 297.777344 L 222.167969 297.460938 Z M 221.105469 296.929688 " fill-opacity="1" fill-rule="nonzero"/></g><path fill="#f7f1d8" d="M 193.675781 287.160156 L 193.460938 287.054688 L 193.355469 287.265625 L 187.507812 295.230469 L 165.820312 325.382812 L 188.574219 295.441406 L 194.527344 287.585938 Z M 193.675781 287.160156 " fill-opacity="1" fill-rule="nonzero"/><path fill="#f7f1d8" d="M 188.574219 287.585938 L 188.359375 287.480469 L 187.507812 287.054688 L 187.191406 287.585938 L 182.085938 294.59375 L 159.972656 325.382812 L 183.148438 294.699219 Z M 188.574219 287.585938 " fill-opacity="1" fill-rule="nonzero"/><g fill="#af0000" fill-opacity="1"><g transform="translate(162.51884, 179.011819)"><g><path d="M 134.875 12.640625 C 134.5 12.640625 134.5 12.519531 134.875 12.28125 C 135.257812 12.039062 135.664062 11.921875 136.09375 11.921875 C 136.519531 11.921875 136.519531 12.039062 136.09375 12.28125 C 135.664062 12.519531 135.257812 12.640625 134.875 12.640625 Z M 101.65625 -64.609375 C 101.84375 -64.796875 102.101562 -64.863281 102.4375 -64.8125 C 102.769531 -64.769531 104.023438 -64.460938 106.203125 -63.890625 C 108.097656 -63.328125 109.726562 -62.640625 111.09375 -61.828125 C 112.46875 -61.023438 113.109375 -60.34375 113.015625 -59.78125 C 112.921875 -59.394531 113.460938 -58.609375 114.640625 -57.421875 C 115.828125 -56.242188 116.234375 -55.5625 115.859375 -55.375 C 115.484375 -55.1875 115.390625 -54.191406 115.578125 -52.390625 C 115.765625 -50.585938 115.710938 -49.566406 115.421875 -49.328125 C 115.140625 -49.097656 114.859375 -47.820312 114.578125 -45.5 C 114.296875 -43.1875 113.941406 -40.5625 113.515625 -37.625 C 113.085938 -34.6875 112.941406 -31.582031 113.078125 -28.3125 C 113.222656 -25.050781 113.390625 -20.957031 113.578125 -16.03125 C 113.773438 -11.113281 114.015625 -8.515625 114.296875 -8.234375 C 114.960938 -7.859375 117.472656 -7.289062 121.828125 -6.53125 C 124.097656 -6.25 126.222656 -5.800781 128.203125 -5.1875 C 130.191406 -4.570312 131.726562 -3.929688 132.8125 -3.265625 C 133.90625 -2.597656 134.40625 -2.078125 134.3125 -1.703125 C 134.03125 -1.234375 134.789062 -0.238281 136.59375 1.28125 C 140.5625 5.15625 142.546875 7.472656 142.546875 8.234375 C 142.546875 8.804688 142.785156 9.328125 143.265625 9.796875 C 143.453125 9.984375 143.40625 10.078125 143.125 10.078125 C 142.832031 10.078125 142.453125 10.03125 141.984375 9.9375 C 140.753906 9.75 139.851562 9.914062 139.28125 10.4375 C 138.71875 10.957031 136.707031 11.265625 133.25 11.359375 C 129.789062 11.453125 127.304688 11.359375 125.796875 11.078125 C 125.421875 11.078125 125.066406 11.050781 124.734375 11 C 124.398438 10.957031 124.140625 10.9375 123.953125 10.9375 C 123.765625 10.9375 123.671875 10.984375 123.671875 11.078125 C 123.671875 11.640625 123.335938 11.6875 122.671875 11.21875 C 122.484375 11.125 122.296875 10.984375 122.109375 10.796875 C 122.015625 10.410156 121.726562 10.21875 121.25 10.21875 C 120.78125 10.21875 120.398438 10.078125 120.109375 9.796875 C 119.828125 9.515625 118.976562 9.179688 117.5625 8.796875 C 116.519531 8.421875 115.144531 7.570312 113.4375 6.25 C 111.738281 4.925781 110.890625 3.976562 110.890625 3.40625 C 110.890625 3.03125 110.320312 2.273438 109.1875 1.140625 C 108.050781 0.00390625 107.101562 -0.753906 106.34375 -1.140625 C 104.925781 -1.890625 103.835938 -2.457031 103.078125 -2.84375 C 102.515625 -2.9375 102.1875 -4.070312 102.09375 -6.25 C 101.800781 -9.375 101.515625 -11.171875 101.234375 -11.640625 C 101.140625 -11.828125 101.019531 -14.097656 100.875 -18.453125 C 100.738281 -22.804688 100.550781 -26.566406 100.3125 -29.734375 C 100.070312 -32.910156 99.972656 -34.566406 100.015625 -34.703125 C 100.066406 -34.847656 100.191406 -36.910156 100.390625 -40.890625 C 100.390625 -44.679688 100.242188 -46.578125 99.953125 -46.578125 C 95.503906 -45.148438 93.046875 -44.25 92.578125 -43.875 C 92.390625 -43.6875 92.242188 -42.785156 92.140625 -41.171875 C 92.046875 -39.566406 91.90625 -38.570312 91.71875 -38.1875 C 91.53125 -37.8125 91.4375 -36.015625 91.4375 -32.796875 C 91.4375 -29.578125 91.175781 -26.3125 90.65625 -23 C 90.132812 -19.6875 89.875 -17.367188 89.875 -16.046875 C 89.875 -14.429688 89.539062 -12.160156 88.875 -9.234375 C 87.84375 -5.160156 87.328125 -2.222656 87.328125 -0.421875 C 87.328125 0.140625 87.015625 1.460938 86.390625 3.546875 C 85.773438 5.628906 85.28125 7.050781 84.90625 7.8125 C 84.625 8.46875 84.222656 8.960938 83.703125 9.296875 C 83.179688 9.628906 82.828125 10.269531 82.640625 11.21875 C 82.347656 13.113281 81.734375 14.25 80.796875 14.625 C 80.597656 14.53125 80.453125 14.390625 80.359375 14.203125 C 80.359375 13.722656 80.265625 13.4375 80.078125 13.34375 C 79.703125 13.25 79.15625 12.65625 78.4375 11.5625 C 77.726562 10.476562 77.375 9.703125 77.375 9.234375 C 77.375 8.660156 77.1875 8.300781 76.8125 8.15625 C 76.4375 8.019531 76.316406 7.832031 76.453125 7.59375 C 76.597656 7.351562 76.503906 7.09375 76.171875 6.8125 C 75.835938 6.53125 75.71875 6.128906 75.8125 5.609375 C 75.914062 5.085938 75.679688 4.6875 75.109375 4.40625 C 73.785156 3.550781 73.597656 1.941406 74.546875 -0.421875 C 74.921875 -1.648438 74.828125 -2.550781 74.265625 -3.125 C 73.972656 -3.5 73.847656 -3.757812 73.890625 -3.90625 C 73.941406 -4.050781 74.160156 -4.359375 74.546875 -4.828125 C 75.203125 -5.492188 75.4375 -5.894531 75.25 -6.03125 C 75.0625 -6.175781 75.15625 -6.484375 75.53125 -6.953125 C 75.820312 -7.335938 76.203125 -8.617188 76.671875 -10.796875 C 77.140625 -12.972656 77.425781 -15.003906 77.53125 -16.890625 C 77.71875 -17.929688 78 -19.207031 78.375 -20.71875 C 78.75 -22.238281 78.910156 -23.707031 78.859375 -25.125 C 78.816406 -26.550781 79.007812 -28.328125 79.4375 -30.453125 C 79.863281 -32.585938 80.097656 -34.101562 80.140625 -35 C 80.191406 -35.894531 80.3125 -36.460938 80.5 -36.703125 C 80.695312 -36.941406 80.675781 -37.390625 80.4375 -38.046875 C 80.195312 -38.710938 80.144531 -39.707031 80.28125 -41.03125 C 80.425781 -42.351562 80.40625 -44.03125 80.21875 -46.0625 C 80.03125 -48.101562 79.601562 -49.476562 78.9375 -50.1875 C 78.28125 -50.894531 77.953125 -51.648438 77.953125 -52.453125 C 77.953125 -53.265625 77.664062 -54.117188 77.09375 -55.015625 C 76.53125 -55.921875 76.25 -56.375 76.25 -56.375 C 77.289062 -57.21875 79.226562 -57.453125 82.0625 -57.078125 C 83.582031 -56.703125 84.957031 -56.820312 86.1875 -57.4375 C 87.414062 -58.050781 88.195312 -58.359375 88.53125 -58.359375 C 88.863281 -58.359375 89.757812 -58.804688 91.21875 -59.703125 C 92.6875 -60.597656 93.585938 -61.046875 93.921875 -61.046875 C 94.253906 -61.046875 94.960938 -61.398438 96.046875 -62.109375 C 97.140625 -62.828125 97.828125 -63.1875 98.109375 -63.1875 C 98.390625 -63.1875 98.53125 -63.421875 98.53125 -63.890625 C 98.53125 -64.367188 98.976562 -64.507812 99.875 -64.3125 C 100.78125 -64.125 101.375 -64.222656 101.65625 -64.609375 Z M 82.203125 -105.0625 C 82.960938 -105.15625 84.40625 -105.15625 86.53125 -105.0625 C 88.664062 -104.96875 90.253906 -104.734375 91.296875 -104.359375 C 92.617188 -104.078125 93.421875 -103.554688 93.703125 -102.796875 C 93.992188 -102.128906 94.300781 -101.703125 94.625 -101.515625 C 94.957031 -101.328125 95.550781 -101.140625 96.40625 -100.953125 C 97.070312 -100.859375 97.664062 -100.664062 98.1875 -100.375 C 98.707031 -100.09375 99.082031 -99.8125 99.3125 -99.53125 C 99.550781 -99.25 99.53125 -99.015625 99.25 -98.828125 C 98.769531 -98.253906 99.289062 -96.878906 100.8125 -94.703125 C 101.5625 -93.660156 102.035156 -92.804688 102.234375 -92.140625 C 102.421875 -91.671875 102.675781 -91.390625 103 -91.296875 C 103.332031 -91.203125 104.019531 -91.25 105.0625 -91.4375 C 105.914062 -91.71875 106.296875 -92.003906 106.203125 -92.296875 C 106.109375 -92.671875 106.25 -92.859375 106.625 -92.859375 C 107.195312 -92.671875 108.523438 -92.242188 110.609375 -91.578125 C 113.347656 -90.722656 114.71875 -90.0625 114.71875 -89.59375 C 114.71875 -89.3125 115.257812 -88.4375 116.34375 -86.96875 C 117.4375 -85.5 118.101562 -84.671875 118.34375 -84.484375 C 118.582031 -84.296875 118.703125 -83.960938 118.703125 -83.484375 C 118.703125 -83.015625 119.125 -82.328125 119.96875 -81.421875 C 120.820312 -80.523438 121.320312 -79.789062 121.46875 -79.21875 C 121.613281 -78.65625 121.96875 -78.140625 122.53125 -77.671875 C 122.90625 -77.191406 123.164062 -76.8125 123.3125 -76.53125 C 123.457031 -76.25 123.410156 -76.035156 123.171875 -75.890625 C 122.929688 -75.742188 122.570312 -75.578125 122.09375 -75.390625 C 121.625 -75.203125 120.867188 -75.0625 119.828125 -74.96875 C 118.128906 -74.78125 115.148438 -74.070312 110.890625 -72.84375 C 110.421875 -72.75 109.046875 -72.414062 106.765625 -71.84375 C 103.453125 -70.988281 98.203125 -69.378906 91.015625 -67.015625 C 86.085938 -65.410156 83.363281 -64.609375 82.84375 -64.609375 C 82.320312 -64.609375 81.585938 -64.867188 80.640625 -65.390625 C 79.703125 -65.910156 78.519531 -66.40625 77.09375 -66.875 C 76.050781 -67.0625 75.101562 -67.460938 74.25 -68.078125 C 73.40625 -68.691406 72.984375 -69.191406 72.984375 -69.578125 C 72.984375 -69.953125 72.222656 -70.707031 70.703125 -71.84375 C 67.960938 -74.019531 66.734375 -75.34375 67.015625 -75.8125 C 67.109375 -76.289062 67.0625 -76.578125 66.875 -76.671875 C 65.925781 -77.140625 65.972656 -77.753906 67.015625 -78.515625 C 67.296875 -78.992188 68.125 -79.28125 69.5 -79.375 C 70.875 -79.46875 71.796875 -79.773438 72.265625 -80.296875 C 72.742188 -80.816406 73.265625 -81.003906 73.828125 -80.859375 C 74.398438 -80.710938 74.96875 -80.878906 75.53125 -81.359375 C 76.101562 -81.828125 77.097656 -82.296875 78.515625 -82.765625 C 79.929688 -83.242188 80.972656 -83.53125 81.640625 -83.625 C 82.304688 -83.625 82.734375 -83.835938 82.921875 -84.265625 C 83.109375 -84.691406 84.101562 -85.140625 85.90625 -85.609375 C 86.65625 -85.804688 87.242188 -86 87.671875 -86.1875 C 88.097656 -86.375 88.429688 -86.535156 88.671875 -86.671875 C 88.910156 -86.816406 89.03125 -86.984375 89.03125 -87.171875 C 89.03125 -87.367188 88.929688 -87.5625 88.734375 -87.75 C 88.359375 -88.03125 88.125 -88.878906 88.03125 -90.296875 C 87.75 -94.648438 87.226562 -97.394531 86.46875 -98.53125 C 86 -99.195312 85.359375 -99.929688 84.546875 -100.734375 C 83.742188 -101.535156 83.222656 -101.9375 82.984375 -101.9375 C 82.753906 -101.9375 82.398438 -102.269531 81.921875 -102.9375 C 81.453125 -103.601562 81.21875 -104.078125 81.21875 -104.359375 C 81.21875 -104.734375 81.546875 -104.96875 82.203125 -105.0625 Z M 40.046875 -107.90625 C 40.796875 -108.851562 42.304688 -108.664062 44.578125 -107.34375 C 45.804688 -106.769531 46.5625 -106.484375 46.84375 -106.484375 C 47.132812 -106.484375 47.753906 -106.054688 48.703125 -105.203125 C 53.054688 -101.328125 55.46875 -98.773438 55.9375 -97.546875 L 56.515625 -95.703125 L 54.65625 -93.703125 L 51.828125 -90.734375 C 50.304688 -89.117188 50.257812 -88.40625 51.6875 -88.59375 C 51.78125 -88.59375 51.921875 -88.59375 52.109375 -88.59375 C 52.960938 -88.78125 53.929688 -88.566406 55.015625 -87.953125 C 56.109375 -87.335938 56.84375 -87.03125 57.21875 -87.03125 C 57.5 -87.03125 58.160156 -86.554688 59.203125 -85.609375 C 60.242188 -84.671875 60.71875 -83.960938 60.625 -83.484375 C 60.625 -83.390625 60.644531 -83.316406 60.6875 -83.265625 C 60.738281 -83.222656 60.8125 -83.203125 60.90625 -83.203125 C 61.09375 -83.390625 61.445312 -83.175781 61.96875 -82.5625 C 62.488281 -81.945312 62.75 -81.40625 62.75 -80.9375 C 62.75 -80.269531 63.128906 -79.554688 63.890625 -78.796875 C 64.648438 -78.046875 65.03125 -77.523438 65.03125 -77.234375 C 64.84375 -77.046875 64.957031 -76.523438 65.375 -75.671875 C 65.800781 -74.828125 66.113281 -74.40625 66.3125 -74.40625 C 66.6875 -74.40625 66.707031 -74.210938 66.375 -73.828125 C 66.039062 -73.453125 65.707031 -73.265625 65.375 -73.265625 C 65.050781 -73.265625 64.695312 -72.910156 64.3125 -72.203125 C 63.9375 -71.492188 63.84375 -65.503906 64.03125 -54.234375 C 64.320312 -39.472656 64.796875 -28.445312 65.453125 -21.15625 C 65.734375 -18.507812 65.96875 -14.582031 66.15625 -9.375 C 66.351562 -4.164062 66.640625 -0.09375 67.015625 2.84375 C 67.679688 9.082031 67.679688 12.722656 67.015625 13.765625 C 66.734375 14.148438 66.6875 14.53125 66.875 14.90625 C 67.0625 15.28125 67.015625 15.539062 66.734375 15.6875 C 66.453125 15.832031 66.117188 16.425781 65.734375 17.46875 C 65.359375 18.507812 65.171875 19.3125 65.171875 19.875 C 65.171875 20.539062 65.03125 21.25 64.75 22 L 64.171875 23.140625 L 62.90625 21.71875 C 62.050781 20.675781 61.363281 20.082031 60.84375 19.9375 C 60.320312 19.800781 60.0625 19.453125 60.0625 18.890625 C 60.0625 17.648438 58.5 16.179688 55.375 14.484375 C 53.757812 13.628906 52.925781 13.007812 52.875 12.625 C 52.832031 12.25 52.8125 11.640625 52.8125 10.796875 C 52.8125 9.554688 51.675781 8.085938 49.40625 6.390625 C 48.175781 5.253906 47.367188 4.257812 46.984375 3.40625 C 46.609375 2.550781 46.160156 1.789062 45.640625 1.125 C 45.117188 0.46875 44.859375 -0.046875 44.859375 -0.421875 C 44.859375 -0.710938 45.023438 -0.878906 45.359375 -0.921875 C 45.691406 -0.972656 46.09375 -0.945312 46.5625 -0.84375 C 47.039062 -0.75 47.421875 -0.609375 47.703125 -0.421875 C 48.835938 0.523438 49.972656 0.332031 51.109375 -1 C 51.585938 -1.46875 51.894531 -2.4375 52.03125 -3.90625 C 52.175781 -5.375 52.101562 -6.34375 51.8125 -6.8125 C 51.53125 -7.289062 51.390625 -8.144531 51.390625 -9.375 C 51.390625 -12.300781 51.15625 -13.765625 50.6875 -13.765625 C 50.21875 -13.765625 49.203125 -14.285156 47.640625 -15.328125 C 46.078125 -16.367188 45.296875 -16.988281 45.296875 -17.1875 C 45.296875 -17.65625 45.175781 -17.890625 44.9375 -17.890625 C 44.695312 -17.890625 44.390625 -18.242188 44.015625 -18.953125 C 43.640625 -19.660156 42.765625 -20.441406 41.390625 -21.296875 C 40.015625 -22.148438 39.039062 -23.359375 38.46875 -24.921875 C 37.90625 -26.484375 37.578125 -27.785156 37.484375 -28.828125 C 37.203125 -29.867188 36.914062 -30.390625 36.625 -30.390625 C 36.4375 -30.390625 36.25 -30.195312 36.0625 -29.8125 L 35.0625 -24.84375 C 34.59375 -22.289062 34.21875 -20.113281 33.9375 -18.3125 C 33.75 -15.476562 32.894531 -11.691406 31.375 -6.953125 C 29.476562 -1.085938 28.34375 3.117188 27.96875 5.671875 C 27.78125 7.191406 27.351562 8.800781 26.6875 10.5 C 26.03125 12.207031 25.554688 13.0625 25.265625 13.0625 C 24.984375 13.0625 24.507812 12.5625 23.84375 11.5625 C 23.1875 10.570312 22.570312 9.863281 22 9.4375 C 21.4375 9.007812 21.203125 8.609375 21.296875 8.234375 C 21.390625 7.953125 21.054688 7.097656 20.296875 5.671875 C 19.546875 4.253906 18.882812 3.3125 18.3125 2.84375 C 17.75 2.457031 17.421875 2.097656 17.328125 1.765625 C 17.234375 1.441406 17.234375 0.664062 17.328125 -0.5625 C 17.421875 -2.363281 17.46875 -3.738281 17.46875 -4.6875 C 17.46875 -5.632812 17.65625 -6.269531 18.03125 -6.59375 C 18.40625 -6.925781 18.664062 -7.472656 18.8125 -8.234375 C 18.957031 -8.992188 19.265625 -10.414062 19.734375 -12.5 C 20.109375 -13.820312 20.554688 -15.785156 21.078125 -18.390625 C 21.597656 -20.992188 22 -23.359375 22.28125 -25.484375 C 22.570312 -27.617188 22.671875 -28.6875 22.578125 -28.6875 C 22.191406 -28.6875 20.769531 -28.09375 18.3125 -26.90625 C 15.851562 -25.71875 14.53125 -25.03125 14.34375 -24.84375 C 14.15625 -24.46875 12.164062 -24.375 8.375 -24.5625 C 7.425781 -24.65625 6.664062 -24.722656 6.09375 -24.765625 C 5.53125 -24.816406 5.082031 -24.890625 4.75 -24.984375 C 4.425781 -25.078125 4.265625 -25.195312 4.265625 -25.34375 C 4.265625 -25.488281 4.3125 -25.65625 4.40625 -25.84375 C 4.5 -26.3125 4.1875 -26.710938 3.46875 -27.046875 C 2.757812 -27.378906 2.40625 -27.640625 2.40625 -27.828125 C 2.40625 -28.015625 1.890625 -28.394531 0.859375 -28.96875 C 0.00390625 -29.34375 -0.5625 -29.671875 -0.84375 -29.953125 C -1.132812 -30.242188 -1.28125 -30.765625 -1.28125 -31.515625 C -1.28125 -32.648438 -0.566406 -33.363281 0.859375 -33.65625 C 1.515625 -33.9375 2.953125 -34.738281 5.171875 -36.0625 C 7.398438 -37.382812 8.726562 -38.046875 9.15625 -38.046875 C 9.582031 -38.046875 9.796875 -38.164062 9.796875 -38.40625 C 9.796875 -38.644531 11.40625 -39.546875 14.625 -41.109375 C 17.84375 -42.671875 20.445312 -43.78125 22.4375 -44.4375 L 25.5625 -45.578125 L 25.703125 -47.703125 C 25.703125 -49.691406 25.84375 -51.960938 26.125 -54.515625 L 26.6875 -57.78125 L 26.984375 -60.625 C 27.078125 -61.570312 26.882812 -64.316406 26.40625 -68.859375 C 25.9375 -73.398438 25.507812 -75.769531 25.125 -75.96875 C 24.9375 -76.15625 24.816406 -76.769531 24.765625 -77.8125 C 24.722656 -78.851562 24.273438 -80.175781 23.421875 -81.78125 L 21.859375 -84.34375 L 23.28125 -85.328125 C 24.132812 -85.992188 24.75 -86.234375 25.125 -86.046875 C 25.601562 -85.953125 26.953125 -87.085938 29.171875 -89.453125 C 31.398438 -91.816406 33.554688 -94.273438 35.640625 -96.828125 L 39.75 -102.234375 C 41.175781 -104.117188 41.367188 -105.535156 40.328125 -106.484375 C 39.847656 -107.054688 39.753906 -107.53125 40.046875 -107.90625 Z M 48.703125 -71.421875 C 48.703125 -72.171875 48.535156 -72.570312 48.203125 -72.625 C 47.867188 -72.675781 47.085938 -72.414062 45.859375 -71.84375 C 44.816406 -71.375 43.226562 -70.898438 41.09375 -70.421875 C 38.96875 -69.953125 37.90625 -69.625 37.90625 -69.4375 C 37.90625 -68.769531 38.09375 -68.195312 38.46875 -67.71875 C 38.851562 -67.25 39.28125 -67.015625 39.75 -67.015625 C 40.226562 -67.015625 40.65625 -66.707031 41.03125 -66.09375 C 41.40625 -65.476562 41.898438 -65.078125 42.515625 -64.890625 C 43.140625 -64.703125 43.78125 -63.96875 44.4375 -62.6875 C 45.101562 -61.40625 45.625 -60.691406 46 -60.546875 C 46.382812 -60.410156 46.953125 -59.585938 47.703125 -58.078125 C 47.890625 -57.597656 48.078125 -57.191406 48.265625 -56.859375 C 48.460938 -56.535156 48.609375 -56.300781 48.703125 -56.15625 C 48.796875 -56.007812 48.84375 -55.9375 48.84375 -55.9375 C 48.9375 -56.03125 48.984375 -57.757812 48.984375 -61.125 C 48.984375 -64.488281 48.9375 -66.832031 48.84375 -68.15625 C 48.75 -69.476562 48.703125 -70.566406 48.703125 -71.421875 Z M 43.578125 -55.296875 C 42.734375 -55.816406 41.8125 -56.457031 40.8125 -57.21875 C 39.820312 -57.976562 39.234375 -58.359375 39.046875 -58.359375 C 38.953125 -58.171875 38.90625 -57.601562 38.90625 -56.65625 C 38.90625 -55.707031 38.953125 -54.6875 39.046875 -53.59375 C 39.140625 -52.507812 39.253906 -51.921875 39.390625 -51.828125 C 39.535156 -51.734375 40.457031 -52.039062 42.15625 -52.75 C 43.863281 -53.457031 44.765625 -53.90625 44.859375 -54.09375 C 44.859375 -54.375 44.429688 -54.773438 43.578125 -55.296875 Z M 49.84375 -37.34375 C 49.644531 -37.71875 49.359375 -37.90625 48.984375 -37.90625 C 48.609375 -37.90625 47.851562 -37.71875 46.71875 -37.34375 C 45.675781 -36.769531 44.914062 -36.484375 44.4375 -36.484375 C 44.15625 -36.484375 43.921875 -36.34375 43.734375 -36.0625 C 43.546875 -35.78125 43.6875 -35.640625 44.15625 -35.640625 C 44.4375 -35.640625 44.503906 -35.285156 44.359375 -34.578125 C 44.222656 -33.867188 44.367188 -33.394531 44.796875 -33.15625 C 45.222656 -32.914062 45.484375 -32.367188 45.578125 -31.515625 C 45.671875 -30.671875 46.003906 -29.914062 46.578125 -29.25 C 47.898438 -27.738281 48.703125 -25.941406 48.984375 -23.859375 C 50.117188 -17.890625 50.78125 -14.8125 50.96875 -14.625 C 51.0625 -14.53125 51.128906 -15.164062 51.171875 -16.53125 C 51.222656 -17.90625 51.222656 -19.726562 51.171875 -22 C 51.128906 -24.28125 51.0625 -26.554688 50.96875 -28.828125 C 50.6875 -33.648438 50.3125 -36.488281 49.84375 -37.34375 Z M 49.84375 -37.34375 "/></g></g></g><g fill="#ffea93" fill-opacity="1"><g transform="translate(158.050422, 174.696716)"><g><path d="M 134.875 12.640625 C 134.5 12.640625 134.5 12.519531 134.875 12.28125 C 135.257812 12.039062 135.664062 11.921875 136.09375 11.921875 C 136.519531 11.921875 136.519531 12.039062 136.09375 12.28125 C 135.664062 12.519531 135.257812 12.640625 134.875 12.640625 Z M 101.65625 -64.609375 C 101.84375 -64.796875 102.101562 -64.863281 102.4375 -64.8125 C 102.769531 -64.769531 104.023438 -64.460938 106.203125 -63.890625 C 108.097656 -63.328125 109.726562 -62.640625 111.09375 -61.828125 C 112.46875 -61.023438 113.109375 -60.34375 113.015625 -59.78125 C 112.921875 -59.394531 113.460938 -58.609375 114.640625 -57.421875 C 115.828125 -56.242188 116.234375 -55.5625 115.859375 -55.375 C 115.484375 -55.1875 115.390625 -54.191406 115.578125 -52.390625 C 115.765625 -50.585938 115.710938 -49.566406 115.421875 -49.328125 C 115.140625 -49.097656 114.859375 -47.820312 114.578125 -45.5 C 114.296875 -43.1875 113.941406 -40.5625 113.515625 -37.625 C 113.085938 -34.6875 112.941406 -31.582031 113.078125 -28.3125 C 113.222656 -25.050781 113.390625 -20.957031 113.578125 -16.03125 C 113.773438 -11.113281 114.015625 -8.515625 114.296875 -8.234375 C 114.960938 -7.859375 117.472656 -7.289062 121.828125 -6.53125 C 124.097656 -6.25 126.222656 -5.800781 128.203125 -5.1875 C 130.191406 -4.570312 131.726562 -3.929688 132.8125 -3.265625 C 133.90625 -2.597656 134.40625 -2.078125 134.3125 -1.703125 C 134.03125 -1.234375 134.789062 -0.238281 136.59375 1.28125 C 140.5625 5.15625 142.546875 7.472656 142.546875 8.234375 C 142.546875 8.804688 142.785156 9.328125 143.265625 9.796875 C 143.453125 9.984375 143.40625 10.078125 143.125 10.078125 C 142.832031 10.078125 142.453125 10.03125 141.984375 9.9375 C 140.753906 9.75 139.851562 9.914062 139.28125 10.4375 C 138.71875 10.957031 136.707031 11.265625 133.25 11.359375 C 129.789062 11.453125 127.304688 11.359375 125.796875 11.078125 C 125.421875 11.078125 125.066406 11.050781 124.734375 11 C 124.398438 10.957031 124.140625 10.9375 123.953125 10.9375 C 123.765625 10.9375 123.671875 10.984375 123.671875 11.078125 C 123.671875 11.640625 123.335938 11.6875 122.671875 11.21875 C 122.484375 11.125 122.296875 10.984375 122.109375 10.796875 C 122.015625 10.410156 121.726562 10.21875 121.25 10.21875 C 120.78125 10.21875 120.398438 10.078125 120.109375 9.796875 C 119.828125 9.515625 118.976562 9.179688 117.5625 8.796875 C 116.519531 8.421875 115.144531 7.570312 113.4375 6.25 C 111.738281 4.925781 110.890625 3.976562 110.890625 3.40625 C 110.890625 3.03125 110.320312 2.273438 109.1875 1.140625 C 108.050781 0.00390625 107.101562 -0.753906 106.34375 -1.140625 C 104.925781 -1.890625 103.835938 -2.457031 103.078125 -2.84375 C 102.515625 -2.9375 102.1875 -4.070312 102.09375 -6.25 C 101.800781 -9.375 101.515625 -11.171875 101.234375 -11.640625 C 101.140625 -11.828125 101.019531 -14.097656 100.875 -18.453125 C 100.738281 -22.804688 100.550781 -26.566406 100.3125 -29.734375 C 100.070312 -32.910156 99.972656 -34.566406 100.015625 -34.703125 C 100.066406 -34.847656 100.191406 -36.910156 100.390625 -40.890625 C 100.390625 -44.679688 100.242188 -46.578125 99.953125 -46.578125 C 95.503906 -45.148438 93.046875 -44.25 92.578125 -43.875 C 92.390625 -43.6875 92.242188 -42.785156 92.140625 -41.171875 C 92.046875 -39.566406 91.90625 -38.570312 91.71875 -38.1875 C 91.53125 -37.8125 91.4375 -36.015625 91.4375 -32.796875 C 91.4375 -29.578125 91.175781 -26.3125 90.65625 -23 C 90.132812 -19.6875 89.875 -17.367188 89.875 -16.046875 C 89.875 -14.429688 89.539062 -12.160156 88.875 -9.234375 C 87.84375 -5.160156 87.328125 -2.222656 87.328125 -0.421875 C 87.328125 0.140625 87.015625 1.460938 86.390625 3.546875 C 85.773438 5.628906 85.28125 7.050781 84.90625 7.8125 C 84.625 8.46875 84.222656 8.960938 83.703125 9.296875 C 83.179688 9.628906 82.828125 10.269531 82.640625 11.21875 C 82.347656 13.113281 81.734375 14.25 80.796875 14.625 C 80.597656 14.53125 80.453125 14.390625 80.359375 14.203125 C 80.359375 13.722656 80.265625 13.4375 80.078125 13.34375 C 79.703125 13.25 79.15625 12.65625 78.4375 11.5625 C 77.726562 10.476562 77.375 9.703125 77.375 9.234375 C 77.375 8.660156 77.1875 8.300781 76.8125 8.15625 C 76.4375 8.019531 76.316406 7.832031 76.453125 7.59375 C 76.597656 7.351562 76.503906 7.09375 76.171875 6.8125 C 75.835938 6.53125 75.71875 6.128906 75.8125 5.609375 C 75.914062 5.085938 75.679688 4.6875 75.109375 4.40625 C 73.785156 3.550781 73.597656 1.941406 74.546875 -0.421875 C 74.921875 -1.648438 74.828125 -2.550781 74.265625 -3.125 C 73.972656 -3.5 73.847656 -3.757812 73.890625 -3.90625 C 73.941406 -4.050781 74.160156 -4.359375 74.546875 -4.828125 C 75.203125 -5.492188 75.4375 -5.894531 75.25 -6.03125 C 75.0625 -6.175781 75.15625 -6.484375 75.53125 -6.953125 C 75.820312 -7.335938 76.203125 -8.617188 76.671875 -10.796875 C 77.140625 -12.972656 77.425781 -15.003906 77.53125 -16.890625 C 77.71875 -17.929688 78 -19.207031 78.375 -20.71875 C 78.75 -22.238281 78.910156 -23.707031 78.859375 -25.125 C 78.816406 -26.550781 79.007812 -28.328125 79.4375 -30.453125 C 79.863281 -32.585938 80.097656 -34.101562 80.140625 -35 C 80.191406 -35.894531 80.3125 -36.460938 80.5 -36.703125 C 80.695312 -36.941406 80.675781 -37.390625 80.4375 -38.046875 C 80.195312 -38.710938 80.144531 -39.707031 80.28125 -41.03125 C 80.425781 -42.351562 80.40625 -44.03125 80.21875 -46.0625 C 80.03125 -48.101562 79.601562 -49.476562 78.9375 -50.1875 C 78.28125 -50.894531 77.953125 -51.648438 77.953125 -52.453125 C 77.953125 -53.265625 77.664062 -54.117188 77.09375 -55.015625 C 76.53125 -55.921875 76.25 -56.375 76.25 -56.375 C 77.289062 -57.21875 79.226562 -57.453125 82.0625 -57.078125 C 83.582031 -56.703125 84.957031 -56.820312 86.1875 -57.4375 C 87.414062 -58.050781 88.195312 -58.359375 88.53125 -58.359375 C 88.863281 -58.359375 89.757812 -58.804688 91.21875 -59.703125 C 92.6875 -60.597656 93.585938 -61.046875 93.921875 -61.046875 C 94.253906 -61.046875 94.960938 -61.398438 96.046875 -62.109375 C 97.140625 -62.828125 97.828125 -63.1875 98.109375 -63.1875 C 98.390625 -63.1875 98.53125 -63.421875 98.53125 -63.890625 C 98.53125 -64.367188 98.976562 -64.507812 99.875 -64.3125 C 100.78125 -64.125 101.375 -64.222656 101.65625 -64.609375 Z M 82.203125 -105.0625 C 82.960938 -105.15625 84.40625 -105.15625 86.53125 -105.0625 C 88.664062 -104.96875 90.253906 -104.734375 91.296875 -104.359375 C 92.617188 -104.078125 93.421875 -103.554688 93.703125 -102.796875 C 93.992188 -102.128906 94.300781 -101.703125 94.625 -101.515625 C 94.957031 -101.328125 95.550781 -101.140625 96.40625 -100.953125 C 97.070312 -100.859375 97.664062 -100.664062 98.1875 -100.375 C 98.707031 -100.09375 99.082031 -99.8125 99.3125 -99.53125 C 99.550781 -99.25 99.53125 -99.015625 99.25 -98.828125 C 98.769531 -98.253906 99.289062 -96.878906 100.8125 -94.703125 C 101.5625 -93.660156 102.035156 -92.804688 102.234375 -92.140625 C 102.421875 -91.671875 102.675781 -91.390625 103 -91.296875 C 103.332031 -91.203125 104.019531 -91.25 105.0625 -91.4375 C 105.914062 -91.71875 106.296875 -92.003906 106.203125 -92.296875 C 106.109375 -92.671875 106.25 -92.859375 106.625 -92.859375 C 107.195312 -92.671875 108.523438 -92.242188 110.609375 -91.578125 C 113.347656 -90.722656 114.71875 -90.0625 114.71875 -89.59375 C 114.71875 -89.3125 115.257812 -88.4375 116.34375 -86.96875 C 117.4375 -85.5 118.101562 -84.671875 118.34375 -84.484375 C 118.582031 -84.296875 118.703125 -83.960938 118.703125 -83.484375 C 118.703125 -83.015625 119.125 -82.328125 119.96875 -81.421875 C 120.820312 -80.523438 121.320312 -79.789062 121.46875 -79.21875 C 121.613281 -78.65625 121.96875 -78.140625 122.53125 -77.671875 C 122.90625 -77.191406 123.164062 -76.8125 123.3125 -76.53125 C 123.457031 -76.25 123.410156 -76.035156 123.171875 -75.890625 C 122.929688 -75.742188 122.570312 -75.578125 122.09375 -75.390625 C 121.625 -75.203125 120.867188 -75.0625 119.828125 -74.96875 C 118.128906 -74.78125 115.148438 -74.070312 110.890625 -72.84375 C 110.421875 -72.75 109.046875 -72.414062 106.765625 -71.84375 C 103.453125 -70.988281 98.203125 -69.378906 91.015625 -67.015625 C 86.085938 -65.410156 83.363281 -64.609375 82.84375 -64.609375 C 82.320312 -64.609375 81.585938 -64.867188 80.640625 -65.390625 C 79.703125 -65.910156 78.519531 -66.40625 77.09375 -66.875 C 76.050781 -67.0625 75.101562 -67.460938 74.25 -68.078125 C 73.40625 -68.691406 72.984375 -69.191406 72.984375 -69.578125 C 72.984375 -69.953125 72.222656 -70.707031 70.703125 -71.84375 C 67.960938 -74.019531 66.734375 -75.34375 67.015625 -75.8125 C 67.109375 -76.289062 67.0625 -76.578125 66.875 -76.671875 C 65.925781 -77.140625 65.972656 -77.753906 67.015625 -78.515625 C 67.296875 -78.992188 68.125 -79.28125 69.5 -79.375 C 70.875 -79.46875 71.796875 -79.773438 72.265625 -80.296875 C 72.742188 -80.816406 73.265625 -81.003906 73.828125 -80.859375 C 74.398438 -80.710938 74.96875 -80.878906 75.53125 -81.359375 C 76.101562 -81.828125 77.097656 -82.296875 78.515625 -82.765625 C 79.929688 -83.242188 80.972656 -83.53125 81.640625 -83.625 C 82.304688 -83.625 82.734375 -83.835938 82.921875 -84.265625 C 83.109375 -84.691406 84.101562 -85.140625 85.90625 -85.609375 C 86.65625 -85.804688 87.242188 -86 87.671875 -86.1875 C 88.097656 -86.375 88.429688 -86.535156 88.671875 -86.671875 C 88.910156 -86.816406 89.03125 -86.984375 89.03125 -87.171875 C 89.03125 -87.367188 88.929688 -87.5625 88.734375 -87.75 C 88.359375 -88.03125 88.125 -88.878906 88.03125 -90.296875 C 87.75 -94.648438 87.226562 -97.394531 86.46875 -98.53125 C 86 -99.195312 85.359375 -99.929688 84.546875 -100.734375 C 83.742188 -101.535156 83.222656 -101.9375 82.984375 -101.9375 C 82.753906 -101.9375 82.398438 -102.269531 81.921875 -102.9375 C 81.453125 -103.601562 81.21875 -104.078125 81.21875 -104.359375 C 81.21875 -104.734375 81.546875 -104.96875 82.203125 -105.0625 Z M 40.046875 -107.90625 C 40.796875 -108.851562 42.304688 -108.664062 44.578125 -107.34375 C 45.804688 -106.769531 46.5625 -106.484375 46.84375 -106.484375 C 47.132812 -106.484375 47.753906 -106.054688 48.703125 -105.203125 C 53.054688 -101.328125 55.46875 -98.773438 55.9375 -97.546875 L 56.515625 -95.703125 L 54.65625 -93.703125 L 51.828125 -90.734375 C 50.304688 -89.117188 50.257812 -88.40625 51.6875 -88.59375 C 51.78125 -88.59375 51.921875 -88.59375 52.109375 -88.59375 C 52.960938 -88.78125 53.929688 -88.566406 55.015625 -87.953125 C 56.109375 -87.335938 56.84375 -87.03125 57.21875 -87.03125 C 57.5 -87.03125 58.160156 -86.554688 59.203125 -85.609375 C 60.242188 -84.671875 60.71875 -83.960938 60.625 -83.484375 C 60.625 -83.390625 60.644531 -83.316406 60.6875 -83.265625 C 60.738281 -83.222656 60.8125 -83.203125 60.90625 -83.203125 C 61.09375 -83.390625 61.445312 -83.175781 61.96875 -82.5625 C 62.488281 -81.945312 62.75 -81.40625 62.75 -80.9375 C 62.75 -80.269531 63.128906 -79.554688 63.890625 -78.796875 C 64.648438 -78.046875 65.03125 -77.523438 65.03125 -77.234375 C 64.84375 -77.046875 64.957031 -76.523438 65.375 -75.671875 C 65.800781 -74.828125 66.113281 -74.40625 66.3125 -74.40625 C 66.6875 -74.40625 66.707031 -74.210938 66.375 -73.828125 C 66.039062 -73.453125 65.707031 -73.265625 65.375 -73.265625 C 65.050781 -73.265625 64.695312 -72.910156 64.3125 -72.203125 C 63.9375 -71.492188 63.84375 -65.503906 64.03125 -54.234375 C 64.320312 -39.472656 64.796875 -28.445312 65.453125 -21.15625 C 65.734375 -18.507812 65.96875 -14.582031 66.15625 -9.375 C 66.351562 -4.164062 66.640625 -0.09375 67.015625 2.84375 C 67.679688 9.082031 67.679688 12.722656 67.015625 13.765625 C 66.734375 14.148438 66.6875 14.53125 66.875 14.90625 C 67.0625 15.28125 67.015625 15.539062 66.734375 15.6875 C 66.453125 15.832031 66.117188 16.425781 65.734375 17.46875 C 65.359375 18.507812 65.171875 19.3125 65.171875 19.875 C 65.171875 20.539062 65.03125 21.25 64.75 22 L 64.171875 23.140625 L 62.90625 21.71875 C 62.050781 20.675781 61.363281 20.082031 60.84375 19.9375 C 60.320312 19.800781 60.0625 19.453125 60.0625 18.890625 C 60.0625 17.648438 58.5 16.179688 55.375 14.484375 C 53.757812 13.628906 52.925781 13.007812 52.875 12.625 C 52.832031 12.25 52.8125 11.640625 52.8125 10.796875 C 52.8125 9.554688 51.675781 8.085938 49.40625 6.390625 C 48.175781 5.253906 47.367188 4.257812 46.984375 3.40625 C 46.609375 2.550781 46.160156 1.789062 45.640625 1.125 C 45.117188 0.46875 44.859375 -0.046875 44.859375 -0.421875 C 44.859375 -0.710938 45.023438 -0.878906 45.359375 -0.921875 C 45.691406 -0.972656 46.09375 -0.945312 46.5625 -0.84375 C 47.039062 -0.75 47.421875 -0.609375 47.703125 -0.421875 C 48.835938 0.523438 49.972656 0.332031 51.109375 -1 C 51.585938 -1.46875 51.894531 -2.4375 52.03125 -3.90625 C 52.175781 -5.375 52.101562 -6.34375 51.8125 -6.8125 C 51.53125 -7.289062 51.390625 -8.144531 51.390625 -9.375 C 51.390625 -12.300781 51.15625 -13.765625 50.6875 -13.765625 C 50.21875 -13.765625 49.203125 -14.285156 47.640625 -15.328125 C 46.078125 -16.367188 45.296875 -16.988281 45.296875 -17.1875 C 45.296875 -17.65625 45.175781 -17.890625 44.9375 -17.890625 C 44.695312 -17.890625 44.390625 -18.242188 44.015625 -18.953125 C 43.640625 -19.660156 42.765625 -20.441406 41.390625 -21.296875 C 40.015625 -22.148438 39.039062 -23.359375 38.46875 -24.921875 C 37.90625 -26.484375 37.578125 -27.785156 37.484375 -28.828125 C 37.203125 -29.867188 36.914062 -30.390625 36.625 -30.390625 C 36.4375 -30.390625 36.25 -30.195312 36.0625 -29.8125 L 35.0625 -24.84375 C 34.59375 -22.289062 34.21875 -20.113281 33.9375 -18.3125 C 33.75 -15.476562 32.894531 -11.691406 31.375 -6.953125 C 29.476562 -1.085938 28.34375 3.117188 27.96875 5.671875 C 27.78125 7.191406 27.351562 8.800781 26.6875 10.5 C 26.03125 12.207031 25.554688 13.0625 25.265625 13.0625 C 24.984375 13.0625 24.507812 12.5625 23.84375 11.5625 C 23.1875 10.570312 22.570312 9.863281 22 9.4375 C 21.4375 9.007812 21.203125 8.609375 21.296875 8.234375 C 21.390625 7.953125 21.054688 7.097656 20.296875 5.671875 C 19.546875 4.253906 18.882812 3.3125 18.3125 2.84375 C 17.75 2.457031 17.421875 2.097656 17.328125 1.765625 C 17.234375 1.441406 17.234375 0.664062 17.328125 -0.5625 C 17.421875 -2.363281 17.46875 -3.738281 17.46875 -4.6875 C 17.46875 -5.632812 17.65625 -6.269531 18.03125 -6.59375 C 18.40625 -6.925781 18.664062 -7.472656 18.8125 -8.234375 C 18.957031 -8.992188 19.265625 -10.414062 19.734375 -12.5 C 20.109375 -13.820312 20.554688 -15.785156 21.078125 -18.390625 C 21.597656 -20.992188 22 -23.359375 22.28125 -25.484375 C 22.570312 -27.617188 22.671875 -28.6875 22.578125 -28.6875 C 22.191406 -28.6875 20.769531 -28.09375 18.3125 -26.90625 C 15.851562 -25.71875 14.53125 -25.03125 14.34375 -24.84375 C 14.15625 -24.46875 12.164062 -24.375 8.375 -24.5625 C 7.425781 -24.65625 6.664062 -24.722656 6.09375 -24.765625 C 5.53125 -24.816406 5.082031 -24.890625 4.75 -24.984375 C 4.425781 -25.078125 4.265625 -25.195312 4.265625 -25.34375 C 4.265625 -25.488281 4.3125 -25.65625 4.40625 -25.84375 C 4.5 -26.3125 4.1875 -26.710938 3.46875 -27.046875 C 2.757812 -27.378906 2.40625 -27.640625 2.40625 -27.828125 C 2.40625 -28.015625 1.890625 -28.394531 0.859375 -28.96875 C 0.00390625 -29.34375 -0.5625 -29.671875 -0.84375 -29.953125 C -1.132812 -30.242188 -1.28125 -30.765625 -1.28125 -31.515625 C -1.28125 -32.648438 -0.566406 -33.363281 0.859375 -33.65625 C 1.515625 -33.9375 2.953125 -34.738281 5.171875 -36.0625 C 7.398438 -37.382812 8.726562 -38.046875 9.15625 -38.046875 C 9.582031 -38.046875 9.796875 -38.164062 9.796875 -38.40625 C 9.796875 -38.644531 11.40625 -39.546875 14.625 -41.109375 C 17.84375 -42.671875 20.445312 -43.78125 22.4375 -44.4375 L 25.5625 -45.578125 L 25.703125 -47.703125 C 25.703125 -49.691406 25.84375 -51.960938 26.125 -54.515625 L 26.6875 -57.78125 L 26.984375 -60.625 C 27.078125 -61.570312 26.882812 -64.316406 26.40625 -68.859375 C 25.9375 -73.398438 25.507812 -75.769531 25.125 -75.96875 C 24.9375 -76.15625 24.816406 -76.769531 24.765625 -77.8125 C 24.722656 -78.851562 24.273438 -80.175781 23.421875 -81.78125 L 21.859375 -84.34375 L 23.28125 -85.328125 C 24.132812 -85.992188 24.75 -86.234375 25.125 -86.046875 C 25.601562 -85.953125 26.953125 -87.085938 29.171875 -89.453125 C 31.398438 -91.816406 33.554688 -94.273438 35.640625 -96.828125 L 39.75 -102.234375 C 41.175781 -104.117188 41.367188 -105.535156 40.328125 -106.484375 C 39.847656 -107.054688 39.753906 -107.53125 40.046875 -107.90625 Z M 48.703125 -71.421875 C 48.703125 -72.171875 48.535156 -72.570312 48.203125 -72.625 C 47.867188 -72.675781 47.085938 -72.414062 45.859375 -71.84375 C 44.816406 -71.375 43.226562 -70.898438 41.09375 -70.421875 C 38.96875 -69.953125 37.90625 -69.625 37.90625 -69.4375 C 37.90625 -68.769531 38.09375 -68.195312 38.46875 -67.71875 C 38.851562 -67.25 39.28125 -67.015625 39.75 -67.015625 C 40.226562 -67.015625 40.65625 -66.707031 41.03125 -66.09375 C 41.40625 -65.476562 41.898438 -65.078125 42.515625 -64.890625 C 43.140625 -64.703125 43.78125 -63.96875 44.4375 -62.6875 C 45.101562 -61.40625 45.625 -60.691406 46 -60.546875 C 46.382812 -60.410156 46.953125 -59.585938 47.703125 -58.078125 C 47.890625 -57.597656 48.078125 -57.191406 48.265625 -56.859375 C 48.460938 -56.535156 48.609375 -56.300781 48.703125 -56.15625 C 48.796875 -56.007812 48.84375 -55.9375 48.84375 -55.9375 C 48.9375 -56.03125 48.984375 -57.757812 48.984375 -61.125 C 48.984375 -64.488281 48.9375 -66.832031 48.84375 -68.15625 C 48.75 -69.476562 48.703125 -70.566406 48.703125 -71.421875 Z M 43.578125 -55.296875 C 42.734375 -55.816406 41.8125 -56.457031 40.8125 -57.21875 C 39.820312 -57.976562 39.234375 -58.359375 39.046875 -58.359375 C 38.953125 -58.171875 38.90625 -57.601562 38.90625 -56.65625 C 38.90625 -55.707031 38.953125 -54.6875 39.046875 -53.59375 C 39.140625 -52.507812 39.253906 -51.921875 39.390625 -51.828125 C 39.535156 -51.734375 40.457031 -52.039062 42.15625 -52.75 C 43.863281 -53.457031 44.765625 -53.90625 44.859375 -54.09375 C 44.859375 -54.375 44.429688 -54.773438 43.578125 -55.296875 Z M 49.84375 -37.34375 C 49.644531 -37.71875 49.359375 -37.90625 48.984375 -37.90625 C 48.609375 -37.90625 47.851562 -37.71875 46.71875 -37.34375 C 45.675781 -36.769531 44.914062 -36.484375 44.4375 -36.484375 C 44.15625 -36.484375 43.921875 -36.34375 43.734375 -36.0625 C 43.546875 -35.78125 43.6875 -35.640625 44.15625 -35.640625 C 44.4375 -35.640625 44.503906 -35.285156 44.359375 -34.578125 C 44.222656 -33.867188 44.367188 -33.394531 44.796875 -33.15625 C 45.222656 -32.914062 45.484375 -32.367188 45.578125 -31.515625 C 45.671875 -30.671875 46.003906 -29.914062 46.578125 -29.25 C 47.898438 -27.738281 48.703125 -25.941406 48.984375 -23.859375 C 50.117188 -17.890625 50.78125 -14.8125 50.96875 -14.625 C 51.0625 -14.53125 51.128906 -15.164062 51.171875 -16.53125 C 51.222656 -17.90625 51.222656 -19.726562 51.171875 -22 C 51.128906 -24.28125 51.0625 -26.554688 50.96875 -28.828125 C 50.6875 -33.648438 50.3125 -36.488281 49.84375 -37.34375 Z M 49.84375 -37.34375 "/></g></g></g><g fill="#af0000" fill-opacity="1"><g transform="translate(189.488024, 370.505366)"><g><path d="M 72.921875 -111.96875 C 73.691406 -113.132812 74.410156 -113.378906 75.078125 -112.703125 C 75.460938 -112.503906 76.625 -112.066406 78.5625 -111.390625 C 83.664062 -109.753906 86.992188 -107.78125 88.546875 -105.46875 C 89.023438 -104.789062 89.019531 -103.96875 88.53125 -103 C 88.050781 -102.039062 87.832031 -98.570312 87.875 -92.59375 C 87.925781 -86.613281 88.003906 -83.570312 88.109375 -83.46875 C 88.296875 -83.28125 88.921875 -83.234375 89.984375 -83.328125 C 91.046875 -83.421875 91.671875 -83.566406 91.859375 -83.765625 C 92.640625 -84.347656 94.304688 -84.300781 96.859375 -83.625 C 99.410156 -82.945312 101.363281 -82.078125 102.71875 -81.015625 C 104.738281 -79.273438 105.460938 -77.585938 104.890625 -75.953125 C 104.597656 -75.179688 103.921875 -74.890625 102.859375 -75.078125 C 102.285156 -75.367188 101.585938 -75.273438 100.765625 -74.796875 C 99.941406 -74.316406 99.335938 -74.078125 98.953125 -74.078125 C 98.566406 -74.078125 96.925781 -73.398438 94.03125 -72.046875 C 91.144531 -70.691406 89.554688 -70.015625 89.265625 -70.015625 C 89.066406 -70.015625 88.921875 -69.847656 88.828125 -69.515625 C 88.734375 -69.179688 88.640625 -67.804688 88.546875 -65.390625 C 88.441406 -62.785156 88.609375 -61.410156 89.046875 -61.265625 C 89.484375 -61.117188 89.867188 -61.210938 90.203125 -61.546875 C 90.535156 -61.890625 90.894531 -62.0625 91.28125 -62.0625 C 91.664062 -62.0625 92.25 -62.207031 93.03125 -62.5 C 96.6875 -64.132812 99.484375 -65.144531 101.421875 -65.53125 C 102.671875 -65.726562 103.34375 -66.113281 103.4375 -66.6875 C 103.53125 -67.070312 103.796875 -67.289062 104.234375 -67.34375 C 104.671875 -67.394531 105.898438 -67.367188 107.921875 -67.265625 C 110.617188 -67.078125 112.066406 -66.835938 112.265625 -66.546875 C 112.460938 -66.253906 113.160156 -66.035156 114.359375 -65.890625 C 115.566406 -65.753906 116.171875 -65.492188 116.171875 -65.109375 C 116.171875 -64.722656 116.460938 -64.332031 117.046875 -63.9375 C 117.617188 -63.75 118.722656 -62.929688 120.359375 -61.484375 C 122.003906 -60.035156 122.828125 -59.21875 122.828125 -59.03125 C 122.828125 -58.644531 122.535156 -58.453125 121.953125 -58.453125 C 121.085938 -58.453125 120.894531 -58.113281 121.375 -57.4375 C 121.570312 -57.144531 121.957031 -56.953125 122.53125 -56.859375 C 123.113281 -56.660156 123.285156 -56.320312 123.046875 -55.84375 C 122.804688 -55.363281 122.539062 -55.21875 122.25 -55.40625 C 121.570312 -55.601562 119.375 -55.191406 115.65625 -54.171875 C 111.945312 -53.160156 108.066406 -51.882812 104.015625 -50.34375 C 99.960938 -48.800781 97.210938 -47.882812 95.765625 -47.59375 C 94.328125 -47.300781 92.882812 -46.769531 91.4375 -46 L 89.265625 -45 L 89.546875 -41.234375 C 89.648438 -38.628906 89.820312 -37.0625 90.0625 -36.53125 C 90.300781 -36 91.796875 -35.320312 94.546875 -34.5 C 97.296875 -33.6875 99.34375 -33.132812 100.6875 -32.84375 C 104.738281 -32.164062 107.394531 -31.441406 108.65625 -30.671875 C 109.320312 -30.285156 110.332031 -29.851562 111.6875 -29.375 C 113.8125 -28.695312 116.34375 -27.390625 119.28125 -25.453125 C 122.21875 -23.523438 124.847656 -21.453125 127.171875 -19.234375 C 127.941406 -18.460938 128.734375 -17.5 129.546875 -16.34375 C 130.367188 -15.1875 130.78125 -14.414062 130.78125 -14.03125 C 130.78125 -13.738281 131.117188 -13.015625 131.796875 -11.859375 C 132.378906 -10.796875 132.425781 -10.265625 131.9375 -10.265625 C 131.457031 -10.265625 131.3125 -9.953125 131.5 -9.328125 C 131.695312 -8.703125 132.035156 -8.097656 132.515625 -7.515625 C 133.003906 -7.035156 133.054688 -6.796875 132.671875 -6.796875 C 132.472656 -6.703125 131.941406 -6.847656 131.078125 -7.234375 C 129.921875 -7.910156 129.097656 -8.296875 128.609375 -8.390625 C 128.128906 -8.484375 127.429688 -8.722656 126.515625 -9.109375 C 125.597656 -9.492188 124.847656 -9.6875 124.265625 -9.6875 C 123.691406 -9.6875 121.453125 -10.554688 117.546875 -12.296875 C 113.640625 -14.035156 110.722656 -15.265625 108.796875 -15.984375 C 106.867188 -16.710938 105.492188 -17.242188 104.671875 -17.578125 C 103.847656 -17.910156 102.472656 -18.414062 100.546875 -19.09375 L 94.46875 -21.5625 C 92.25 -22.425781 91.019531 -22.859375 90.78125 -22.859375 C 90.539062 -22.859375 90.515625 -20.785156 90.703125 -16.640625 C 91.285156 -0.046875 91.285156 9.5 90.703125 12 C 90.421875 13.832031 90.375 14.867188 90.5625 15.109375 C 90.757812 15.359375 90.664062 15.84375 90.28125 16.5625 C 89.894531 17.289062 89.601562 18.90625 89.40625 21.40625 C 89.21875 24.59375 88.878906 26.1875 88.390625 26.1875 C 88.097656 26.1875 87.566406 25.460938 86.796875 24.015625 C 86.023438 22.566406 85.445312 21.890625 85.0625 21.984375 C 84.96875 21.984375 84.875 21.9375 84.78125 21.84375 C 84.6875 21.75 84.640625 21.601562 84.640625 21.40625 C 84.640625 20.832031 84.179688 20.0625 83.265625 19.09375 C 82.347656 18.132812 81.625 17.125 81.09375 16.0625 C 80.5625 15 80.003906 14.441406 79.421875 14.390625 C 78.847656 14.347656 78.5625 13.988281 78.5625 13.3125 C 78.457031 12.832031 77.972656 12.132812 77.109375 11.21875 C 76.242188 10.300781 75.617188 9.984375 75.234375 10.265625 C 75.128906 10.367188 74.425781 9.71875 73.125 8.3125 C 71.820312 6.914062 71.171875 6.070312 71.171875 5.78125 C 71.171875 5.5 70.785156 4.875 70.015625 3.90625 C 69.148438 2.9375 68.691406 2.210938 68.640625 1.734375 C 68.597656 1.253906 68.960938 0.820312 69.734375 0.4375 C 70.410156 -0.0507812 71.082031 -0.0976562 71.75 0.296875 C 75.519531 2.703125 77.40625 3.472656 77.40625 2.609375 C 77.40625 2.316406 77.691406 0.335938 78.265625 -3.328125 C 78.554688 -5.160156 78.796875 -7.835938 78.984375 -11.359375 C 79.179688 -14.878906 79.253906 -18.015625 79.203125 -20.765625 C 79.160156 -23.515625 78.992188 -24.890625 78.703125 -24.890625 C 78.503906 -24.890625 78.113281 -24.5 77.53125 -23.71875 C 76.957031 -22.945312 76.671875 -22.414062 76.671875 -22.125 C 76.671875 -21.84375 76.40625 -21.554688 75.875 -21.265625 C 75.34375 -20.972656 73.875 -19.238281 71.46875 -16.0625 C 68.28125 -11.71875 65.046875 -7.804688 61.765625 -4.328125 C 58.492188 -0.859375 56.28125 1.066406 55.125 1.453125 C 54.539062 1.640625 54.203125 1.707031 54.109375 1.65625 C 54.015625 1.613281 53.96875 1.300781 53.96875 0.71875 C 53.96875 -1.6875 53.675781 -3.660156 53.09375 -5.203125 C 52.800781 -6.265625 52.800781 -7.59375 53.09375 -9.1875 C 53.382812 -10.78125 53.769531 -11.769531 54.25 -12.15625 C 54.632812 -12.34375 54.828125 -12.628906 54.828125 -13.015625 C 54.828125 -13.398438 55.066406 -13.859375 55.546875 -14.390625 C 56.035156 -14.921875 56.472656 -15.1875 56.859375 -15.1875 C 57.335938 -15.1875 57.484375 -15.671875 57.296875 -16.640625 C 57.296875 -16.734375 57.34375 -16.800781 57.4375 -16.84375 C 57.53125 -16.894531 57.675781 -16.921875 57.875 -16.921875 C 58.257812 -16.921875 58.8125 -17.304688 59.53125 -18.078125 C 60.257812 -18.847656 60.550781 -19.351562 60.40625 -19.59375 C 60.257812 -19.84375 60.765625 -20.546875 61.921875 -21.703125 C 63.753906 -23.535156 65.25 -25.316406 66.40625 -27.046875 C 71.226562 -33.804688 73.925781 -37.8125 74.5 -39.0625 C 74.789062 -39.925781 72.769531 -39.347656 68.4375 -37.328125 C 66.882812 -36.554688 65.675781 -35.925781 64.8125 -35.4375 C 63.5625 -34.570312 61.96875 -34.71875 60.03125 -35.875 C 59.164062 -36.457031 58.421875 -36.867188 57.796875 -37.109375 C 57.171875 -37.347656 56.28125 -38 55.125 -39.0625 C 52.800781 -41.082031 51.207031 -41.035156 50.34375 -38.921875 C 49.863281 -37.859375 49.816406 -37.226562 50.203125 -37.03125 C 51.066406 -36.164062 50.773438 -35.539062 49.328125 -35.15625 C 48.554688 -34.957031 48.171875 -34.738281 48.171875 -34.5 C 48.171875 -34.257812 47.804688 -34.019531 47.078125 -33.78125 C 46.359375 -33.539062 46 -33.15625 46 -32.625 C 46 -32.09375 45.664062 -32.164062 45 -32.84375 L 43.984375 -33.703125 L 38.484375 -31.828125 C 34.722656 -30.671875 32.578125 -30.09375 32.046875 -30.09375 C 31.515625 -30.09375 31.296875 -29.800781 31.390625 -29.21875 C 31.484375 -28.9375 31.554688 -27.925781 31.609375 -26.1875 C 31.660156 -24.445312 31.6875 -23.097656 31.6875 -22.140625 C 31.582031 -21.265625 31.628906 -20.585938 31.828125 -20.109375 L 30.8125 -20.6875 C 30.332031 -21.070312 29.800781 -21.554688 29.21875 -22.140625 C 27.101562 -24.066406 25.65625 -25.242188 24.875 -25.671875 C 24.101562 -26.109375 23.71875 -26.492188 23.71875 -26.828125 C 23.71875 -27.171875 23.359375 -27.507812 22.640625 -27.84375 C 21.921875 -28.1875 21.5625 -28.691406 21.5625 -29.359375 C 21.5625 -30.035156 21.316406 -30.953125 20.828125 -32.109375 C 19.960938 -34.328125 19.097656 -38.765625 18.234375 -45.421875 C 17.265625 -53.234375 16.15625 -58.828125 14.90625 -62.203125 C 14.320312 -63.648438 13.597656 -64.757812 12.734375 -65.53125 C 12.148438 -65.914062 11.832031 -66.226562 11.78125 -66.46875 C 11.738281 -66.71875 11.863281 -67.175781 12.15625 -67.84375 C 12.632812 -68.71875 13.1875 -69.082031 13.8125 -68.9375 C 14.4375 -68.789062 15.8125 -68.425781 17.9375 -67.84375 C 21.40625 -66.976562 23.332031 -66.066406 23.71875 -65.109375 C 24.007812 -64.722656 24.347656 -64.53125 24.734375 -64.53125 C 25.023438 -64.53125 26.28125 -64.9375 28.5 -65.75 C 30.71875 -66.570312 32.210938 -67.128906 32.984375 -67.421875 C 35.296875 -68.765625 37.804688 -69.4375 40.515625 -69.4375 C 41.566406 -69.4375 42.238281 -69.628906 42.53125 -70.015625 C 42.625 -70.304688 43.347656 -70.40625 44.703125 -70.3125 C 46.054688 -70.21875 47.117188 -69.925781 47.890625 -69.4375 C 48.953125 -68.957031 49.578125 -68.71875 49.765625 -68.71875 C 50.148438 -68.71875 50.894531 -68.234375 52 -67.265625 C 53.113281 -66.304688 53.71875 -65.585938 53.8125 -65.109375 C 53.914062 -64.722656 54.6875 -63.945312 56.125 -62.78125 C 58.832031 -60.664062 59.703125 -59.125 58.734375 -58.15625 C 58.347656 -57.675781 58.15625 -57.050781 58.15625 -56.28125 C 58.15625 -55.507812 58.007812 -55.050781 57.71875 -54.90625 C 57.4375 -54.757812 56.882812 -53.769531 56.0625 -51.9375 C 55.238281 -50.101562 54.734375 -48.800781 54.546875 -48.03125 C 54.347656 -47.257812 54.441406 -46.875 54.828125 -46.875 C 55.597656 -46.875 59.070312 -48.269531 65.25 -51.0625 C 67.082031 -51.9375 68.769531 -52.640625 70.3125 -53.171875 C 71.851562 -53.703125 72.769531 -54.085938 73.0625 -54.328125 C 73.351562 -54.566406 74.242188 -54.925781 75.734375 -55.40625 C 77.234375 -55.882812 78.078125 -56.269531 78.265625 -56.5625 C 78.460938 -56.851562 78.507812 -58.253906 78.40625 -60.765625 C 78.21875 -62.878906 77.976562 -64.054688 77.6875 -64.296875 C 77.394531 -64.546875 76.191406 -64.476562 74.078125 -64.09375 C 72.335938 -63.800781 70.625 -63.894531 68.9375 -64.375 C 67.25 -64.863281 64.910156 -66.019531 61.921875 -67.84375 C 59.222656 -69.488281 57.875 -70.597656 57.875 -71.171875 C 57.875 -71.367188 57.679688 -71.515625 57.296875 -71.609375 C 56.910156 -71.703125 56.910156 -72.015625 57.296875 -72.546875 C 57.679688 -73.078125 58.453125 -73.34375 59.609375 -73.34375 C 61.828125 -73.34375 64.625 -74.066406 68 -75.515625 C 68.863281 -75.898438 70.257812 -76.453125 72.1875 -77.171875 C 74.113281 -77.898438 75.660156 -78.554688 76.828125 -79.140625 C 77.597656 -79.421875 78.003906 -79.753906 78.046875 -80.140625 C 78.097656 -80.535156 77.929688 -82.421875 77.546875 -85.796875 C 77.453125 -87.140625 77.304688 -89.359375 77.109375 -92.453125 C 76.335938 -101.128906 75.519531 -106.332031 74.65625 -108.0625 C 74.164062 -108.9375 73.585938 -109.613281 72.921875 -110.09375 L 71.90625 -110.671875 Z M 42.390625 -58.453125 C 42.191406 -58.835938 41.46875 -58.785156 40.21875 -58.296875 C 39.738281 -58.203125 38.96875 -58.007812 37.90625 -57.71875 C 35.300781 -56.757812 33.082031 -56.28125 31.25 -56.28125 L 28.359375 -56.28125 L 28.5 -54.96875 C 28.695312 -54.101562 28.988281 -53.382812 29.375 -52.8125 C 29.65625 -52.320312 29.960938 -51.015625 30.296875 -48.890625 C 30.640625 -46.773438 30.738281 -45.398438 30.59375 -44.765625 C 30.445312 -44.140625 30.519531 -43.753906 30.8125 -43.609375 C 31.101562 -43.472656 31.25 -43.113281 31.25 -42.53125 C 31.25 -41.957031 31.394531 -41.671875 31.6875 -41.671875 C 31.96875 -41.671875 32.734375 -41.929688 33.984375 -42.453125 C 35.242188 -42.984375 35.875 -43.347656 35.875 -43.546875 C 35.875 -43.734375 36.359375 -43.828125 37.328125 -43.828125 C 38.003906 -43.828125 38.410156 -43.875 38.546875 -43.96875 C 38.691406 -44.070312 38.765625 -44.460938 38.765625 -45.140625 C 38.765625 -46.203125 39.347656 -48.226562 40.515625 -51.21875 C 41.765625 -54.882812 42.390625 -57.296875 42.390625 -58.453125 Z M 42.390625 -58.453125 "/></g></g></g><g fill="#ffea93" fill-opacity="1"><g transform="translate(183.094405, 364.111733)"><g><path d="M 72.921875 -111.96875 C 73.691406 -113.132812 74.410156 -113.378906 75.078125 -112.703125 C 75.460938 -112.503906 76.625 -112.066406 78.5625 -111.390625 C 83.664062 -109.753906 86.992188 -107.78125 88.546875 -105.46875 C 89.023438 -104.789062 89.019531 -103.96875 88.53125 -103 C 88.050781 -102.039062 87.832031 -98.570312 87.875 -92.59375 C 87.925781 -86.613281 88.003906 -83.570312 88.109375 -83.46875 C 88.296875 -83.28125 88.921875 -83.234375 89.984375 -83.328125 C 91.046875 -83.421875 91.671875 -83.566406 91.859375 -83.765625 C 92.640625 -84.347656 94.304688 -84.300781 96.859375 -83.625 C 99.410156 -82.945312 101.363281 -82.078125 102.71875 -81.015625 C 104.738281 -79.273438 105.460938 -77.585938 104.890625 -75.953125 C 104.597656 -75.179688 103.921875 -74.890625 102.859375 -75.078125 C 102.285156 -75.367188 101.585938 -75.273438 100.765625 -74.796875 C 99.941406 -74.316406 99.335938 -74.078125 98.953125 -74.078125 C 98.566406 -74.078125 96.925781 -73.398438 94.03125 -72.046875 C 91.144531 -70.691406 89.554688 -70.015625 89.265625 -70.015625 C 89.066406 -70.015625 88.921875 -69.847656 88.828125 -69.515625 C 88.734375 -69.179688 88.640625 -67.804688 88.546875 -65.390625 C 88.441406 -62.785156 88.609375 -61.410156 89.046875 -61.265625 C 89.484375 -61.117188 89.867188 -61.210938 90.203125 -61.546875 C 90.535156 -61.890625 90.894531 -62.0625 91.28125 -62.0625 C 91.664062 -62.0625 92.25 -62.207031 93.03125 -62.5 C 96.6875 -64.132812 99.484375 -65.144531 101.421875 -65.53125 C 102.671875 -65.726562 103.34375 -66.113281 103.4375 -66.6875 C 103.53125 -67.070312 103.796875 -67.289062 104.234375 -67.34375 C 104.671875 -67.394531 105.898438 -67.367188 107.921875 -67.265625 C 110.617188 -67.078125 112.066406 -66.835938 112.265625 -66.546875 C 112.460938 -66.253906 113.160156 -66.035156 114.359375 -65.890625 C 115.566406 -65.753906 116.171875 -65.492188 116.171875 -65.109375 C 116.171875 -64.722656 116.460938 -64.332031 117.046875 -63.9375 C 117.617188 -63.75 118.722656 -62.929688 120.359375 -61.484375 C 122.003906 -60.035156 122.828125 -59.21875 122.828125 -59.03125 C 122.828125 -58.644531 122.535156 -58.453125 121.953125 -58.453125 C 121.085938 -58.453125 120.894531 -58.113281 121.375 -57.4375 C 121.570312 -57.144531 121.957031 -56.953125 122.53125 -56.859375 C 123.113281 -56.660156 123.285156 -56.320312 123.046875 -55.84375 C 122.804688 -55.363281 122.539062 -55.21875 122.25 -55.40625 C 121.570312 -55.601562 119.375 -55.191406 115.65625 -54.171875 C 111.945312 -53.160156 108.066406 -51.882812 104.015625 -50.34375 C 99.960938 -48.800781 97.210938 -47.882812 95.765625 -47.59375 C 94.328125 -47.300781 92.882812 -46.769531 91.4375 -46 L 89.265625 -45 L 89.546875 -41.234375 C 89.648438 -38.628906 89.820312 -37.0625 90.0625 -36.53125 C 90.300781 -36 91.796875 -35.320312 94.546875 -34.5 C 97.296875 -33.6875 99.34375 -33.132812 100.6875 -32.84375 C 104.738281 -32.164062 107.394531 -31.441406 108.65625 -30.671875 C 109.320312 -30.285156 110.332031 -29.851562 111.6875 -29.375 C 113.8125 -28.695312 116.34375 -27.390625 119.28125 -25.453125 C 122.21875 -23.523438 124.847656 -21.453125 127.171875 -19.234375 C 127.941406 -18.460938 128.734375 -17.5 129.546875 -16.34375 C 130.367188 -15.1875 130.78125 -14.414062 130.78125 -14.03125 C 130.78125 -13.738281 131.117188 -13.015625 131.796875 -11.859375 C 132.378906 -10.796875 132.425781 -10.265625 131.9375 -10.265625 C 131.457031 -10.265625 131.3125 -9.953125 131.5 -9.328125 C 131.695312 -8.703125 132.035156 -8.097656 132.515625 -7.515625 C 133.003906 -7.035156 133.054688 -6.796875 132.671875 -6.796875 C 132.472656 -6.703125 131.941406 -6.847656 131.078125 -7.234375 C 129.921875 -7.910156 129.097656 -8.296875 128.609375 -8.390625 C 128.128906 -8.484375 127.429688 -8.722656 126.515625 -9.109375 C 125.597656 -9.492188 124.847656 -9.6875 124.265625 -9.6875 C 123.691406 -9.6875 121.453125 -10.554688 117.546875 -12.296875 C 113.640625 -14.035156 110.722656 -15.265625 108.796875 -15.984375 C 106.867188 -16.710938 105.492188 -17.242188 104.671875 -17.578125 C 103.847656 -17.910156 102.472656 -18.414062 100.546875 -19.09375 L 94.46875 -21.5625 C 92.25 -22.425781 91.019531 -22.859375 90.78125 -22.859375 C 90.539062 -22.859375 90.515625 -20.785156 90.703125 -16.640625 C 91.285156 -0.046875 91.285156 9.5 90.703125 12 C 90.421875 13.832031 90.375 14.867188 90.5625 15.109375 C 90.757812 15.359375 90.664062 15.84375 90.28125 16.5625 C 89.894531 17.289062 89.601562 18.90625 89.40625 21.40625 C 89.21875 24.59375 88.878906 26.1875 88.390625 26.1875 C 88.097656 26.1875 87.566406 25.460938 86.796875 24.015625 C 86.023438 22.566406 85.445312 21.890625 85.0625 21.984375 C 84.96875 21.984375 84.875 21.9375 84.78125 21.84375 C 84.6875 21.75 84.640625 21.601562 84.640625 21.40625 C 84.640625 20.832031 84.179688 20.0625 83.265625 19.09375 C 82.347656 18.132812 81.625 17.125 81.09375 16.0625 C 80.5625 15 80.003906 14.441406 79.421875 14.390625 C 78.847656 14.347656 78.5625 13.988281 78.5625 13.3125 C 78.457031 12.832031 77.972656 12.132812 77.109375 11.21875 C 76.242188 10.300781 75.617188 9.984375 75.234375 10.265625 C 75.128906 10.367188 74.425781 9.71875 73.125 8.3125 C 71.820312 6.914062 71.171875 6.070312 71.171875 5.78125 C 71.171875 5.5 70.785156 4.875 70.015625 3.90625 C 69.148438 2.9375 68.691406 2.210938 68.640625 1.734375 C 68.597656 1.253906 68.960938 0.820312 69.734375 0.4375 C 70.410156 -0.0507812 71.082031 -0.0976562 71.75 0.296875 C 75.519531 2.703125 77.40625 3.472656 77.40625 2.609375 C 77.40625 2.316406 77.691406 0.335938 78.265625 -3.328125 C 78.554688 -5.160156 78.796875 -7.835938 78.984375 -11.359375 C 79.179688 -14.878906 79.253906 -18.015625 79.203125 -20.765625 C 79.160156 -23.515625 78.992188 -24.890625 78.703125 -24.890625 C 78.503906 -24.890625 78.113281 -24.5 77.53125 -23.71875 C 76.957031 -22.945312 76.671875 -22.414062 76.671875 -22.125 C 76.671875 -21.84375 76.40625 -21.554688 75.875 -21.265625 C 75.34375 -20.972656 73.875 -19.238281 71.46875 -16.0625 C 68.28125 -11.71875 65.046875 -7.804688 61.765625 -4.328125 C 58.492188 -0.859375 56.28125 1.066406 55.125 1.453125 C 54.539062 1.640625 54.203125 1.707031 54.109375 1.65625 C 54.015625 1.613281 53.96875 1.300781 53.96875 0.71875 C 53.96875 -1.6875 53.675781 -3.660156 53.09375 -5.203125 C 52.800781 -6.265625 52.800781 -7.59375 53.09375 -9.1875 C 53.382812 -10.78125 53.769531 -11.769531 54.25 -12.15625 C 54.632812 -12.34375 54.828125 -12.628906 54.828125 -13.015625 C 54.828125 -13.398438 55.066406 -13.859375 55.546875 -14.390625 C 56.035156 -14.921875 56.472656 -15.1875 56.859375 -15.1875 C 57.335938 -15.1875 57.484375 -15.671875 57.296875 -16.640625 C 57.296875 -16.734375 57.34375 -16.800781 57.4375 -16.84375 C 57.53125 -16.894531 57.675781 -16.921875 57.875 -16.921875 C 58.257812 -16.921875 58.8125 -17.304688 59.53125 -18.078125 C 60.257812 -18.847656 60.550781 -19.351562 60.40625 -19.59375 C 60.257812 -19.84375 60.765625 -20.546875 61.921875 -21.703125 C 63.753906 -23.535156 65.25 -25.316406 66.40625 -27.046875 C 71.226562 -33.804688 73.925781 -37.8125 74.5 -39.0625 C 74.789062 -39.925781 72.769531 -39.347656 68.4375 -37.328125 C 66.882812 -36.554688 65.675781 -35.925781 64.8125 -35.4375 C 63.5625 -34.570312 61.96875 -34.71875 60.03125 -35.875 C 59.164062 -36.457031 58.421875 -36.867188 57.796875 -37.109375 C 57.171875 -37.347656 56.28125 -38 55.125 -39.0625 C 52.800781 -41.082031 51.207031 -41.035156 50.34375 -38.921875 C 49.863281 -37.859375 49.816406 -37.226562 50.203125 -37.03125 C 51.066406 -36.164062 50.773438 -35.539062 49.328125 -35.15625 C 48.554688 -34.957031 48.171875 -34.738281 48.171875 -34.5 C 48.171875 -34.257812 47.804688 -34.019531 47.078125 -33.78125 C 46.359375 -33.539062 46 -33.15625 46 -32.625 C 46 -32.09375 45.664062 -32.164062 45 -32.84375 L 43.984375 -33.703125 L 38.484375 -31.828125 C 34.722656 -30.671875 32.578125 -30.09375 32.046875 -30.09375 C 31.515625 -30.09375 31.296875 -29.800781 31.390625 -29.21875 C 31.484375 -28.9375 31.554688 -27.925781 31.609375 -26.1875 C 31.660156 -24.445312 31.6875 -23.097656 31.6875 -22.140625 C 31.582031 -21.265625 31.628906 -20.585938 31.828125 -20.109375 L 30.8125 -20.6875 C 30.332031 -21.070312 29.800781 -21.554688 29.21875 -22.140625 C 27.101562 -24.066406 25.65625 -25.242188 24.875 -25.671875 C 24.101562 -26.109375 23.71875 -26.492188 23.71875 -26.828125 C 23.71875 -27.171875 23.359375 -27.507812 22.640625 -27.84375 C 21.921875 -28.1875 21.5625 -28.691406 21.5625 -29.359375 C 21.5625 -30.035156 21.316406 -30.953125 20.828125 -32.109375 C 19.960938 -34.328125 19.097656 -38.765625 18.234375 -45.421875 C 17.265625 -53.234375 16.15625 -58.828125 14.90625 -62.203125 C 14.320312 -63.648438 13.597656 -64.757812 12.734375 -65.53125 C 12.148438 -65.914062 11.832031 -66.226562 11.78125 -66.46875 C 11.738281 -66.71875 11.863281 -67.175781 12.15625 -67.84375 C 12.632812 -68.71875 13.1875 -69.082031 13.8125 -68.9375 C 14.4375 -68.789062 15.8125 -68.425781 17.9375 -67.84375 C 21.40625 -66.976562 23.332031 -66.066406 23.71875 -65.109375 C 24.007812 -64.722656 24.347656 -64.53125 24.734375 -64.53125 C 25.023438 -64.53125 26.28125 -64.9375 28.5 -65.75 C 30.71875 -66.570312 32.210938 -67.128906 32.984375 -67.421875 C 35.296875 -68.765625 37.804688 -69.4375 40.515625 -69.4375 C 41.566406 -69.4375 42.238281 -69.628906 42.53125 -70.015625 C 42.625 -70.304688 43.347656 -70.40625 44.703125 -70.3125 C 46.054688 -70.21875 47.117188 -69.925781 47.890625 -69.4375 C 48.953125 -68.957031 49.578125 -68.71875 49.765625 -68.71875 C 50.148438 -68.71875 50.894531 -68.234375 52 -67.265625 C 53.113281 -66.304688 53.71875 -65.585938 53.8125 -65.109375 C 53.914062 -64.722656 54.6875 -63.945312 56.125 -62.78125 C 58.832031 -60.664062 59.703125 -59.125 58.734375 -58.15625 C 58.347656 -57.675781 58.15625 -57.050781 58.15625 -56.28125 C 58.15625 -55.507812 58.007812 -55.050781 57.71875 -54.90625 C 57.4375 -54.757812 56.882812 -53.769531 56.0625 -51.9375 C 55.238281 -50.101562 54.734375 -48.800781 54.546875 -48.03125 C 54.347656 -47.257812 54.441406 -46.875 54.828125 -46.875 C 55.597656 -46.875 59.070312 -48.269531 65.25 -51.0625 C 67.082031 -51.9375 68.769531 -52.640625 70.3125 -53.171875 C 71.851562 -53.703125 72.769531 -54.085938 73.0625 -54.328125 C 73.351562 -54.566406 74.242188 -54.925781 75.734375 -55.40625 C 77.234375 -55.882812 78.078125 -56.269531 78.265625 -56.5625 C 78.460938 -56.851562 78.507812 -58.253906 78.40625 -60.765625 C 78.21875 -62.878906 77.976562 -64.054688 77.6875 -64.296875 C 77.394531 -64.546875 76.191406 -64.476562 74.078125 -64.09375 C 72.335938 -63.800781 70.625 -63.894531 68.9375 -64.375 C 67.25 -64.863281 64.910156 -66.019531 61.921875 -67.84375 C 59.222656 -69.488281 57.875 -70.597656 57.875 -71.171875 C 57.875 -71.367188 57.679688 -71.515625 57.296875 -71.609375 C 56.910156 -71.703125 56.910156 -72.015625 57.296875 -72.546875 C 57.679688 -73.078125 58.453125 -73.34375 59.609375 -73.34375 C 61.828125 -73.34375 64.625 -74.066406 68 -75.515625 C 68.863281 -75.898438 70.257812 -76.453125 72.1875 -77.171875 C 74.113281 -77.898438 75.660156 -78.554688 76.828125 -79.140625 C 77.597656 -79.421875 78.003906 -79.753906 78.046875 -80.140625 C 78.097656 -80.535156 77.929688 -82.421875 77.546875 -85.796875 C 77.453125 -87.140625 77.304688 -89.359375 77.109375 -92.453125 C 76.335938 -101.128906 75.519531 -106.332031 74.65625 -108.0625 C 74.164062 -108.9375 73.585938 -109.613281 72.921875 -110.09375 L 71.90625 -110.671875 Z M 42.390625 -58.453125 C 42.191406 -58.835938 41.46875 -58.785156 40.21875 -58.296875 C 39.738281 -58.203125 38.96875 -58.007812 37.90625 -57.71875 C 35.300781 -56.757812 33.082031 -56.28125 31.25 -56.28125 L 28.359375 -56.28125 L 28.5 -54.96875 C 28.695312 -54.101562 28.988281 -53.382812 29.375 -52.8125 C 29.65625 -52.320312 29.960938 -51.015625 30.296875 -48.890625 C 30.640625 -46.773438 30.738281 -45.398438 30.59375 -44.765625 C 30.445312 -44.140625 30.519531 -43.753906 30.8125 -43.609375 C 31.101562 -43.472656 31.25 -43.113281 31.25 -42.53125 C 31.25 -41.957031 31.394531 -41.671875 31.6875 -41.671875 C 31.96875 -41.671875 32.734375 -41.929688 33.984375 -42.453125 C 35.242188 -42.984375 35.875 -43.347656 35.875 -43.546875 C 35.875 -43.734375 36.359375 -43.828125 37.328125 -43.828125 C 38.003906 -43.828125 38.410156 -43.875 38.546875 -43.96875 C 38.691406 -44.070312 38.765625 -44.460938 38.765625 -45.140625 C 38.765625 -46.203125 39.347656 -48.226562 40.515625 -51.21875 C 41.765625 -54.882812 42.390625 -57.296875 42.390625 -58.453125 Z M 42.390625 -58.453125 "/></g></g></g></svg>