<svg xmlns="http://www.w3.org/2000/svg" xmlns:xlink="http://www.w3.org/1999/xlink" width="440" zoomAndPan="magnify" viewBox="0 0 330 510.750002" height="681" preserveAspectRatio="xMidYMid meet" version="1.0"><defs><g/><clipPath id="4bd137b2b3"><path d="M 0.0820312 0 L 329.917969 0 L 329.917969 510.5 L 0.0820312 510.5 Z M 0.0820312 0 " clip-rule="nonzero"/></clipPath><clipPath id="d73e7eb398"><path d="M 190 180.683594 L 253 180.683594 L 253 236 L 190 236 Z M 190 180.683594 " clip-rule="nonzero"/></clipPath><clipPath id="ecf9fb7e02"><path d="M 75.550781 241 L 134 241 L 134 257 L 75.550781 257 Z M 75.550781 241 " clip-rule="nonzero"/></clipPath><clipPath id="b23e86c0c4"><path d="M 86 180.683594 L 254.710938 180.683594 L 254.710938 350 L 86 350 Z M 86 180.683594 " clip-rule="nonzero"/></clipPath><clipPath id="52bf565ea0"><path d="M 117 322 L 147 322 L 147 360.597656 L 117 360.597656 Z M 117 322 " clip-rule="nonzero"/></clipPath></defs><g clip-path="url(#4bd137b2b3)"><path fill="#ffffff" d="M 0.0820312 0 L 329.917969 0 L 329.917969 517.246094 L 0.0820312 517.246094 Z M 0.0820312 0 " fill-opacity="1" fill-rule="nonzero"/><path fill="#ffffff" d="M 0.0820312 0 L 329.917969 0 L 329.917969 510.5 L 0.0820312 510.5 Z M 0.0820312 0 " fill-opacity="1" fill-rule="nonzero"/></g><path fill="#14385a" d="M 235.675781 247.007812 C 236.074219 247.402344 236.417969 247.824219 236.710938 248.269531 C 237.003906 248.714844 237.21875 249.144531 237.359375 249.566406 C 237.5 249.992188 237.554688 250.371094 237.523438 250.707031 C 237.492188 251.042969 237.378906 251.308594 237.179688 251.507812 C 236.980469 251.707031 236.710938 251.824219 236.375 251.855469 C 236.039062 251.886719 235.660156 251.832031 235.234375 251.691406 C 234.8125 251.550781 234.378906 251.332031 233.933594 251.042969 C 233.488281 250.75 233.070312 250.40625 232.671875 250.007812 C 232.273438 249.609375 231.925781 249.1875 231.632812 248.746094 C 231.34375 248.300781 231.125 247.867188 230.984375 247.445312 C 230.84375 247.023438 230.789062 246.644531 230.820312 246.308594 C 230.851562 245.972656 230.96875 245.703125 231.167969 245.503906 C 231.367188 245.304688 231.632812 245.191406 231.972656 245.160156 C 232.308594 245.128906 232.6875 245.183594 233.109375 245.324219 C 233.53125 245.464844 233.964844 245.679688 234.410156 245.972656 C 234.855469 246.261719 235.277344 246.609375 235.675781 247.007812 Z M 235.675781 247.007812 " fill-opacity="1" fill-rule="nonzero"/><path fill="#14385a" d="M 183.746094 229.28125 C 184.144531 229.679688 184.488281 230.101562 184.78125 230.542969 C 185.074219 230.988281 185.289062 231.421875 185.429688 231.84375 C 185.570312 232.265625 185.625 232.644531 185.59375 232.980469 C 185.5625 233.316406 185.445312 233.585938 185.246094 233.785156 C 185.046875 233.984375 184.78125 234.097656 184.445312 234.128906 C 184.105469 234.160156 183.726562 234.105469 183.304688 233.964844 C 182.882812 233.824219 182.449219 233.609375 182.003906 233.316406 C 181.558594 233.027344 181.136719 232.679688 180.738281 232.285156 C 180.339844 231.886719 179.996094 231.464844 179.703125 231.019531 C 179.410156 230.578125 179.195312 230.144531 179.054688 229.722656 C 178.914062 229.300781 178.859375 228.917969 178.890625 228.582031 C 178.921875 228.246094 179.039062 227.980469 179.238281 227.78125 C 179.4375 227.582031 179.703125 227.464844 180.039062 227.433594 C 180.375 227.402344 180.757812 227.457031 181.179688 227.597656 C 181.601562 227.738281 182.035156 227.957031 182.480469 228.246094 C 182.925781 228.539062 183.347656 228.882812 183.746094 229.28125 Z M 183.746094 229.28125 " fill-opacity="1" fill-rule="nonzero"/><path fill="#14385a" d="M 138.5625 300.304688 L 119.542969 299.984375 L 113.589844 306.140625 L 120.179688 312.402344 L 129.851562 311.871094 Z M 138.5625 300.304688 " fill-opacity="1" fill-rule="nonzero"/><path fill="#f6be5b" d="M 236.859375 289.265625 L 233.03125 284.703125 L 234.628906 279.078125 L 229.207031 281.199219 L 224.320312 278.015625 L 224.636719 283.855469 L 220.601562 287.144531 L 220.070312 287.460938 L 221.769531 287.886719 L 225.808594 288.949219 L 226.65625 291.175781 L 228.890625 292.769531 L 230.90625 289.476562 Z M 236.859375 289.265625 " fill-opacity="1" fill-rule="nonzero"/><path fill="#f6be5b" d="M 140.265625 249.257812 L 134.84375 246.816406 L 133.996094 241.507812 L 133.355469 241.617188 L 129.851562 245.328125 L 124.003906 244.480469 L 126.875 249.574219 L 124.324219 254.882812 L 130.0625 253.714844 L 132.507812 256.046875 L 134.417969 256.367188 L 134.949219 252.015625 Z M 140.265625 249.257812 " fill-opacity="1" fill-rule="nonzero"/><g clip-path="url(#d73e7eb398)"><path fill="#2b597f" d="M 252.691406 180.804688 C 252.691406 180.804688 249.292969 180.273438 243.445312 181.441406 C 237.601562 182.609375 233.246094 188.128906 226.550781 193.859375 C 221.023438 198.527344 198.601562 225.378906 190.738281 235.035156 L 192.863281 234.824219 C 220.492188 203.09375 245.574219 180.59375 252.691406 180.804688 Z M 252.691406 180.804688 " fill-opacity="1" fill-rule="nonzero"/></g><path fill="#2b597f" d="M 136.332031 319.722656 C 136.121094 319.511719 135.90625 319.300781 135.800781 318.980469 C 133.78125 313.675781 147.171875 291.496094 168.425781 264.21875 L 167.574219 263.796875 L 138.5625 300.304688 L 129.957031 311.871094 L 132.1875 311.765625 L 124.960938 322.269531 L 123.582031 322.058594 L 122.09375 325.242188 L 122.199219 327.578125 L 123.367188 327.578125 C 123.367188 327.578125 126.554688 325.984375 130.167969 324.289062 C 133.570312 322.695312 137.289062 320.890625 139.203125 320.042969 C 137.925781 320.359375 136.863281 320.253906 136.332031 319.722656 Z M 136.332031 319.722656 " fill-opacity="1" fill-rule="nonzero"/><path fill="#2b597f" d="M 182.132812 255.304688 C 181.386719 256.367188 180.964844 257.429688 180.75 258.59375 C 180.21875 260.824219 180.644531 262.839844 182.027344 263.796875 C 182.984375 264.433594 184.363281 264.433594 185.640625 264.007812 C 187.125 263.476562 188.613281 262.203125 189.675781 260.507812 C 190.421875 259.445312 190.847656 258.277344 191.164062 257.109375 C 191.589844 254.988281 191.164062 253.078125 189.785156 252.121094 C 188.722656 251.378906 187.339844 251.484375 185.957031 252.015625 C 184.683594 252.441406 183.300781 253.609375 182.132812 255.304688 Z M 185.214844 252.972656 C 186.0625 252.652344 186.914062 252.652344 187.445312 253.078125 C 188.722656 253.925781 188.722656 256.261719 187.339844 258.277344 C 185.957031 260.292969 183.832031 261.25 182.558594 260.292969 C 181.707031 259.761719 181.386719 258.488281 181.707031 257.214844 C 181.8125 256.472656 182.132812 255.835938 182.558594 255.09375 C 183.40625 254.136719 184.257812 253.394531 185.214844 252.972656 Z M 185.214844 252.972656 " fill-opacity="1" fill-rule="nonzero"/><path fill="#2b597f" d="M 200.410156 266.238281 C 201.578125 264.539062 202.003906 262.628906 201.792969 261.144531 C 201.683594 260.507812 201.472656 259.871094 201.152344 259.445312 C 200.941406 259.125 200.730469 258.914062 200.410156 258.703125 C 198.496094 257.429688 195.414062 258.808594 193.503906 261.671875 C 191.589844 264.539062 191.484375 267.933594 193.394531 269.207031 C 193.609375 269.3125 193.929688 269.527344 194.140625 269.527344 C 194.246094 269.527344 194.351562 269.527344 194.351562 269.632812 C 196.371094 269.949219 198.816406 268.675781 200.410156 266.238281 Z M 194.035156 266.238281 C 192.863281 265.492188 192.863281 263.371094 194.035156 261.566406 C 195.203125 259.761719 197.117188 258.914062 198.285156 259.761719 C 199.027344 260.292969 199.347656 261.355469 199.027344 262.523438 C 198.921875 263.160156 198.601562 263.796875 198.179688 264.433594 C 197.753906 265.070312 197.222656 265.601562 196.585938 266.023438 C 195.734375 266.554688 194.777344 266.660156 194.035156 266.238281 Z M 194.035156 266.238281 " fill-opacity="1" fill-rule="nonzero"/><path fill="#7a9db6" d="M 140.582031 319.40625 C 140.050781 319.617188 139.625 319.832031 139.203125 319.9375 C 137.289062 320.785156 133.464844 322.589844 130.167969 324.179688 L 135.375 327.152344 L 141.113281 319.195312 C 140.902344 319.300781 140.6875 319.40625 140.582031 319.40625 Z M 140.582031 319.40625 " fill-opacity="1" fill-rule="nonzero"/><path fill="#7a9db6" d="M 147.171875 334.050781 L 149.507812 328.109375 L 146.109375 323.121094 L 140.6875 330.335938 Z M 147.171875 334.050781 " fill-opacity="1" fill-rule="nonzero"/><path fill="#7a9db6" d="M 135.90625 327.578125 L 139.945312 329.914062 L 145.363281 322.269531 L 145.578125 322.378906 L 142.921875 318.34375 Z M 135.90625 327.578125 " fill-opacity="1" fill-rule="nonzero"/><path fill="#7a9db6" d="M 220.492188 254.5625 L 215.074219 245.328125 C 211.675781 249.574219 208.0625 253.925781 204.339844 258.277344 C 203.492188 259.234375 202.746094 260.1875 201.898438 261.144531 C 202.109375 262.628906 201.578125 264.539062 200.515625 266.238281 C 198.921875 268.675781 196.476562 269.949219 194.566406 269.632812 C 194.140625 270.058594 193.714844 270.589844 193.289062 271.011719 L 192.015625 272.921875 L 202.535156 275.152344 L 210.398438 264.328125 L 211.460938 264.855469 L 203.386719 275.46875 L 220.707031 287.144531 L 224.851562 283.855469 L 224.425781 278.015625 L 229.3125 281.304688 L 234.734375 279.078125 L 233.140625 284.703125 L 236.964844 289.265625 L 231.121094 289.476562 L 229.101562 292.769531 L 232.714844 295.210938 L 235.160156 291.917969 L 236.222656 292.449219 L 233.671875 295.847656 L 236.753906 297.96875 L 237.707031 296.589844 L 238.773438 297.121094 L 237.707031 298.5 L 240.367188 300.304688 L 244.828125 295.527344 L 225.277344 262.203125 Z M 220.492188 254.5625 " fill-opacity="1" fill-rule="nonzero"/><path fill="#7a9db6" d="M 221.769531 287.886719 L 226.65625 291.175781 L 225.808594 288.949219 Z M 221.769531 287.886719 " fill-opacity="1" fill-rule="nonzero"/><path fill="#7a9db6" d="M 112.636719 312.824219 L 112.847656 312.933594 L 107.429688 320.042969 L 111.785156 320.574219 L 117.628906 312.613281 Z M 112.636719 312.824219 " fill-opacity="1" fill-rule="nonzero"/><path fill="#7a9db6" d="M 132.1875 311.660156 L 129.851562 311.871094 L 120.179688 312.402344 L 117.949219 312.507812 L 118.796875 312.933594 L 112.847656 320.785156 L 123.472656 322.058594 L 124.855469 322.269531 Z M 132.1875 311.660156 " fill-opacity="1" fill-rule="nonzero"/><path fill="#7a9db6" d="M 101.160156 313.570312 L 93.507812 318.34375 L 106.367188 319.9375 L 111.464844 312.933594 Z M 101.160156 313.570312 " fill-opacity="1" fill-rule="nonzero"/><g clip-path="url(#ecf9fb7e02)"><path fill="#7a9db6" d="M 124.324219 254.882812 L 126.875 249.574219 L 124.003906 244.480469 L 129.851562 245.328125 L 133.355469 241.617188 L 86.496094 243.738281 L 83.304688 244.585938 L 76.398438 244.585938 L 75.550781 246.179688 L 80.332031 249.042969 L 104.558594 252.335938 L 108.171875 247.347656 L 109.128906 247.878906 L 105.726562 252.441406 L 110.617188 253.078125 L 114.761719 247.347656 L 115.824219 247.878906 L 111.785156 253.289062 L 132.507812 256.046875 L 130.0625 253.714844 Z M 124.324219 254.882812 " fill-opacity="1" fill-rule="nonzero"/></g><path fill="#7a9db6" d="M 174.054688 266.875 L 180.75 258.488281 C 180.964844 257.429688 181.496094 256.261719 182.132812 255.199219 C 183.195312 253.609375 184.683594 252.335938 186.0625 251.804688 L 200.410156 234.082031 L 191.910156 238.855469 L 189.039062 238.960938 L 187.234375 239.070312 L 182.453125 239.28125 L 171.613281 239.8125 L 133.996094 241.507812 L 134.84375 246.710938 L 140.15625 249.152344 L 134.949219 251.910156 L 134.417969 256.261719 L 158.542969 259.550781 L 162.472656 261.355469 L 170.335938 250.425781 L 171.398438 250.953125 L 163.21875 261.78125 L 167.46875 263.796875 L 168.316406 264.21875 Z M 174.054688 266.875 " fill-opacity="1" fill-rule="nonzero"/><path fill="#7a9db6" d="M 181.8125 257.214844 C 181.496094 258.488281 181.8125 259.761719 182.664062 260.292969 C 183.9375 261.144531 186.171875 260.292969 187.445312 258.277344 C 188.722656 256.261719 188.828125 253.925781 187.550781 253.078125 C 186.914062 252.652344 186.0625 252.652344 185.320312 252.972656 C 184.363281 253.289062 183.515625 254.03125 182.769531 255.09375 C 182.238281 255.835938 181.917969 256.578125 181.8125 257.214844 Z M 181.8125 257.214844 " fill-opacity="1" fill-rule="nonzero"/><path fill="#7a9db6" d="M 196.691406 265.917969 C 197.222656 265.601562 197.859375 265.070312 198.285156 264.328125 C 198.710938 263.691406 198.921875 263.054688 199.132812 262.417969 C 199.347656 261.25 199.132812 260.1875 198.390625 259.65625 C 197.222656 258.914062 195.308594 259.65625 194.140625 261.460938 C 192.972656 263.265625 192.972656 265.386719 194.140625 266.128906 C 194.777344 266.660156 195.734375 266.554688 196.691406 265.917969 Z M 196.691406 265.917969 " fill-opacity="1" fill-rule="nonzero"/><g clip-path="url(#b23e86c0c4)"><path fill="#f7f1d8" d="M 230.589844 260.929688 L 236.964844 254.5625 C 238.984375 252.546875 238.984375 249.152344 236.964844 247.027344 L 235.691406 245.753906 C 233.671875 243.738281 230.269531 243.738281 228.144531 245.753906 L 221.769531 252.121094 C 221.554688 252.335938 221.34375 252.546875 221.238281 252.757812 L 216.03125 243.949219 C 241.960938 211.792969 258.324219 185.050781 253.96875 181.230469 C 253.648438 180.910156 253.222656 180.804688 252.691406 180.804688 C 245.574219 180.488281 220.601562 203.09375 192.863281 234.71875 L 190.738281 234.929688 L 186.277344 235.355469 C 187.445312 233.335938 187.234375 230.683594 185.425781 228.878906 L 184.152344 227.605469 C 182.132812 225.589844 178.730469 225.589844 176.605469 227.605469 L 171.71875 232.488281 C 170.550781 233.65625 170.125 235.140625 170.230469 236.628906 L 86.601562 243.632812 L 133.464844 241.507812 L 134.101562 241.507812 L 171.613281 239.8125 L 182.453125 239.28125 L 187.234375 239.070312 L 189.039062 238.960938 L 191.910156 238.855469 L 200.410156 234.082031 L 186.0625 251.910156 C 187.445312 251.378906 188.828125 251.378906 189.890625 252.015625 C 191.269531 252.972656 191.695312 254.882812 191.269531 257.003906 C 191.058594 258.171875 190.527344 259.339844 189.785156 260.398438 C 188.613281 262.097656 187.125 263.265625 185.746094 263.902344 C 184.363281 264.433594 183.089844 264.433594 182.132812 263.691406 C 180.75 262.734375 180.324219 260.71875 180.855469 258.488281 L 174.164062 266.875 L 168.53125 264.21875 C 147.277344 291.496094 133.886719 313.675781 135.90625 318.980469 C 136.011719 319.300781 136.226562 319.617188 136.4375 319.722656 C 137.074219 320.253906 138.03125 320.253906 139.308594 319.9375 C 139.734375 319.832031 140.15625 319.617188 140.6875 319.40625 C 140.796875 319.300781 141.007812 319.300781 141.113281 319.195312 L 135.375 327.152344 L 119.4375 349.332031 L 135.90625 327.472656 L 142.921875 318.238281 C 152.910156 312.613281 172.039062 294.679688 193.289062 270.90625 C 193.714844 270.480469 194.140625 269.949219 194.566406 269.527344 C 194.460938 269.527344 194.351562 269.527344 194.351562 269.421875 C 194.140625 269.3125 193.820312 269.207031 193.609375 269.101562 C 191.695312 267.828125 191.800781 264.433594 193.714844 261.566406 C 195.628906 258.703125 198.710938 257.320312 200.621094 258.59375 C 200.941406 258.808594 201.152344 259.019531 201.367188 259.339844 C 201.683594 259.761719 201.898438 260.398438 202.003906 261.035156 C 202.855469 260.082031 203.597656 259.125 204.449219 258.171875 C 208.167969 253.820312 211.78125 249.46875 215.179688 245.222656 L 220.601562 254.457031 L 225.0625 262.097656 L 244.617188 295.421875 L 245.679688 294.359375 L 226.976562 262.417969 C 228.25 262.523438 229.527344 261.992188 230.589844 260.929688 Z M 231.226562 245.542969 C 232.078125 244.691406 234.097656 245.328125 235.796875 247.027344 C 237.496094 248.726562 238.132812 250.742188 237.285156 251.589844 C 236.433594 252.441406 234.414062 251.804688 232.714844 250.105469 C 231.015625 248.40625 230.375 246.390625 231.226562 245.542969 Z M 185.214844 233.761719 C 184.363281 234.609375 182.34375 233.972656 180.644531 232.277344 C 178.945312 230.578125 178.308594 228.5625 179.15625 227.714844 C 180.007812 226.863281 182.027344 227.5 183.726562 229.199219 C 185.425781 230.898438 186.0625 232.914062 185.214844 233.761719 Z M 185.214844 233.761719 " fill-opacity="1" fill-rule="nonzero"/></g><path fill="#f7f1d8" d="M 104.558594 252.335938 L 80.542969 285.65625 L 105.726562 252.441406 L 109.128906 247.878906 L 108.171875 247.347656 Z M 104.558594 252.335938 " fill-opacity="1" fill-rule="nonzero"/><path fill="#f7f1d8" d="M 111.785156 253.289062 L 115.824219 247.878906 L 114.761719 247.347656 L 110.617188 253.078125 L 87.238281 285.65625 Z M 111.785156 253.289062 " fill-opacity="1" fill-rule="nonzero"/><path fill="#f7f1d8" d="M 170.441406 250.53125 L 162.472656 261.460938 L 142.816406 288.839844 L 163.324219 261.78125 L 171.398438 251.0625 Z M 170.441406 250.53125 " fill-opacity="1" fill-rule="nonzero"/><path fill="#f7f1d8" d="M 210.292969 264.21875 L 202.429688 275.046875 L 182.664062 302.53125 L 203.277344 275.363281 L 211.25 264.75 Z M 210.292969 264.21875 " fill-opacity="1" fill-rule="nonzero"/><path fill="#f7f1d8" d="M 236.007812 292.449219 L 234.945312 291.8125 L 232.5 295.210938 L 207.316406 330.230469 L 233.351562 295.738281 Z M 236.007812 292.449219 " fill-opacity="1" fill-rule="nonzero"/><path fill="#f7f1d8" d="M 236.433594 297.863281 L 209.867188 334.792969 L 237.390625 298.5 L 238.453125 297.011719 L 237.496094 296.484375 Z M 236.433594 297.863281 " fill-opacity="1" fill-rule="nonzero"/><g clip-path="url(#52bf565ea0)"><path fill="#f7f1d8" d="M 145.363281 322.269531 L 139.945312 329.914062 L 117.84375 360.582031 L 140.6875 330.335938 L 146.109375 323.121094 L 146.425781 322.800781 L 145.578125 322.378906 Z M 145.363281 322.269531 " fill-opacity="1" fill-rule="nonzero"/></g><path fill="#f7f1d8" d="M 117.949219 312.507812 L 117.734375 312.402344 L 117.628906 312.613281 L 111.785156 320.574219 L 90.105469 350.710938 L 112.847656 320.785156 L 118.796875 312.933594 Z M 117.949219 312.507812 " fill-opacity="1" fill-rule="nonzero"/><path fill="#f7f1d8" d="M 112.847656 312.933594 L 112.636719 312.824219 L 111.785156 312.402344 L 111.464844 312.933594 L 106.367188 319.9375 L 84.261719 350.710938 L 107.429688 320.042969 Z M 112.847656 312.933594 " fill-opacity="1" fill-rule="nonzero"/><g fill="#af0000" fill-opacity="1"><g transform="translate(86.807097, 204.411788)"><g><path d="M 134.8125 12.625 C 134.4375 12.625 134.4375 12.503906 134.8125 12.265625 C 135.1875 12.035156 135.585938 11.921875 136.015625 11.921875 C 136.441406 11.921875 136.441406 12.035156 136.015625 12.265625 C 135.585938 12.503906 135.1875 12.625 134.8125 12.625 Z M 101.609375 -64.5625 C 101.796875 -64.75 102.050781 -64.816406 102.375 -64.765625 C 102.707031 -64.722656 103.960938 -64.421875 106.140625 -63.859375 C 108.035156 -63.285156 109.664062 -62.597656 111.03125 -61.796875 C 112.40625 -60.992188 113.046875 -60.3125 112.953125 -59.75 C 112.859375 -59.363281 113.398438 -58.578125 114.578125 -57.390625 C 115.765625 -56.210938 116.171875 -55.53125 115.796875 -55.34375 C 115.421875 -55.15625 115.328125 -54.160156 115.515625 -52.359375 C 115.703125 -50.566406 115.648438 -49.550781 115.359375 -49.3125 C 115.078125 -49.070312 114.796875 -47.789062 114.515625 -45.46875 C 114.234375 -43.15625 113.878906 -40.53125 113.453125 -37.59375 C 113.023438 -34.664062 112.878906 -31.570312 113.015625 -28.3125 C 113.160156 -25.050781 113.328125 -20.957031 113.515625 -16.03125 C 113.710938 -11.113281 113.953125 -8.515625 114.234375 -8.234375 C 114.898438 -7.847656 117.40625 -7.28125 121.75 -6.53125 C 124.019531 -6.25 126.148438 -5.796875 128.140625 -5.171875 C 130.128906 -4.554688 131.664062 -3.914062 132.75 -3.25 C 133.84375 -2.59375 134.34375 -2.078125 134.25 -1.703125 C 133.957031 -1.234375 134.710938 -0.238281 136.515625 1.28125 C 140.484375 5.15625 142.46875 7.472656 142.46875 8.234375 C 142.46875 8.796875 142.707031 9.316406 143.1875 9.796875 C 143.375 9.984375 143.328125 10.078125 143.046875 10.078125 C 142.753906 10.078125 142.375 10.03125 141.90625 9.9375 C 140.675781 9.75 139.773438 9.910156 139.203125 10.421875 C 138.640625 10.941406 136.628906 11.25 133.171875 11.34375 C 129.722656 11.445312 127.242188 11.351562 125.734375 11.0625 C 125.347656 11.0625 124.988281 11.035156 124.65625 10.984375 C 124.332031 10.941406 124.070312 10.921875 123.875 10.921875 C 123.6875 10.921875 123.59375 10.96875 123.59375 11.0625 C 123.59375 11.632812 123.265625 11.679688 122.609375 11.203125 C 122.421875 11.109375 122.234375 10.96875 122.046875 10.78125 C 121.941406 10.40625 121.65625 10.21875 121.1875 10.21875 C 120.71875 10.21875 120.335938 10.070312 120.046875 9.78125 C 119.765625 9.5 118.914062 9.171875 117.5 8.796875 C 116.457031 8.421875 115.082031 7.566406 113.375 6.234375 C 111.675781 4.910156 110.828125 3.96875 110.828125 3.40625 C 110.828125 3.03125 110.257812 2.273438 109.125 1.140625 C 107.988281 0.00390625 107.039062 -0.753906 106.28125 -1.140625 C 104.863281 -1.890625 103.78125 -2.457031 103.03125 -2.84375 C 102.457031 -2.9375 102.125 -4.070312 102.03125 -6.25 C 101.75 -9.363281 101.460938 -11.160156 101.171875 -11.640625 C 101.078125 -11.828125 100.957031 -14.09375 100.8125 -18.4375 C 100.675781 -22.789062 100.488281 -26.550781 100.25 -29.71875 C 100.019531 -32.894531 99.925781 -34.550781 99.96875 -34.6875 C 100.019531 -34.832031 100.140625 -36.894531 100.328125 -40.875 C 100.328125 -44.65625 100.1875 -46.546875 99.90625 -46.546875 C 95.457031 -45.128906 92.992188 -44.226562 92.515625 -43.84375 C 92.328125 -43.65625 92.1875 -42.753906 92.09375 -41.140625 C 92 -39.535156 91.859375 -38.546875 91.671875 -38.171875 C 91.484375 -37.796875 91.390625 -36 91.390625 -32.78125 C 91.390625 -29.5625 91.128906 -26.296875 90.609375 -22.984375 C 90.085938 -19.671875 89.828125 -17.351562 89.828125 -16.03125 C 89.828125 -14.425781 89.492188 -12.15625 88.828125 -9.21875 C 87.785156 -5.15625 87.265625 -2.222656 87.265625 -0.421875 C 87.265625 0.140625 86.957031 1.460938 86.34375 3.546875 C 85.726562 5.628906 85.234375 7.050781 84.859375 7.8125 C 84.578125 8.46875 84.175781 8.960938 83.65625 9.296875 C 83.132812 9.628906 82.78125 10.265625 82.59375 11.203125 C 82.300781 13.097656 81.6875 14.234375 80.75 14.609375 C 80.550781 14.515625 80.40625 14.375 80.3125 14.1875 C 80.3125 13.71875 80.21875 13.4375 80.03125 13.34375 C 79.65625 13.25 79.113281 12.65625 78.40625 11.5625 C 77.695312 10.476562 77.34375 9.695312 77.34375 9.21875 C 77.34375 8.65625 77.148438 8.300781 76.765625 8.15625 C 76.390625 8.019531 76.269531 7.832031 76.40625 7.59375 C 76.550781 7.351562 76.457031 7.09375 76.125 6.8125 C 75.800781 6.53125 75.6875 6.128906 75.78125 5.609375 C 75.875 5.085938 75.632812 4.6875 75.0625 4.40625 C 73.738281 3.550781 73.550781 1.941406 74.5 -0.421875 C 74.875 -1.648438 74.78125 -2.550781 74.21875 -3.125 C 73.9375 -3.5 73.816406 -3.753906 73.859375 -3.890625 C 73.910156 -4.035156 74.125 -4.347656 74.5 -4.828125 C 75.164062 -5.484375 75.398438 -5.882812 75.203125 -6.03125 C 75.015625 -6.175781 75.113281 -6.484375 75.5 -6.953125 C 75.78125 -7.328125 76.15625 -8.601562 76.625 -10.78125 C 77.101562 -12.957031 77.390625 -14.992188 77.484375 -16.890625 C 77.671875 -17.929688 77.953125 -19.207031 78.328125 -20.71875 C 78.710938 -22.226562 78.878906 -23.691406 78.828125 -25.109375 C 78.785156 -26.535156 78.972656 -28.3125 79.390625 -30.4375 C 79.816406 -32.5625 80.050781 -34.070312 80.09375 -34.96875 C 80.144531 -35.875 80.265625 -36.441406 80.453125 -36.671875 C 80.648438 -36.910156 80.628906 -37.363281 80.390625 -38.03125 C 80.148438 -38.695312 80.097656 -39.691406 80.234375 -41.015625 C 80.378906 -42.335938 80.359375 -44.015625 80.171875 -46.046875 C 79.984375 -48.078125 79.554688 -49.445312 78.890625 -50.15625 C 78.234375 -50.875 77.90625 -51.632812 77.90625 -52.4375 C 77.90625 -53.238281 77.617188 -54.085938 77.046875 -54.984375 C 76.484375 -55.890625 76.203125 -56.34375 76.203125 -56.34375 C 77.242188 -57.1875 79.179688 -57.421875 82.015625 -57.046875 C 83.535156 -56.671875 84.910156 -56.789062 86.140625 -57.40625 C 87.367188 -58.019531 88.144531 -58.328125 88.46875 -58.328125 C 88.800781 -58.328125 89.703125 -58.773438 91.171875 -59.671875 C 92.640625 -60.566406 93.539062 -61.015625 93.875 -61.015625 C 94.207031 -61.015625 94.914062 -61.367188 96 -62.078125 C 97.082031 -62.785156 97.765625 -63.140625 98.046875 -63.140625 C 98.335938 -63.140625 98.484375 -63.375 98.484375 -63.84375 C 98.484375 -64.320312 98.929688 -64.46875 99.828125 -64.28125 C 100.722656 -64.09375 101.316406 -64.1875 101.609375 -64.5625 Z M 82.15625 -105.015625 C 82.914062 -105.109375 84.359375 -105.109375 86.484375 -105.015625 C 88.617188 -104.921875 90.207031 -104.679688 91.25 -104.296875 C 92.570312 -104.015625 93.375 -103.492188 93.65625 -102.734375 C 93.9375 -102.078125 94.242188 -101.648438 94.578125 -101.453125 C 94.910156 -101.265625 95.503906 -101.078125 96.359375 -100.890625 C 97.015625 -100.796875 97.601562 -100.609375 98.125 -100.328125 C 98.644531 -100.046875 99.023438 -99.757812 99.265625 -99.46875 C 99.503906 -99.1875 99.476562 -98.953125 99.1875 -98.765625 C 98.71875 -98.203125 99.238281 -96.832031 100.75 -94.65625 C 101.507812 -93.613281 101.984375 -92.757812 102.171875 -92.09375 C 102.359375 -91.625 102.617188 -91.34375 102.953125 -91.25 C 103.285156 -91.15625 103.972656 -91.203125 105.015625 -91.390625 C 105.859375 -91.671875 106.234375 -91.953125 106.140625 -92.234375 C 106.046875 -92.617188 106.191406 -92.8125 106.578125 -92.8125 C 107.140625 -92.613281 108.460938 -92.1875 110.546875 -91.53125 C 113.285156 -90.675781 114.65625 -90.015625 114.65625 -89.546875 C 114.65625 -89.253906 115.195312 -88.375 116.28125 -86.90625 C 117.375 -85.445312 118.039062 -84.625 118.28125 -84.4375 C 118.519531 -84.25 118.640625 -83.914062 118.640625 -83.4375 C 118.640625 -82.96875 119.0625 -82.28125 119.90625 -81.375 C 120.757812 -80.476562 121.253906 -79.742188 121.390625 -79.171875 C 121.535156 -78.609375 121.894531 -78.09375 122.46875 -77.625 C 122.84375 -77.144531 123.097656 -76.765625 123.234375 -76.484375 C 123.378906 -76.203125 123.332031 -75.988281 123.09375 -75.84375 C 122.863281 -75.707031 122.507812 -75.539062 122.03125 -75.34375 C 121.5625 -75.15625 120.804688 -75.015625 119.765625 -74.921875 C 118.066406 -74.734375 115.085938 -74.023438 110.828125 -72.796875 C 110.359375 -72.703125 108.988281 -72.367188 106.71875 -71.796875 C 103.40625 -70.953125 98.15625 -69.347656 90.96875 -66.984375 C 86.039062 -65.367188 83.316406 -64.5625 82.796875 -64.5625 C 82.273438 -64.5625 81.539062 -64.820312 80.59375 -65.34375 C 79.65625 -65.863281 78.476562 -66.363281 77.0625 -66.84375 C 76.019531 -67.03125 75.070312 -67.429688 74.21875 -68.046875 C 73.363281 -68.660156 72.9375 -69.15625 72.9375 -69.53125 C 72.9375 -69.914062 72.179688 -70.671875 70.671875 -71.796875 C 67.921875 -73.972656 66.691406 -75.300781 66.984375 -75.78125 C 67.078125 -76.25 67.03125 -76.53125 66.84375 -76.625 C 65.894531 -77.101562 65.941406 -77.71875 66.984375 -78.46875 C 67.265625 -78.945312 68.085938 -79.234375 69.453125 -79.328125 C 70.828125 -79.421875 71.75 -79.726562 72.21875 -80.25 C 72.695312 -80.769531 73.21875 -80.957031 73.78125 -80.8125 C 74.351562 -80.675781 74.925781 -80.84375 75.5 -81.3125 C 76.0625 -81.78125 77.050781 -82.25 78.46875 -82.71875 C 79.894531 -83.195312 80.9375 -83.484375 81.59375 -83.578125 C 82.257812 -83.578125 82.6875 -83.789062 82.875 -84.21875 C 83.0625 -84.644531 84.054688 -85.09375 85.859375 -85.5625 C 86.609375 -85.757812 87.195312 -85.953125 87.625 -86.140625 C 88.050781 -86.328125 88.378906 -86.488281 88.609375 -86.625 C 88.847656 -86.769531 88.96875 -86.9375 88.96875 -87.125 C 88.96875 -87.320312 88.875 -87.515625 88.6875 -87.703125 C 88.3125 -87.984375 88.078125 -88.832031 87.984375 -90.25 C 87.703125 -94.601562 87.179688 -97.347656 86.421875 -98.484375 C 85.953125 -99.140625 85.3125 -99.867188 84.5 -100.671875 C 83.695312 -101.484375 83.175781 -101.890625 82.9375 -101.890625 C 82.707031 -101.890625 82.351562 -102.21875 81.875 -102.875 C 81.40625 -103.539062 81.171875 -104.015625 81.171875 -104.296875 C 81.171875 -104.679688 81.5 -104.921875 82.15625 -105.015625 Z M 40.015625 -107.84375 C 40.773438 -108.789062 42.289062 -108.601562 44.5625 -107.28125 C 45.789062 -106.71875 46.546875 -106.4375 46.828125 -106.4375 C 47.109375 -106.4375 47.722656 -106.007812 48.671875 -105.15625 C 53.023438 -101.269531 55.4375 -98.710938 55.90625 -97.484375 L 56.484375 -95.640625 L 54.640625 -93.65625 L 51.796875 -90.671875 C 50.285156 -89.066406 50.238281 -88.359375 51.65625 -88.546875 C 51.75 -88.546875 51.890625 -88.546875 52.078125 -88.546875 C 52.929688 -88.734375 53.898438 -88.519531 54.984375 -87.90625 C 56.078125 -87.289062 56.8125 -86.984375 57.1875 -86.984375 C 57.46875 -86.984375 58.128906 -86.507812 59.171875 -85.5625 C 60.210938 -84.625 60.6875 -83.914062 60.59375 -83.4375 C 60.59375 -83.34375 60.613281 -83.269531 60.65625 -83.21875 C 60.707031 -83.175781 60.78125 -83.15625 60.875 -83.15625 C 61.0625 -83.34375 61.414062 -83.128906 61.9375 -82.515625 C 62.457031 -81.898438 62.71875 -81.359375 62.71875 -80.890625 C 62.71875 -80.222656 63.097656 -79.507812 63.859375 -78.75 C 64.617188 -78 65 -77.484375 65 -77.203125 C 64.800781 -77.003906 64.914062 -76.476562 65.34375 -75.625 C 65.769531 -74.78125 66.078125 -74.359375 66.265625 -74.359375 C 66.648438 -74.359375 66.675781 -74.164062 66.34375 -73.78125 C 66.007812 -73.40625 65.675781 -73.21875 65.34375 -73.21875 C 65.007812 -73.21875 64.65625 -72.863281 64.28125 -72.15625 C 63.90625 -71.445312 63.8125 -65.460938 64 -54.203125 C 64.28125 -39.453125 64.753906 -28.429688 65.421875 -21.140625 C 65.703125 -18.492188 65.9375 -14.566406 66.125 -9.359375 C 66.3125 -4.160156 66.597656 -0.09375 66.984375 2.84375 C 67.640625 9.082031 67.640625 12.722656 66.984375 13.765625 C 66.691406 14.140625 66.640625 14.515625 66.828125 14.890625 C 67.023438 15.273438 66.976562 15.535156 66.6875 15.671875 C 66.40625 15.816406 66.078125 16.410156 65.703125 17.453125 C 65.328125 18.492188 65.140625 19.296875 65.140625 19.859375 C 65.140625 20.523438 64.992188 21.238281 64.703125 22 L 64.140625 23.125 L 62.859375 21.71875 C 62.015625 20.675781 61.332031 20.082031 60.8125 19.9375 C 60.289062 19.789062 60.03125 19.4375 60.03125 18.875 C 60.03125 17.644531 58.46875 16.175781 55.34375 14.46875 C 53.738281 13.625 52.910156 13.007812 52.859375 12.625 C 52.816406 12.25 52.796875 11.632812 52.796875 10.78125 C 52.796875 9.550781 51.660156 8.085938 49.390625 6.390625 C 48.148438 5.253906 47.34375 4.257812 46.96875 3.40625 C 46.59375 2.550781 46.144531 1.789062 45.625 1.125 C 45.101562 0.46875 44.84375 -0.046875 44.84375 -0.421875 C 44.84375 -0.703125 45.003906 -0.867188 45.328125 -0.921875 C 45.660156 -0.972656 46.0625 -0.945312 46.53125 -0.84375 C 47.007812 -0.75 47.394531 -0.609375 47.6875 -0.421875 C 48.820312 0.523438 49.957031 0.332031 51.09375 -1 C 51.5625 -1.46875 51.863281 -2.4375 52 -3.90625 C 52.144531 -5.375 52.078125 -6.34375 51.796875 -6.8125 C 51.515625 -7.28125 51.375 -8.128906 51.375 -9.359375 C 51.375 -12.296875 51.132812 -13.765625 50.65625 -13.765625 C 50.1875 -13.765625 49.171875 -14.285156 47.609375 -15.328125 C 46.046875 -16.367188 45.265625 -16.984375 45.265625 -17.171875 C 45.265625 -17.640625 45.144531 -17.875 44.90625 -17.875 C 44.675781 -17.875 44.367188 -18.226562 43.984375 -18.9375 C 43.609375 -19.65625 42.734375 -20.4375 41.359375 -21.28125 C 39.992188 -22.132812 39.023438 -23.34375 38.453125 -24.90625 C 37.890625 -26.46875 37.5625 -27.769531 37.46875 -28.8125 C 37.175781 -29.851562 36.890625 -30.375 36.609375 -30.375 C 36.421875 -30.375 36.234375 -30.179688 36.046875 -29.796875 L 35.046875 -24.828125 C 34.578125 -22.273438 34.203125 -20.101562 33.921875 -18.3125 C 33.722656 -15.46875 32.867188 -11.679688 31.359375 -6.953125 C 29.460938 -1.085938 28.328125 3.117188 27.953125 5.671875 C 27.765625 7.191406 27.335938 8.800781 26.671875 10.5 C 26.015625 12.207031 25.546875 13.0625 25.265625 13.0625 C 24.972656 13.0625 24.492188 12.5625 23.828125 11.5625 C 23.171875 10.570312 22.554688 9.863281 21.984375 9.4375 C 21.421875 9.007812 21.1875 8.609375 21.28125 8.234375 C 21.375 7.953125 21.039062 7.097656 20.28125 5.671875 C 19.53125 4.253906 18.875 3.3125 18.3125 2.84375 C 17.738281 2.457031 17.40625 2.097656 17.3125 1.765625 C 17.21875 1.441406 17.21875 0.664062 17.3125 -0.5625 C 17.40625 -2.363281 17.453125 -3.738281 17.453125 -4.6875 C 17.453125 -5.632812 17.640625 -6.269531 18.015625 -6.59375 C 18.398438 -6.925781 18.660156 -7.46875 18.796875 -8.21875 C 18.941406 -8.976562 19.25 -10.398438 19.71875 -12.484375 C 20.101562 -13.804688 20.554688 -15.769531 21.078125 -18.375 C 21.597656 -20.976562 22 -23.34375 22.28125 -25.46875 C 22.5625 -27.601562 22.65625 -28.671875 22.5625 -28.671875 C 22.1875 -28.671875 20.765625 -28.078125 18.296875 -26.890625 C 15.835938 -25.710938 14.515625 -25.023438 14.328125 -24.828125 C 14.140625 -24.453125 12.15625 -24.359375 8.375 -24.546875 C 7.425781 -24.640625 6.664062 -24.707031 6.09375 -24.75 C 5.53125 -24.800781 5.082031 -24.875 4.75 -24.96875 C 4.414062 -25.070312 4.25 -25.191406 4.25 -25.328125 C 4.25 -25.472656 4.300781 -25.640625 4.40625 -25.828125 C 4.5 -26.296875 4.1875 -26.695312 3.46875 -27.03125 C 2.757812 -27.363281 2.40625 -27.625 2.40625 -27.8125 C 2.40625 -28 1.882812 -28.378906 0.84375 -28.953125 C 0 -29.328125 -0.5625 -29.65625 -0.84375 -29.9375 C -1.132812 -30.226562 -1.28125 -30.75 -1.28125 -31.5 C -1.28125 -32.632812 -0.570312 -33.34375 0.84375 -33.625 C 1.507812 -33.914062 2.953125 -34.722656 5.171875 -36.046875 C 7.398438 -37.367188 8.726562 -38.03125 9.15625 -38.03125 C 9.582031 -38.03125 9.796875 -38.144531 9.796875 -38.375 C 9.796875 -38.613281 11.398438 -39.515625 14.609375 -41.078125 C 17.828125 -42.640625 20.429688 -43.753906 22.421875 -44.421875 L 25.546875 -45.546875 L 25.6875 -47.6875 C 25.6875 -49.664062 25.828125 -51.929688 26.109375 -54.484375 L 26.671875 -57.75 L 26.96875 -60.59375 C 27.0625 -61.539062 26.867188 -64.285156 26.390625 -68.828125 C 25.921875 -73.367188 25.5 -75.734375 25.125 -75.921875 C 24.925781 -76.109375 24.800781 -76.722656 24.75 -77.765625 C 24.707031 -78.804688 24.265625 -80.128906 23.421875 -81.734375 L 21.859375 -84.296875 L 23.265625 -85.28125 C 24.117188 -85.945312 24.738281 -86.1875 25.125 -86 C 25.59375 -85.90625 26.9375 -87.039062 29.15625 -89.40625 C 31.382812 -91.769531 33.539062 -94.226562 35.625 -96.78125 L 39.734375 -102.171875 C 41.148438 -104.066406 41.335938 -105.488281 40.296875 -106.4375 C 39.828125 -107 39.734375 -107.46875 40.015625 -107.84375 Z M 48.671875 -71.375 C 48.671875 -72.132812 48.503906 -72.535156 48.171875 -72.578125 C 47.847656 -72.628906 47.066406 -72.367188 45.828125 -71.796875 C 44.796875 -71.328125 43.210938 -70.851562 41.078125 -70.375 C 38.953125 -69.90625 37.890625 -69.578125 37.890625 -69.390625 C 37.890625 -68.734375 38.078125 -68.164062 38.453125 -67.6875 C 38.835938 -67.21875 39.265625 -66.984375 39.734375 -66.984375 C 40.203125 -66.984375 40.625 -66.675781 41 -66.0625 C 41.382812 -65.445312 41.882812 -65.039062 42.5 -64.84375 C 43.113281 -64.65625 43.75 -63.921875 44.40625 -62.640625 C 45.070312 -61.367188 45.59375 -60.660156 45.96875 -60.515625 C 46.351562 -60.378906 46.925781 -59.554688 47.6875 -58.046875 C 47.875 -57.566406 48.0625 -57.160156 48.25 -56.828125 C 48.4375 -56.503906 48.578125 -56.269531 48.671875 -56.125 C 48.765625 -55.976562 48.8125 -55.90625 48.8125 -55.90625 C 48.90625 -56 48.953125 -57.722656 48.953125 -61.078125 C 48.953125 -64.441406 48.90625 -66.785156 48.8125 -68.109375 C 48.71875 -69.441406 48.671875 -70.53125 48.671875 -71.375 Z M 43.5625 -55.265625 C 42.707031 -55.785156 41.785156 -56.425781 40.796875 -57.1875 C 39.804688 -57.945312 39.21875 -58.328125 39.03125 -58.328125 C 38.925781 -58.140625 38.875 -57.570312 38.875 -56.625 C 38.875 -55.675781 38.921875 -54.65625 39.015625 -53.5625 C 39.117188 -52.476562 39.238281 -51.890625 39.375 -51.796875 C 39.519531 -51.703125 40.441406 -52.007812 42.140625 -52.71875 C 43.847656 -53.425781 44.75 -53.875 44.84375 -54.0625 C 44.84375 -54.34375 44.414062 -54.742188 43.5625 -55.265625 Z M 49.8125 -37.328125 C 49.625 -37.703125 49.335938 -37.890625 48.953125 -37.890625 C 48.578125 -37.890625 47.820312 -37.703125 46.6875 -37.328125 C 45.644531 -36.753906 44.890625 -36.46875 44.421875 -36.46875 C 44.128906 -36.46875 43.890625 -36.328125 43.703125 -36.046875 C 43.515625 -35.765625 43.660156 -35.625 44.140625 -35.625 C 44.421875 -35.625 44.488281 -35.265625 44.34375 -34.546875 C 44.207031 -33.835938 44.347656 -33.363281 44.765625 -33.125 C 45.191406 -32.894531 45.453125 -32.351562 45.546875 -31.5 C 45.640625 -30.644531 45.972656 -29.890625 46.546875 -29.234375 C 47.867188 -27.722656 48.671875 -25.925781 48.953125 -23.84375 C 50.085938 -17.882812 50.75 -14.804688 50.9375 -14.609375 C 51.039062 -14.515625 51.113281 -15.15625 51.15625 -16.53125 C 51.207031 -17.90625 51.207031 -19.726562 51.15625 -22 C 51.113281 -24.269531 51.039062 -26.539062 50.9375 -28.8125 C 50.65625 -33.632812 50.28125 -36.472656 49.8125 -37.328125 Z M 49.8125 -37.328125 "/></g></g></g><g fill="#ffea93" fill-opacity="1"><g transform="translate(82.340865, 200.098795)"><g><path d="M 134.8125 12.625 C 134.4375 12.625 134.4375 12.503906 134.8125 12.265625 C 135.1875 12.035156 135.585938 11.921875 136.015625 11.921875 C 136.441406 11.921875 136.441406 12.035156 136.015625 12.265625 C 135.585938 12.503906 135.1875 12.625 134.8125 12.625 Z M 101.609375 -64.5625 C 101.796875 -64.75 102.050781 -64.816406 102.375 -64.765625 C 102.707031 -64.722656 103.960938 -64.421875 106.140625 -63.859375 C 108.035156 -63.285156 109.664062 -62.597656 111.03125 -61.796875 C 112.40625 -60.992188 113.046875 -60.3125 112.953125 -59.75 C 112.859375 -59.363281 113.398438 -58.578125 114.578125 -57.390625 C 115.765625 -56.210938 116.171875 -55.53125 115.796875 -55.34375 C 115.421875 -55.15625 115.328125 -54.160156 115.515625 -52.359375 C 115.703125 -50.566406 115.648438 -49.550781 115.359375 -49.3125 C 115.078125 -49.070312 114.796875 -47.789062 114.515625 -45.46875 C 114.234375 -43.15625 113.878906 -40.53125 113.453125 -37.59375 C 113.023438 -34.664062 112.878906 -31.570312 113.015625 -28.3125 C 113.160156 -25.050781 113.328125 -20.957031 113.515625 -16.03125 C 113.710938 -11.113281 113.953125 -8.515625 114.234375 -8.234375 C 114.898438 -7.847656 117.40625 -7.28125 121.75 -6.53125 C 124.019531 -6.25 126.148438 -5.796875 128.140625 -5.171875 C 130.128906 -4.554688 131.664062 -3.914062 132.75 -3.25 C 133.84375 -2.59375 134.34375 -2.078125 134.25 -1.703125 C 133.957031 -1.234375 134.710938 -0.238281 136.515625 1.28125 C 140.484375 5.15625 142.46875 7.472656 142.46875 8.234375 C 142.46875 8.796875 142.707031 9.316406 143.1875 9.796875 C 143.375 9.984375 143.328125 10.078125 143.046875 10.078125 C 142.753906 10.078125 142.375 10.03125 141.90625 9.9375 C 140.675781 9.75 139.773438 9.910156 139.203125 10.421875 C 138.640625 10.941406 136.628906 11.25 133.171875 11.34375 C 129.722656 11.445312 127.242188 11.351562 125.734375 11.0625 C 125.347656 11.0625 124.988281 11.035156 124.65625 10.984375 C 124.332031 10.941406 124.070312 10.921875 123.875 10.921875 C 123.6875 10.921875 123.59375 10.96875 123.59375 11.0625 C 123.59375 11.632812 123.265625 11.679688 122.609375 11.203125 C 122.421875 11.109375 122.234375 10.96875 122.046875 10.78125 C 121.941406 10.40625 121.65625 10.21875 121.1875 10.21875 C 120.71875 10.21875 120.335938 10.070312 120.046875 9.78125 C 119.765625 9.5 118.914062 9.171875 117.5 8.796875 C 116.457031 8.421875 115.082031 7.566406 113.375 6.234375 C 111.675781 4.910156 110.828125 3.96875 110.828125 3.40625 C 110.828125 3.03125 110.257812 2.273438 109.125 1.140625 C 107.988281 0.00390625 107.039062 -0.753906 106.28125 -1.140625 C 104.863281 -1.890625 103.78125 -2.457031 103.03125 -2.84375 C 102.457031 -2.9375 102.125 -4.070312 102.03125 -6.25 C 101.75 -9.363281 101.460938 -11.160156 101.171875 -11.640625 C 101.078125 -11.828125 100.957031 -14.09375 100.8125 -18.4375 C 100.675781 -22.789062 100.488281 -26.550781 100.25 -29.71875 C 100.019531 -32.894531 99.925781 -34.550781 99.96875 -34.6875 C 100.019531 -34.832031 100.140625 -36.894531 100.328125 -40.875 C 100.328125 -44.65625 100.1875 -46.546875 99.90625 -46.546875 C 95.457031 -45.128906 92.992188 -44.226562 92.515625 -43.84375 C 92.328125 -43.65625 92.1875 -42.753906 92.09375 -41.140625 C 92 -39.535156 91.859375 -38.546875 91.671875 -38.171875 C 91.484375 -37.796875 91.390625 -36 91.390625 -32.78125 C 91.390625 -29.5625 91.128906 -26.296875 90.609375 -22.984375 C 90.085938 -19.671875 89.828125 -17.351562 89.828125 -16.03125 C 89.828125 -14.425781 89.492188 -12.15625 88.828125 -9.21875 C 87.785156 -5.15625 87.265625 -2.222656 87.265625 -0.421875 C 87.265625 0.140625 86.957031 1.460938 86.34375 3.546875 C 85.726562 5.628906 85.234375 7.050781 84.859375 7.8125 C 84.578125 8.46875 84.175781 8.960938 83.65625 9.296875 C 83.132812 9.628906 82.78125 10.265625 82.59375 11.203125 C 82.300781 13.097656 81.6875 14.234375 80.75 14.609375 C 80.550781 14.515625 80.40625 14.375 80.3125 14.1875 C 80.3125 13.71875 80.21875 13.4375 80.03125 13.34375 C 79.65625 13.25 79.113281 12.65625 78.40625 11.5625 C 77.695312 10.476562 77.34375 9.695312 77.34375 9.21875 C 77.34375 8.65625 77.148438 8.300781 76.765625 8.15625 C 76.390625 8.019531 76.269531 7.832031 76.40625 7.59375 C 76.550781 7.351562 76.457031 7.09375 76.125 6.8125 C 75.800781 6.53125 75.6875 6.128906 75.78125 5.609375 C 75.875 5.085938 75.632812 4.6875 75.0625 4.40625 C 73.738281 3.550781 73.550781 1.941406 74.5 -0.421875 C 74.875 -1.648438 74.78125 -2.550781 74.21875 -3.125 C 73.9375 -3.5 73.816406 -3.753906 73.859375 -3.890625 C 73.910156 -4.035156 74.125 -4.347656 74.5 -4.828125 C 75.164062 -5.484375 75.398438 -5.882812 75.203125 -6.03125 C 75.015625 -6.175781 75.113281 -6.484375 75.5 -6.953125 C 75.78125 -7.328125 76.15625 -8.601562 76.625 -10.78125 C 77.101562 -12.957031 77.390625 -14.992188 77.484375 -16.890625 C 77.671875 -17.929688 77.953125 -19.207031 78.328125 -20.71875 C 78.710938 -22.226562 78.878906 -23.691406 78.828125 -25.109375 C 78.785156 -26.535156 78.972656 -28.3125 79.390625 -30.4375 C 79.816406 -32.5625 80.050781 -34.070312 80.09375 -34.96875 C 80.144531 -35.875 80.265625 -36.441406 80.453125 -36.671875 C 80.648438 -36.910156 80.628906 -37.363281 80.390625 -38.03125 C 80.148438 -38.695312 80.097656 -39.691406 80.234375 -41.015625 C 80.378906 -42.335938 80.359375 -44.015625 80.171875 -46.046875 C 79.984375 -48.078125 79.554688 -49.445312 78.890625 -50.15625 C 78.234375 -50.875 77.90625 -51.632812 77.90625 -52.4375 C 77.90625 -53.238281 77.617188 -54.085938 77.046875 -54.984375 C 76.484375 -55.890625 76.203125 -56.34375 76.203125 -56.34375 C 77.242188 -57.1875 79.179688 -57.421875 82.015625 -57.046875 C 83.535156 -56.671875 84.910156 -56.789062 86.140625 -57.40625 C 87.367188 -58.019531 88.144531 -58.328125 88.46875 -58.328125 C 88.800781 -58.328125 89.703125 -58.773438 91.171875 -59.671875 C 92.640625 -60.566406 93.539062 -61.015625 93.875 -61.015625 C 94.207031 -61.015625 94.914062 -61.367188 96 -62.078125 C 97.082031 -62.785156 97.765625 -63.140625 98.046875 -63.140625 C 98.335938 -63.140625 98.484375 -63.375 98.484375 -63.84375 C 98.484375 -64.320312 98.929688 -64.46875 99.828125 -64.28125 C 100.722656 -64.09375 101.316406 -64.1875 101.609375 -64.5625 Z M 82.15625 -105.015625 C 82.914062 -105.109375 84.359375 -105.109375 86.484375 -105.015625 C 88.617188 -104.921875 90.207031 -104.679688 91.25 -104.296875 C 92.570312 -104.015625 93.375 -103.492188 93.65625 -102.734375 C 93.9375 -102.078125 94.242188 -101.648438 94.578125 -101.453125 C 94.910156 -101.265625 95.503906 -101.078125 96.359375 -100.890625 C 97.015625 -100.796875 97.601562 -100.609375 98.125 -100.328125 C 98.644531 -100.046875 99.023438 -99.757812 99.265625 -99.46875 C 99.503906 -99.1875 99.476562 -98.953125 99.1875 -98.765625 C 98.71875 -98.203125 99.238281 -96.832031 100.75 -94.65625 C 101.507812 -93.613281 101.984375 -92.757812 102.171875 -92.09375 C 102.359375 -91.625 102.617188 -91.34375 102.953125 -91.25 C 103.285156 -91.15625 103.972656 -91.203125 105.015625 -91.390625 C 105.859375 -91.671875 106.234375 -91.953125 106.140625 -92.234375 C 106.046875 -92.617188 106.191406 -92.8125 106.578125 -92.8125 C 107.140625 -92.613281 108.460938 -92.1875 110.546875 -91.53125 C 113.285156 -90.675781 114.65625 -90.015625 114.65625 -89.546875 C 114.65625 -89.253906 115.195312 -88.375 116.28125 -86.90625 C 117.375 -85.445312 118.039062 -84.625 118.28125 -84.4375 C 118.519531 -84.25 118.640625 -83.914062 118.640625 -83.4375 C 118.640625 -82.96875 119.0625 -82.28125 119.90625 -81.375 C 120.757812 -80.476562 121.253906 -79.742188 121.390625 -79.171875 C 121.535156 -78.609375 121.894531 -78.09375 122.46875 -77.625 C 122.84375 -77.144531 123.097656 -76.765625 123.234375 -76.484375 C 123.378906 -76.203125 123.332031 -75.988281 123.09375 -75.84375 C 122.863281 -75.707031 122.507812 -75.539062 122.03125 -75.34375 C 121.5625 -75.15625 120.804688 -75.015625 119.765625 -74.921875 C 118.066406 -74.734375 115.085938 -74.023438 110.828125 -72.796875 C 110.359375 -72.703125 108.988281 -72.367188 106.71875 -71.796875 C 103.40625 -70.953125 98.15625 -69.347656 90.96875 -66.984375 C 86.039062 -65.367188 83.316406 -64.5625 82.796875 -64.5625 C 82.273438 -64.5625 81.539062 -64.820312 80.59375 -65.34375 C 79.65625 -65.863281 78.476562 -66.363281 77.0625 -66.84375 C 76.019531 -67.03125 75.070312 -67.429688 74.21875 -68.046875 C 73.363281 -68.660156 72.9375 -69.15625 72.9375 -69.53125 C 72.9375 -69.914062 72.179688 -70.671875 70.671875 -71.796875 C 67.921875 -73.972656 66.691406 -75.300781 66.984375 -75.78125 C 67.078125 -76.25 67.03125 -76.53125 66.84375 -76.625 C 65.894531 -77.101562 65.941406 -77.71875 66.984375 -78.46875 C 67.265625 -78.945312 68.085938 -79.234375 69.453125 -79.328125 C 70.828125 -79.421875 71.75 -79.726562 72.21875 -80.25 C 72.695312 -80.769531 73.21875 -80.957031 73.78125 -80.8125 C 74.351562 -80.675781 74.925781 -80.84375 75.5 -81.3125 C 76.0625 -81.78125 77.050781 -82.25 78.46875 -82.71875 C 79.894531 -83.195312 80.9375 -83.484375 81.59375 -83.578125 C 82.257812 -83.578125 82.6875 -83.789062 82.875 -84.21875 C 83.0625 -84.644531 84.054688 -85.09375 85.859375 -85.5625 C 86.609375 -85.757812 87.195312 -85.953125 87.625 -86.140625 C 88.050781 -86.328125 88.378906 -86.488281 88.609375 -86.625 C 88.847656 -86.769531 88.96875 -86.9375 88.96875 -87.125 C 88.96875 -87.320312 88.875 -87.515625 88.6875 -87.703125 C 88.3125 -87.984375 88.078125 -88.832031 87.984375 -90.25 C 87.703125 -94.601562 87.179688 -97.347656 86.421875 -98.484375 C 85.953125 -99.140625 85.3125 -99.867188 84.5 -100.671875 C 83.695312 -101.484375 83.175781 -101.890625 82.9375 -101.890625 C 82.707031 -101.890625 82.351562 -102.21875 81.875 -102.875 C 81.40625 -103.539062 81.171875 -104.015625 81.171875 -104.296875 C 81.171875 -104.679688 81.5 -104.921875 82.15625 -105.015625 Z M 40.015625 -107.84375 C 40.773438 -108.789062 42.289062 -108.601562 44.5625 -107.28125 C 45.789062 -106.71875 46.546875 -106.4375 46.828125 -106.4375 C 47.109375 -106.4375 47.722656 -106.007812 48.671875 -105.15625 C 53.023438 -101.269531 55.4375 -98.710938 55.90625 -97.484375 L 56.484375 -95.640625 L 54.640625 -93.65625 L 51.796875 -90.671875 C 50.285156 -89.066406 50.238281 -88.359375 51.65625 -88.546875 C 51.75 -88.546875 51.890625 -88.546875 52.078125 -88.546875 C 52.929688 -88.734375 53.898438 -88.519531 54.984375 -87.90625 C 56.078125 -87.289062 56.8125 -86.984375 57.1875 -86.984375 C 57.46875 -86.984375 58.128906 -86.507812 59.171875 -85.5625 C 60.210938 -84.625 60.6875 -83.914062 60.59375 -83.4375 C 60.59375 -83.34375 60.613281 -83.269531 60.65625 -83.21875 C 60.707031 -83.175781 60.78125 -83.15625 60.875 -83.15625 C 61.0625 -83.34375 61.414062 -83.128906 61.9375 -82.515625 C 62.457031 -81.898438 62.71875 -81.359375 62.71875 -80.890625 C 62.71875 -80.222656 63.097656 -79.507812 63.859375 -78.75 C 64.617188 -78 65 -77.484375 65 -77.203125 C 64.800781 -77.003906 64.914062 -76.476562 65.34375 -75.625 C 65.769531 -74.78125 66.078125 -74.359375 66.265625 -74.359375 C 66.648438 -74.359375 66.675781 -74.164062 66.34375 -73.78125 C 66.007812 -73.40625 65.675781 -73.21875 65.34375 -73.21875 C 65.007812 -73.21875 64.65625 -72.863281 64.28125 -72.15625 C 63.90625 -71.445312 63.8125 -65.460938 64 -54.203125 C 64.28125 -39.453125 64.753906 -28.429688 65.421875 -21.140625 C 65.703125 -18.492188 65.9375 -14.566406 66.125 -9.359375 C 66.3125 -4.160156 66.597656 -0.09375 66.984375 2.84375 C 67.640625 9.082031 67.640625 12.722656 66.984375 13.765625 C 66.691406 14.140625 66.640625 14.515625 66.828125 14.890625 C 67.023438 15.273438 66.976562 15.535156 66.6875 15.671875 C 66.40625 15.816406 66.078125 16.410156 65.703125 17.453125 C 65.328125 18.492188 65.140625 19.296875 65.140625 19.859375 C 65.140625 20.523438 64.992188 21.238281 64.703125 22 L 64.140625 23.125 L 62.859375 21.71875 C 62.015625 20.675781 61.332031 20.082031 60.8125 19.9375 C 60.289062 19.789062 60.03125 19.4375 60.03125 18.875 C 60.03125 17.644531 58.46875 16.175781 55.34375 14.46875 C 53.738281 13.625 52.910156 13.007812 52.859375 12.625 C 52.816406 12.25 52.796875 11.632812 52.796875 10.78125 C 52.796875 9.550781 51.660156 8.085938 49.390625 6.390625 C 48.148438 5.253906 47.34375 4.257812 46.96875 3.40625 C 46.59375 2.550781 46.144531 1.789062 45.625 1.125 C 45.101562 0.46875 44.84375 -0.046875 44.84375 -0.421875 C 44.84375 -0.703125 45.003906 -0.867188 45.328125 -0.921875 C 45.660156 -0.972656 46.0625 -0.945312 46.53125 -0.84375 C 47.007812 -0.75 47.394531 -0.609375 47.6875 -0.421875 C 48.820312 0.523438 49.957031 0.332031 51.09375 -1 C 51.5625 -1.46875 51.863281 -2.4375 52 -3.90625 C 52.144531 -5.375 52.078125 -6.34375 51.796875 -6.8125 C 51.515625 -7.28125 51.375 -8.128906 51.375 -9.359375 C 51.375 -12.296875 51.132812 -13.765625 50.65625 -13.765625 C 50.1875 -13.765625 49.171875 -14.285156 47.609375 -15.328125 C 46.046875 -16.367188 45.265625 -16.984375 45.265625 -17.171875 C 45.265625 -17.640625 45.144531 -17.875 44.90625 -17.875 C 44.675781 -17.875 44.367188 -18.226562 43.984375 -18.9375 C 43.609375 -19.65625 42.734375 -20.4375 41.359375 -21.28125 C 39.992188 -22.132812 39.023438 -23.34375 38.453125 -24.90625 C 37.890625 -26.46875 37.5625 -27.769531 37.46875 -28.8125 C 37.175781 -29.851562 36.890625 -30.375 36.609375 -30.375 C 36.421875 -30.375 36.234375 -30.179688 36.046875 -29.796875 L 35.046875 -24.828125 C 34.578125 -22.273438 34.203125 -20.101562 33.921875 -18.3125 C 33.722656 -15.46875 32.867188 -11.679688 31.359375 -6.953125 C 29.460938 -1.085938 28.328125 3.117188 27.953125 5.671875 C 27.765625 7.191406 27.335938 8.800781 26.671875 10.5 C 26.015625 12.207031 25.546875 13.0625 25.265625 13.0625 C 24.972656 13.0625 24.492188 12.5625 23.828125 11.5625 C 23.171875 10.570312 22.554688 9.863281 21.984375 9.4375 C 21.421875 9.007812 21.1875 8.609375 21.28125 8.234375 C 21.375 7.953125 21.039062 7.097656 20.28125 5.671875 C 19.53125 4.253906 18.875 3.3125 18.3125 2.84375 C 17.738281 2.457031 17.40625 2.097656 17.3125 1.765625 C 17.21875 1.441406 17.21875 0.664062 17.3125 -0.5625 C 17.40625 -2.363281 17.453125 -3.738281 17.453125 -4.6875 C 17.453125 -5.632812 17.640625 -6.269531 18.015625 -6.59375 C 18.398438 -6.925781 18.660156 -7.46875 18.796875 -8.21875 C 18.941406 -8.976562 19.25 -10.398438 19.71875 -12.484375 C 20.101562 -13.804688 20.554688 -15.769531 21.078125 -18.375 C 21.597656 -20.976562 22 -23.34375 22.28125 -25.46875 C 22.5625 -27.601562 22.65625 -28.671875 22.5625 -28.671875 C 22.1875 -28.671875 20.765625 -28.078125 18.296875 -26.890625 C 15.835938 -25.710938 14.515625 -25.023438 14.328125 -24.828125 C 14.140625 -24.453125 12.15625 -24.359375 8.375 -24.546875 C 7.425781 -24.640625 6.664062 -24.707031 6.09375 -24.75 C 5.53125 -24.800781 5.082031 -24.875 4.75 -24.96875 C 4.414062 -25.070312 4.25 -25.191406 4.25 -25.328125 C 4.25 -25.472656 4.300781 -25.640625 4.40625 -25.828125 C 4.5 -26.296875 4.1875 -26.695312 3.46875 -27.03125 C 2.757812 -27.363281 2.40625 -27.625 2.40625 -27.8125 C 2.40625 -28 1.882812 -28.378906 0.84375 -28.953125 C 0 -29.328125 -0.5625 -29.65625 -0.84375 -29.9375 C -1.132812 -30.226562 -1.28125 -30.75 -1.28125 -31.5 C -1.28125 -32.632812 -0.570312 -33.34375 0.84375 -33.625 C 1.507812 -33.914062 2.953125 -34.722656 5.171875 -36.046875 C 7.398438 -37.367188 8.726562 -38.03125 9.15625 -38.03125 C 9.582031 -38.03125 9.796875 -38.144531 9.796875 -38.375 C 9.796875 -38.613281 11.398438 -39.515625 14.609375 -41.078125 C 17.828125 -42.640625 20.429688 -43.753906 22.421875 -44.421875 L 25.546875 -45.546875 L 25.6875 -47.6875 C 25.6875 -49.664062 25.828125 -51.929688 26.109375 -54.484375 L 26.671875 -57.75 L 26.96875 -60.59375 C 27.0625 -61.539062 26.867188 -64.285156 26.390625 -68.828125 C 25.921875 -73.367188 25.5 -75.734375 25.125 -75.921875 C 24.925781 -76.109375 24.800781 -76.722656 24.75 -77.765625 C 24.707031 -78.804688 24.265625 -80.128906 23.421875 -81.734375 L 21.859375 -84.296875 L 23.265625 -85.28125 C 24.117188 -85.945312 24.738281 -86.1875 25.125 -86 C 25.59375 -85.90625 26.9375 -87.039062 29.15625 -89.40625 C 31.382812 -91.769531 33.539062 -94.226562 35.625 -96.78125 L 39.734375 -102.171875 C 41.148438 -104.066406 41.335938 -105.488281 40.296875 -106.4375 C 39.828125 -107 39.734375 -107.46875 40.015625 -107.84375 Z M 48.671875 -71.375 C 48.671875 -72.132812 48.503906 -72.535156 48.171875 -72.578125 C 47.847656 -72.628906 47.066406 -72.367188 45.828125 -71.796875 C 44.796875 -71.328125 43.210938 -70.851562 41.078125 -70.375 C 38.953125 -69.90625 37.890625 -69.578125 37.890625 -69.390625 C 37.890625 -68.734375 38.078125 -68.164062 38.453125 -67.6875 C 38.835938 -67.21875 39.265625 -66.984375 39.734375 -66.984375 C 40.203125 -66.984375 40.625 -66.675781 41 -66.0625 C 41.382812 -65.445312 41.882812 -65.039062 42.5 -64.84375 C 43.113281 -64.65625 43.75 -63.921875 44.40625 -62.640625 C 45.070312 -61.367188 45.59375 -60.660156 45.96875 -60.515625 C 46.351562 -60.378906 46.925781 -59.554688 47.6875 -58.046875 C 47.875 -57.566406 48.0625 -57.160156 48.25 -56.828125 C 48.4375 -56.503906 48.578125 -56.269531 48.671875 -56.125 C 48.765625 -55.976562 48.8125 -55.90625 48.8125 -55.90625 C 48.90625 -56 48.953125 -57.722656 48.953125 -61.078125 C 48.953125 -64.441406 48.90625 -66.785156 48.8125 -68.109375 C 48.71875 -69.441406 48.671875 -70.53125 48.671875 -71.375 Z M 43.5625 -55.265625 C 42.707031 -55.785156 41.785156 -56.425781 40.796875 -57.1875 C 39.804688 -57.945312 39.21875 -58.328125 39.03125 -58.328125 C 38.925781 -58.140625 38.875 -57.570312 38.875 -56.625 C 38.875 -55.675781 38.921875 -54.65625 39.015625 -53.5625 C 39.117188 -52.476562 39.238281 -51.890625 39.375 -51.796875 C 39.519531 -51.703125 40.441406 -52.007812 42.140625 -52.71875 C 43.847656 -53.425781 44.75 -53.875 44.84375 -54.0625 C 44.84375 -54.34375 44.414062 -54.742188 43.5625 -55.265625 Z M 49.8125 -37.328125 C 49.625 -37.703125 49.335938 -37.890625 48.953125 -37.890625 C 48.578125 -37.890625 47.820312 -37.703125 46.6875 -37.328125 C 45.644531 -36.753906 44.890625 -36.46875 44.421875 -36.46875 C 44.128906 -36.46875 43.890625 -36.328125 43.703125 -36.046875 C 43.515625 -35.765625 43.660156 -35.625 44.140625 -35.625 C 44.421875 -35.625 44.488281 -35.265625 44.34375 -34.546875 C 44.207031 -33.835938 44.347656 -33.363281 44.765625 -33.125 C 45.191406 -32.894531 45.453125 -32.351562 45.546875 -31.5 C 45.640625 -30.644531 45.972656 -29.890625 46.546875 -29.234375 C 47.867188 -27.722656 48.671875 -25.925781 48.953125 -23.84375 C 50.085938 -17.882812 50.75 -14.804688 50.9375 -14.609375 C 51.039062 -14.515625 51.113281 -15.15625 51.15625 -16.53125 C 51.207031 -17.90625 51.207031 -19.726562 51.15625 -22 C 51.113281 -24.269531 51.039062 -26.539062 50.9375 -28.8125 C 50.65625 -33.632812 50.28125 -36.472656 49.8125 -37.328125 Z M 49.8125 -37.328125 "/></g></g></g><g fill="#af0000" fill-opacity="1"><g transform="translate(113.763095, 395.811659)"><g><path d="M 72.875 -111.921875 C 73.644531 -113.078125 74.367188 -113.316406 75.046875 -112.640625 C 75.429688 -112.441406 76.585938 -112.007812 78.515625 -111.34375 C 83.617188 -109.695312 86.941406 -107.71875 88.484375 -105.40625 C 88.972656 -104.726562 88.972656 -103.90625 88.484375 -102.9375 C 88.003906 -101.976562 87.785156 -98.507812 87.828125 -92.53125 C 87.878906 -86.5625 87.957031 -83.53125 88.0625 -83.4375 C 88.25 -83.238281 88.875 -83.1875 89.9375 -83.28125 C 91 -83.382812 91.625 -83.53125 91.8125 -83.71875 C 92.582031 -84.300781 94.242188 -84.253906 96.796875 -83.578125 C 99.359375 -82.898438 101.3125 -82.03125 102.65625 -80.96875 C 104.6875 -79.238281 105.410156 -77.550781 104.828125 -75.90625 C 104.535156 -75.132812 103.863281 -74.847656 102.8125 -75.046875 C 102.226562 -75.335938 101.523438 -75.238281 100.703125 -74.75 C 99.890625 -74.269531 99.289062 -74.03125 98.90625 -74.03125 C 98.519531 -74.03125 96.878906 -73.351562 93.984375 -72 C 91.085938 -70.65625 89.5 -69.984375 89.21875 -69.984375 C 89.019531 -69.984375 88.875 -69.8125 88.78125 -69.46875 C 88.6875 -69.132812 88.585938 -67.765625 88.484375 -65.359375 C 88.390625 -62.753906 88.554688 -61.378906 88.984375 -61.234375 C 89.421875 -61.085938 89.804688 -61.179688 90.140625 -61.515625 C 90.484375 -61.859375 90.847656 -62.03125 91.234375 -62.03125 C 91.617188 -62.03125 92.195312 -62.175781 92.96875 -62.46875 C 96.632812 -64.101562 99.429688 -65.113281 101.359375 -65.5 C 102.609375 -65.695312 103.285156 -66.082031 103.390625 -66.65625 C 103.484375 -67.039062 103.742188 -67.253906 104.171875 -67.296875 C 104.609375 -67.347656 105.835938 -67.328125 107.859375 -67.234375 C 110.566406 -67.046875 112.015625 -66.804688 112.203125 -66.515625 C 112.398438 -66.222656 113.097656 -66.003906 114.296875 -65.859375 C 115.503906 -65.710938 116.109375 -65.445312 116.109375 -65.0625 C 116.109375 -64.675781 116.394531 -64.289062 116.96875 -63.90625 C 117.550781 -63.71875 118.660156 -62.898438 120.296875 -61.453125 C 121.941406 -60.003906 122.765625 -59.1875 122.765625 -59 C 122.765625 -58.613281 122.472656 -58.421875 121.890625 -58.421875 C 121.023438 -58.421875 120.832031 -58.082031 121.3125 -57.40625 C 121.507812 -57.113281 121.894531 -56.921875 122.46875 -56.828125 C 123.050781 -56.628906 123.21875 -56.289062 122.96875 -55.8125 C 122.726562 -55.332031 122.46875 -55.1875 122.1875 -55.375 C 121.507812 -55.570312 119.3125 -55.160156 115.59375 -54.140625 C 111.882812 -53.128906 108.003906 -51.851562 103.953125 -50.3125 C 99.910156 -48.769531 97.164062 -47.851562 95.71875 -47.5625 C 94.269531 -47.28125 92.828125 -46.753906 91.390625 -45.984375 L 89.21875 -44.96875 L 89.5 -41.203125 C 89.59375 -38.609375 89.757812 -37.046875 90 -36.515625 C 90.25 -35.984375 91.742188 -35.304688 94.484375 -34.484375 C 97.234375 -33.660156 99.285156 -33.109375 100.640625 -32.828125 C 104.679688 -32.148438 107.332031 -31.425781 108.59375 -30.65625 C 109.269531 -30.269531 110.28125 -29.835938 111.625 -29.359375 C 113.75 -28.679688 116.28125 -27.378906 119.21875 -25.453125 C 122.15625 -23.523438 124.78125 -21.453125 127.09375 -19.234375 C 127.863281 -18.460938 128.660156 -17.5 129.484375 -16.34375 C 130.304688 -15.1875 130.71875 -14.414062 130.71875 -14.03125 C 130.71875 -13.738281 131.050781 -13.015625 131.71875 -11.859375 C 132.300781 -10.796875 132.351562 -10.265625 131.875 -10.265625 C 131.382812 -10.265625 131.234375 -9.953125 131.421875 -9.328125 C 131.617188 -8.703125 131.960938 -8.097656 132.453125 -7.515625 C 132.929688 -7.035156 132.976562 -6.796875 132.59375 -6.796875 C 132.394531 -6.703125 131.863281 -6.847656 131 -7.234375 C 129.84375 -7.898438 129.023438 -8.28125 128.546875 -8.375 C 128.066406 -8.476562 127.367188 -8.722656 126.453125 -9.109375 C 125.535156 -9.492188 124.785156 -9.6875 124.203125 -9.6875 C 123.628906 -9.6875 121.390625 -10.550781 117.484375 -12.28125 C 113.578125 -14.019531 110.660156 -15.25 108.734375 -15.96875 C 106.804688 -16.695312 105.429688 -17.226562 104.609375 -17.5625 C 103.796875 -17.90625 102.425781 -18.414062 100.5 -19.09375 L 94.421875 -21.546875 C 92.203125 -22.410156 90.972656 -22.84375 90.734375 -22.84375 C 90.492188 -22.84375 90.46875 -20.769531 90.65625 -16.625 C 91.238281 -0.0507812 91.238281 9.488281 90.65625 12 C 90.363281 13.832031 90.316406 14.867188 90.515625 15.109375 C 90.710938 15.347656 90.613281 15.828125 90.21875 16.546875 C 89.832031 17.273438 89.546875 18.894531 89.359375 21.40625 C 89.160156 24.582031 88.820312 26.171875 88.34375 26.171875 C 88.050781 26.171875 87.519531 25.445312 86.75 24 C 85.976562 22.550781 85.398438 21.878906 85.015625 21.984375 C 84.921875 21.984375 84.828125 21.929688 84.734375 21.828125 C 84.640625 21.734375 84.59375 21.59375 84.59375 21.40625 C 84.59375 20.820312 84.132812 20.046875 83.21875 19.078125 C 82.300781 18.117188 81.578125 17.109375 81.046875 16.046875 C 80.515625 14.984375 79.957031 14.425781 79.375 14.375 C 78.800781 14.332031 78.515625 13.972656 78.515625 13.296875 C 78.421875 12.816406 77.9375 12.117188 77.0625 11.203125 C 76.195312 10.285156 75.570312 9.972656 75.1875 10.265625 C 75.09375 10.359375 74.394531 9.707031 73.09375 8.3125 C 71.789062 6.914062 71.140625 6.070312 71.140625 5.78125 C 71.140625 5.488281 70.753906 4.863281 69.984375 3.90625 C 69.117188 2.9375 68.660156 2.210938 68.609375 1.734375 C 68.554688 1.253906 68.914062 0.820312 69.6875 0.4375 C 70.363281 -0.0507812 71.039062 -0.0976562 71.71875 0.296875 C 75.476562 2.703125 77.359375 3.472656 77.359375 2.609375 C 77.359375 2.316406 77.644531 0.335938 78.21875 -3.328125 C 78.507812 -5.160156 78.75 -7.832031 78.9375 -11.34375 C 79.132812 -14.863281 79.207031 -18 79.15625 -20.75 C 79.113281 -23.5 78.945312 -24.875 78.65625 -24.875 C 78.46875 -24.875 78.082031 -24.488281 77.5 -23.71875 C 76.925781 -22.945312 76.640625 -22.414062 76.640625 -22.125 C 76.640625 -21.832031 76.375 -21.539062 75.84375 -21.25 C 75.3125 -20.96875 73.835938 -19.234375 71.421875 -16.046875 C 68.242188 -11.710938 65.015625 -7.804688 61.734375 -4.328125 C 58.460938 -0.859375 56.25 1.066406 55.09375 1.453125 C 54.507812 1.640625 54.171875 1.707031 54.078125 1.65625 C 53.984375 1.613281 53.9375 1.300781 53.9375 0.71875 C 53.9375 -1.6875 53.644531 -3.660156 53.0625 -5.203125 C 52.769531 -6.265625 52.769531 -7.585938 53.0625 -9.171875 C 53.351562 -10.765625 53.738281 -11.753906 54.21875 -12.140625 C 54.601562 -12.335938 54.796875 -12.628906 54.796875 -13.015625 C 54.796875 -13.398438 55.035156 -13.859375 55.515625 -14.390625 C 56.003906 -14.921875 56.441406 -15.1875 56.828125 -15.1875 C 57.304688 -15.1875 57.453125 -15.664062 57.265625 -16.625 C 57.265625 -16.71875 57.3125 -16.789062 57.40625 -16.84375 C 57.5 -16.894531 57.644531 -16.921875 57.84375 -16.921875 C 58.226562 -16.921875 58.78125 -17.304688 59.5 -18.078125 C 60.21875 -18.847656 60.503906 -19.351562 60.359375 -19.59375 C 60.222656 -19.832031 60.734375 -20.53125 61.890625 -21.6875 C 63.722656 -23.519531 65.21875 -25.300781 66.375 -27.03125 C 71.1875 -33.78125 73.882812 -37.785156 74.46875 -39.046875 C 74.757812 -39.910156 72.734375 -39.332031 68.390625 -37.3125 C 66.847656 -36.53125 65.644531 -35.898438 64.78125 -35.421875 C 63.519531 -34.554688 61.925781 -34.703125 60 -35.859375 C 59.132812 -36.441406 58.390625 -36.851562 57.765625 -37.09375 C 57.140625 -37.332031 56.25 -37.984375 55.09375 -39.046875 C 52.78125 -41.066406 51.1875 -41.015625 50.3125 -38.890625 C 49.832031 -37.835938 49.785156 -37.210938 50.171875 -37.015625 C 51.035156 -36.148438 50.75 -35.523438 49.3125 -35.140625 C 48.539062 -34.941406 48.15625 -34.722656 48.15625 -34.484375 C 48.15625 -34.242188 47.789062 -34.003906 47.0625 -33.765625 C 46.34375 -33.523438 45.984375 -33.140625 45.984375 -32.609375 C 45.984375 -32.078125 45.644531 -32.148438 44.96875 -32.828125 L 43.953125 -33.6875 L 38.46875 -31.8125 C 34.707031 -30.65625 32.5625 -30.078125 32.03125 -30.078125 C 31.5 -30.078125 31.28125 -29.785156 31.375 -29.203125 C 31.46875 -28.921875 31.539062 -27.910156 31.59375 -26.171875 C 31.644531 -24.429688 31.671875 -23.082031 31.671875 -22.125 C 31.566406 -21.257812 31.613281 -20.582031 31.8125 -20.09375 L 30.796875 -20.671875 C 30.316406 -21.054688 29.785156 -21.539062 29.203125 -22.125 C 27.085938 -24.050781 25.644531 -25.226562 24.875 -25.65625 C 24.101562 -26.09375 23.71875 -26.476562 23.71875 -26.8125 C 23.71875 -27.15625 23.351562 -27.492188 22.625 -27.828125 C 21.90625 -28.171875 21.546875 -28.675781 21.546875 -29.34375 C 21.546875 -30.019531 21.304688 -30.9375 20.828125 -32.09375 C 19.953125 -34.3125 19.082031 -38.75 18.21875 -45.40625 C 17.25 -53.207031 16.140625 -58.796875 14.890625 -62.171875 C 14.316406 -63.617188 13.59375 -64.726562 12.71875 -65.5 C 12.144531 -65.882812 11.832031 -66.195312 11.78125 -66.4375 C 11.738281 -66.675781 11.859375 -67.132812 12.140625 -67.8125 C 12.628906 -68.675781 13.1875 -69.035156 13.8125 -68.890625 C 14.4375 -68.753906 15.804688 -68.394531 17.921875 -67.8125 C 21.398438 -66.945312 23.332031 -66.03125 23.71875 -65.0625 C 24 -64.675781 24.332031 -64.484375 24.71875 -64.484375 C 25.007812 -64.484375 26.265625 -64.894531 28.484375 -65.71875 C 30.703125 -66.539062 32.195312 -67.09375 32.96875 -67.375 C 35.28125 -68.726562 37.785156 -69.40625 40.484375 -69.40625 C 41.546875 -69.40625 42.222656 -69.597656 42.515625 -69.984375 C 42.609375 -70.273438 43.328125 -70.367188 44.671875 -70.265625 C 46.023438 -70.171875 47.085938 -69.882812 47.859375 -69.40625 C 48.921875 -68.925781 49.546875 -68.6875 49.734375 -68.6875 C 50.117188 -68.6875 50.863281 -68.203125 51.96875 -67.234375 C 53.082031 -66.273438 53.6875 -65.550781 53.78125 -65.0625 C 53.882812 -64.675781 54.660156 -63.90625 56.109375 -62.75 C 58.804688 -60.632812 59.671875 -59.09375 58.703125 -58.125 C 58.316406 -57.644531 58.125 -57.019531 58.125 -56.25 C 58.125 -55.476562 57.976562 -55.019531 57.6875 -54.875 C 57.40625 -54.726562 56.851562 -53.738281 56.03125 -51.90625 C 55.207031 -50.070312 54.703125 -48.769531 54.515625 -48 C 54.316406 -47.226562 54.410156 -46.84375 54.796875 -46.84375 C 55.566406 -46.84375 59.039062 -48.242188 65.21875 -51.046875 C 67.039062 -51.910156 68.722656 -52.609375 70.265625 -53.140625 C 71.816406 -53.671875 72.734375 -54.054688 73.015625 -54.296875 C 73.304688 -54.535156 74.195312 -54.894531 75.6875 -55.375 C 77.1875 -55.863281 78.03125 -56.25 78.21875 -56.53125 C 78.414062 -56.820312 78.46875 -58.222656 78.375 -60.734375 C 78.175781 -62.847656 77.929688 -64.023438 77.640625 -64.265625 C 77.359375 -64.515625 76.15625 -64.445312 74.03125 -64.0625 C 72.289062 -63.769531 70.578125 -63.863281 68.890625 -64.34375 C 67.210938 -64.820312 64.878906 -65.976562 61.890625 -67.8125 C 59.191406 -69.445312 57.84375 -70.554688 57.84375 -71.140625 C 57.84375 -71.328125 57.648438 -71.46875 57.265625 -71.5625 C 56.878906 -71.664062 56.878906 -71.984375 57.265625 -72.515625 C 57.648438 -73.046875 58.421875 -73.3125 59.578125 -73.3125 C 61.785156 -73.3125 64.578125 -74.035156 67.953125 -75.484375 C 68.828125 -75.867188 70.226562 -76.421875 72.15625 -77.140625 C 74.082031 -77.859375 75.625 -78.507812 76.78125 -79.09375 C 77.550781 -79.382812 77.957031 -79.722656 78 -80.109375 C 78.050781 -80.492188 77.882812 -82.375 77.5 -85.75 C 77.40625 -87.09375 77.257812 -89.304688 77.0625 -92.390625 C 76.289062 -101.066406 75.472656 -106.273438 74.609375 -108.015625 C 74.128906 -108.878906 73.550781 -109.550781 72.875 -110.03125 L 71.859375 -110.609375 Z M 42.359375 -58.421875 C 42.171875 -58.804688 41.453125 -58.753906 40.203125 -58.265625 C 39.710938 -58.171875 38.941406 -57.976562 37.890625 -57.6875 C 35.285156 -56.726562 33.066406 -56.25 31.234375 -56.25 L 28.34375 -56.25 L 28.484375 -54.953125 C 28.679688 -54.078125 28.972656 -53.351562 29.359375 -52.78125 C 29.640625 -52.289062 29.945312 -50.984375 30.28125 -48.859375 C 30.625 -46.742188 30.722656 -45.375 30.578125 -44.75 C 30.429688 -44.125 30.503906 -43.738281 30.796875 -43.59375 C 31.085938 -43.445312 31.234375 -43.082031 31.234375 -42.5 C 31.234375 -41.925781 31.378906 -41.640625 31.671875 -41.640625 C 31.953125 -41.640625 32.71875 -41.90625 33.96875 -42.4375 C 35.226562 -42.96875 35.859375 -43.328125 35.859375 -43.515625 C 35.859375 -43.710938 36.34375 -43.8125 37.3125 -43.8125 C 37.976562 -43.8125 38.382812 -43.859375 38.53125 -43.953125 C 38.675781 -44.046875 38.75 -44.429688 38.75 -45.109375 C 38.75 -46.171875 39.328125 -48.195312 40.484375 -51.1875 C 41.734375 -54.851562 42.359375 -57.265625 42.359375 -58.421875 Z M 42.359375 -58.421875 "/></g></g></g><g fill="#ffea93" fill-opacity="1"><g transform="translate(107.372597, 389.421154)"><g><path d="M 72.875 -111.921875 C 73.644531 -113.078125 74.367188 -113.316406 75.046875 -112.640625 C 75.429688 -112.441406 76.585938 -112.007812 78.515625 -111.34375 C 83.617188 -109.695312 86.941406 -107.71875 88.484375 -105.40625 C 88.972656 -104.726562 88.972656 -103.90625 88.484375 -102.9375 C 88.003906 -101.976562 87.785156 -98.507812 87.828125 -92.53125 C 87.878906 -86.5625 87.957031 -83.53125 88.0625 -83.4375 C 88.25 -83.238281 88.875 -83.1875 89.9375 -83.28125 C 91 -83.382812 91.625 -83.53125 91.8125 -83.71875 C 92.582031 -84.300781 94.242188 -84.253906 96.796875 -83.578125 C 99.359375 -82.898438 101.3125 -82.03125 102.65625 -80.96875 C 104.6875 -79.238281 105.410156 -77.550781 104.828125 -75.90625 C 104.535156 -75.132812 103.863281 -74.847656 102.8125 -75.046875 C 102.226562 -75.335938 101.523438 -75.238281 100.703125 -74.75 C 99.890625 -74.269531 99.289062 -74.03125 98.90625 -74.03125 C 98.519531 -74.03125 96.878906 -73.351562 93.984375 -72 C 91.085938 -70.65625 89.5 -69.984375 89.21875 -69.984375 C 89.019531 -69.984375 88.875 -69.8125 88.78125 -69.46875 C 88.6875 -69.132812 88.585938 -67.765625 88.484375 -65.359375 C 88.390625 -62.753906 88.554688 -61.378906 88.984375 -61.234375 C 89.421875 -61.085938 89.804688 -61.179688 90.140625 -61.515625 C 90.484375 -61.859375 90.847656 -62.03125 91.234375 -62.03125 C 91.617188 -62.03125 92.195312 -62.175781 92.96875 -62.46875 C 96.632812 -64.101562 99.429688 -65.113281 101.359375 -65.5 C 102.609375 -65.695312 103.285156 -66.082031 103.390625 -66.65625 C 103.484375 -67.039062 103.742188 -67.253906 104.171875 -67.296875 C 104.609375 -67.347656 105.835938 -67.328125 107.859375 -67.234375 C 110.566406 -67.046875 112.015625 -66.804688 112.203125 -66.515625 C 112.398438 -66.222656 113.097656 -66.003906 114.296875 -65.859375 C 115.503906 -65.710938 116.109375 -65.445312 116.109375 -65.0625 C 116.109375 -64.675781 116.394531 -64.289062 116.96875 -63.90625 C 117.550781 -63.71875 118.660156 -62.898438 120.296875 -61.453125 C 121.941406 -60.003906 122.765625 -59.1875 122.765625 -59 C 122.765625 -58.613281 122.472656 -58.421875 121.890625 -58.421875 C 121.023438 -58.421875 120.832031 -58.082031 121.3125 -57.40625 C 121.507812 -57.113281 121.894531 -56.921875 122.46875 -56.828125 C 123.050781 -56.628906 123.21875 -56.289062 122.96875 -55.8125 C 122.726562 -55.332031 122.46875 -55.1875 122.1875 -55.375 C 121.507812 -55.570312 119.3125 -55.160156 115.59375 -54.140625 C 111.882812 -53.128906 108.003906 -51.851562 103.953125 -50.3125 C 99.910156 -48.769531 97.164062 -47.851562 95.71875 -47.5625 C 94.269531 -47.28125 92.828125 -46.753906 91.390625 -45.984375 L 89.21875 -44.96875 L 89.5 -41.203125 C 89.59375 -38.609375 89.757812 -37.046875 90 -36.515625 C 90.25 -35.984375 91.742188 -35.304688 94.484375 -34.484375 C 97.234375 -33.660156 99.285156 -33.109375 100.640625 -32.828125 C 104.679688 -32.148438 107.332031 -31.425781 108.59375 -30.65625 C 109.269531 -30.269531 110.28125 -29.835938 111.625 -29.359375 C 113.75 -28.679688 116.28125 -27.378906 119.21875 -25.453125 C 122.15625 -23.523438 124.78125 -21.453125 127.09375 -19.234375 C 127.863281 -18.460938 128.660156 -17.5 129.484375 -16.34375 C 130.304688 -15.1875 130.71875 -14.414062 130.71875 -14.03125 C 130.71875 -13.738281 131.050781 -13.015625 131.71875 -11.859375 C 132.300781 -10.796875 132.351562 -10.265625 131.875 -10.265625 C 131.382812 -10.265625 131.234375 -9.953125 131.421875 -9.328125 C 131.617188 -8.703125 131.960938 -8.097656 132.453125 -7.515625 C 132.929688 -7.035156 132.976562 -6.796875 132.59375 -6.796875 C 132.394531 -6.703125 131.863281 -6.847656 131 -7.234375 C 129.84375 -7.898438 129.023438 -8.28125 128.546875 -8.375 C 128.066406 -8.476562 127.367188 -8.722656 126.453125 -9.109375 C 125.535156 -9.492188 124.785156 -9.6875 124.203125 -9.6875 C 123.628906 -9.6875 121.390625 -10.550781 117.484375 -12.28125 C 113.578125 -14.019531 110.660156 -15.25 108.734375 -15.96875 C 106.804688 -16.695312 105.429688 -17.226562 104.609375 -17.5625 C 103.796875 -17.90625 102.425781 -18.414062 100.5 -19.09375 L 94.421875 -21.546875 C 92.203125 -22.410156 90.972656 -22.84375 90.734375 -22.84375 C 90.492188 -22.84375 90.46875 -20.769531 90.65625 -16.625 C 91.238281 -0.0507812 91.238281 9.488281 90.65625 12 C 90.363281 13.832031 90.316406 14.867188 90.515625 15.109375 C 90.710938 15.347656 90.613281 15.828125 90.21875 16.546875 C 89.832031 17.273438 89.546875 18.894531 89.359375 21.40625 C 89.160156 24.582031 88.820312 26.171875 88.34375 26.171875 C 88.050781 26.171875 87.519531 25.445312 86.75 24 C 85.976562 22.550781 85.398438 21.878906 85.015625 21.984375 C 84.921875 21.984375 84.828125 21.929688 84.734375 21.828125 C 84.640625 21.734375 84.59375 21.59375 84.59375 21.40625 C 84.59375 20.820312 84.132812 20.046875 83.21875 19.078125 C 82.300781 18.117188 81.578125 17.109375 81.046875 16.046875 C 80.515625 14.984375 79.957031 14.425781 79.375 14.375 C 78.800781 14.332031 78.515625 13.972656 78.515625 13.296875 C 78.421875 12.816406 77.9375 12.117188 77.0625 11.203125 C 76.195312 10.285156 75.570312 9.972656 75.1875 10.265625 C 75.09375 10.359375 74.394531 9.707031 73.09375 8.3125 C 71.789062 6.914062 71.140625 6.070312 71.140625 5.78125 C 71.140625 5.488281 70.753906 4.863281 69.984375 3.90625 C 69.117188 2.9375 68.660156 2.210938 68.609375 1.734375 C 68.554688 1.253906 68.914062 0.820312 69.6875 0.4375 C 70.363281 -0.0507812 71.039062 -0.0976562 71.71875 0.296875 C 75.476562 2.703125 77.359375 3.472656 77.359375 2.609375 C 77.359375 2.316406 77.644531 0.335938 78.21875 -3.328125 C 78.507812 -5.160156 78.75 -7.832031 78.9375 -11.34375 C 79.132812 -14.863281 79.207031 -18 79.15625 -20.75 C 79.113281 -23.5 78.945312 -24.875 78.65625 -24.875 C 78.46875 -24.875 78.082031 -24.488281 77.5 -23.71875 C 76.925781 -22.945312 76.640625 -22.414062 76.640625 -22.125 C 76.640625 -21.832031 76.375 -21.539062 75.84375 -21.25 C 75.3125 -20.96875 73.835938 -19.234375 71.421875 -16.046875 C 68.242188 -11.710938 65.015625 -7.804688 61.734375 -4.328125 C 58.460938 -0.859375 56.25 1.066406 55.09375 1.453125 C 54.507812 1.640625 54.171875 1.707031 54.078125 1.65625 C 53.984375 1.613281 53.9375 1.300781 53.9375 0.71875 C 53.9375 -1.6875 53.644531 -3.660156 53.0625 -5.203125 C 52.769531 -6.265625 52.769531 -7.585938 53.0625 -9.171875 C 53.351562 -10.765625 53.738281 -11.753906 54.21875 -12.140625 C 54.601562 -12.335938 54.796875 -12.628906 54.796875 -13.015625 C 54.796875 -13.398438 55.035156 -13.859375 55.515625 -14.390625 C 56.003906 -14.921875 56.441406 -15.1875 56.828125 -15.1875 C 57.304688 -15.1875 57.453125 -15.664062 57.265625 -16.625 C 57.265625 -16.71875 57.3125 -16.789062 57.40625 -16.84375 C 57.5 -16.894531 57.644531 -16.921875 57.84375 -16.921875 C 58.226562 -16.921875 58.78125 -17.304688 59.5 -18.078125 C 60.21875 -18.847656 60.503906 -19.351562 60.359375 -19.59375 C 60.222656 -19.832031 60.734375 -20.53125 61.890625 -21.6875 C 63.722656 -23.519531 65.21875 -25.300781 66.375 -27.03125 C 71.1875 -33.78125 73.882812 -37.785156 74.46875 -39.046875 C 74.757812 -39.910156 72.734375 -39.332031 68.390625 -37.3125 C 66.847656 -36.53125 65.644531 -35.898438 64.78125 -35.421875 C 63.519531 -34.554688 61.925781 -34.703125 60 -35.859375 C 59.132812 -36.441406 58.390625 -36.851562 57.765625 -37.09375 C 57.140625 -37.332031 56.25 -37.984375 55.09375 -39.046875 C 52.78125 -41.066406 51.1875 -41.015625 50.3125 -38.890625 C 49.832031 -37.835938 49.785156 -37.210938 50.171875 -37.015625 C 51.035156 -36.148438 50.75 -35.523438 49.3125 -35.140625 C 48.539062 -34.941406 48.15625 -34.722656 48.15625 -34.484375 C 48.15625 -34.242188 47.789062 -34.003906 47.0625 -33.765625 C 46.34375 -33.523438 45.984375 -33.140625 45.984375 -32.609375 C 45.984375 -32.078125 45.644531 -32.148438 44.96875 -32.828125 L 43.953125 -33.6875 L 38.46875 -31.8125 C 34.707031 -30.65625 32.5625 -30.078125 32.03125 -30.078125 C 31.5 -30.078125 31.28125 -29.785156 31.375 -29.203125 C 31.46875 -28.921875 31.539062 -27.910156 31.59375 -26.171875 C 31.644531 -24.429688 31.671875 -23.082031 31.671875 -22.125 C 31.566406 -21.257812 31.613281 -20.582031 31.8125 -20.09375 L 30.796875 -20.671875 C 30.316406 -21.054688 29.785156 -21.539062 29.203125 -22.125 C 27.085938 -24.050781 25.644531 -25.226562 24.875 -25.65625 C 24.101562 -26.09375 23.71875 -26.476562 23.71875 -26.8125 C 23.71875 -27.15625 23.351562 -27.492188 22.625 -27.828125 C 21.90625 -28.171875 21.546875 -28.675781 21.546875 -29.34375 C 21.546875 -30.019531 21.304688 -30.9375 20.828125 -32.09375 C 19.953125 -34.3125 19.082031 -38.75 18.21875 -45.40625 C 17.25 -53.207031 16.140625 -58.796875 14.890625 -62.171875 C 14.316406 -63.617188 13.59375 -64.726562 12.71875 -65.5 C 12.144531 -65.882812 11.832031 -66.195312 11.78125 -66.4375 C 11.738281 -66.675781 11.859375 -67.132812 12.140625 -67.8125 C 12.628906 -68.675781 13.1875 -69.035156 13.8125 -68.890625 C 14.4375 -68.753906 15.804688 -68.394531 17.921875 -67.8125 C 21.398438 -66.945312 23.332031 -66.03125 23.71875 -65.0625 C 24 -64.675781 24.332031 -64.484375 24.71875 -64.484375 C 25.007812 -64.484375 26.265625 -64.894531 28.484375 -65.71875 C 30.703125 -66.539062 32.195312 -67.09375 32.96875 -67.375 C 35.28125 -68.726562 37.785156 -69.40625 40.484375 -69.40625 C 41.546875 -69.40625 42.222656 -69.597656 42.515625 -69.984375 C 42.609375 -70.273438 43.328125 -70.367188 44.671875 -70.265625 C 46.023438 -70.171875 47.085938 -69.882812 47.859375 -69.40625 C 48.921875 -68.925781 49.546875 -68.6875 49.734375 -68.6875 C 50.117188 -68.6875 50.863281 -68.203125 51.96875 -67.234375 C 53.082031 -66.273438 53.6875 -65.550781 53.78125 -65.0625 C 53.882812 -64.675781 54.660156 -63.90625 56.109375 -62.75 C 58.804688 -60.632812 59.671875 -59.09375 58.703125 -58.125 C 58.316406 -57.644531 58.125 -57.019531 58.125 -56.25 C 58.125 -55.476562 57.976562 -55.019531 57.6875 -54.875 C 57.40625 -54.726562 56.851562 -53.738281 56.03125 -51.90625 C 55.207031 -50.070312 54.703125 -48.769531 54.515625 -48 C 54.316406 -47.226562 54.410156 -46.84375 54.796875 -46.84375 C 55.566406 -46.84375 59.039062 -48.242188 65.21875 -51.046875 C 67.039062 -51.910156 68.722656 -52.609375 70.265625 -53.140625 C 71.816406 -53.671875 72.734375 -54.054688 73.015625 -54.296875 C 73.304688 -54.535156 74.195312 -54.894531 75.6875 -55.375 C 77.1875 -55.863281 78.03125 -56.25 78.21875 -56.53125 C 78.414062 -56.820312 78.46875 -58.222656 78.375 -60.734375 C 78.175781 -62.847656 77.929688 -64.023438 77.640625 -64.265625 C 77.359375 -64.515625 76.15625 -64.445312 74.03125 -64.0625 C 72.289062 -63.769531 70.578125 -63.863281 68.890625 -64.34375 C 67.210938 -64.820312 64.878906 -65.976562 61.890625 -67.8125 C 59.191406 -69.445312 57.84375 -70.554688 57.84375 -71.140625 C 57.84375 -71.328125 57.648438 -71.46875 57.265625 -71.5625 C 56.878906 -71.664062 56.878906 -71.984375 57.265625 -72.515625 C 57.648438 -73.046875 58.421875 -73.3125 59.578125 -73.3125 C 61.785156 -73.3125 64.578125 -74.035156 67.953125 -75.484375 C 68.828125 -75.867188 70.226562 -76.421875 72.15625 -77.140625 C 74.082031 -77.859375 75.625 -78.507812 76.78125 -79.09375 C 77.550781 -79.382812 77.957031 -79.722656 78 -80.109375 C 78.050781 -80.492188 77.882812 -82.375 77.5 -85.75 C 77.40625 -87.09375 77.257812 -89.304688 77.0625 -92.390625 C 76.289062 -101.066406 75.472656 -106.273438 74.609375 -108.015625 C 74.128906 -108.878906 73.550781 -109.550781 72.875 -110.03125 L 71.859375 -110.609375 Z M 42.359375 -58.421875 C 42.171875 -58.804688 41.453125 -58.753906 40.203125 -58.265625 C 39.710938 -58.171875 38.941406 -57.976562 37.890625 -57.6875 C 35.285156 -56.726562 33.066406 -56.25 31.234375 -56.25 L 28.34375 -56.25 L 28.484375 -54.953125 C 28.679688 -54.078125 28.972656 -53.351562 29.359375 -52.78125 C 29.640625 -52.289062 29.945312 -50.984375 30.28125 -48.859375 C 30.625 -46.742188 30.722656 -45.375 30.578125 -44.75 C 30.429688 -44.125 30.503906 -43.738281 30.796875 -43.59375 C 31.085938 -43.445312 31.234375 -43.082031 31.234375 -42.5 C 31.234375 -41.925781 31.378906 -41.640625 31.671875 -41.640625 C 31.953125 -41.640625 32.71875 -41.90625 33.96875 -42.4375 C 35.226562 -42.96875 35.859375 -43.328125 35.859375 -43.515625 C 35.859375 -43.710938 36.34375 -43.8125 37.3125 -43.8125 C 37.976562 -43.8125 38.382812 -43.859375 38.53125 -43.953125 C 38.675781 -44.046875 38.75 -44.429688 38.75 -45.109375 C 38.75 -46.171875 39.328125 -48.195312 40.484375 -51.1875 C 41.734375 -54.851562 42.359375 -57.265625 42.359375 -58.421875 Z M 42.359375 -58.421875 "/></g></g></g></svg>